<svg width="33" height="32" viewBox="0 0 33 32" fill="none" xmlns="http://www.w3.org/2000/svg">
<g clip-path="url(#clip0)">
<path d="M16.7314 0C7.94327 0 0.731354 7.21191 0.731354 16C0.731354 23.4993 5.99356 30.3115 12.9814 32V26.7065C12.289 26.8582 11.6518 26.8625 10.9469 26.6548C10.0014 26.3757 9.23306 25.7458 8.66275 24.7854C8.29922 24.1721 7.65494 23.5071 6.98282 23.5559L6.81802 21.6882C8.27139 21.5637 9.52872 22.5737 10.2751 23.8276C10.6066 24.3853 10.9882 24.7122 11.4779 24.8567C11.9513 24.9961 12.4596 24.9292 13.0519 24.72C13.2006 23.5342 13.7438 23.0903 14.1542 22.4653V22.4644C9.98672 21.8428 8.32584 19.6318 7.66666 17.8867C6.79312 15.5696 7.26187 12.6748 8.80655 10.8455C8.83658 10.8098 8.89078 10.7166 8.86978 10.6514C8.16153 8.51196 9.02457 6.74219 9.0563 6.55444C9.87369 6.79614 10.0065 6.31128 12.6068 7.89111L13.0563 8.16113C13.2443 8.27319 13.1852 8.20923 13.3732 8.19507C14.4589 7.90015 15.6034 7.7373 16.7311 7.72266C17.8673 7.7373 19.0045 7.90015 20.1352 8.20703L20.2807 8.22168C20.268 8.21973 20.3202 8.2124 20.4079 8.16016C23.6562 6.19263 23.5395 6.83569 24.4106 6.55249C24.442 6.74048 25.2936 8.53906 24.5929 10.6514C24.4984 10.9424 27.4091 13.6077 25.7958 17.886C25.1366 19.6318 23.476 21.8428 19.3085 22.4644V22.4653C19.8427 23.2795 20.4845 23.7126 20.4811 25.3923V32C27.4691 30.3115 32.7311 23.4993 32.7311 16C32.7314 7.21191 25.5194 0 16.7314 0V0Z" fill="#001021"/>
</g>
<defs>
<clipPath id="clip0">
<rect width="32" height="32" fill="white" transform="translate(0.731354)"/>
</clipPath>
</defs>
</svg>
