<svg width="16" height="21" viewBox="0 0 16 21" fill="none" xmlns="http://www.w3.org/2000/svg">
<path d="M10.6701 21C9.11427 21.0011 7.57708 20.6669 6.16637 20.0208C4.75566 19.3748 3.5056 18.4325 2.50393 17.2602C1.50226 16.0879 0.773231 14.714 0.368013 13.2348C-0.0372047 11.7556 -0.108798 10.207 0.158258 8.69766C0.425313 7.18832 1.02455 5.75482 1.91391 4.49775C2.80327 3.24067 3.96121 2.19049 5.30648 1.42089C6.65174 0.651282 8.15174 0.180907 9.7012 0.0427686C11.2507 -0.0953697 12.8121 0.102076 14.2758 0.621249C14.7142 0.776145 15.1023 1.04401 15.3998 1.39693C15.6973 1.74984 15.8932 2.17488 15.967 2.62772C16.0409 3.08056 15.9901 3.54463 15.8198 3.97154C15.6496 4.39844 15.3661 4.77256 14.9991 5.05487C10.4675 8.48487 10.4781 12.5265 14.9991 15.9451C15.3661 16.2276 15.6494 16.6018 15.8196 17.0288C15.9897 17.4558 16.0404 17.92 15.9663 18.3728C15.8923 18.8257 15.6962 19.2507 15.3985 19.6035C15.1009 19.9563 14.7125 20.2241 14.274 20.3787C13.1171 20.7854 11.8985 20.9955 10.6701 21ZM10.6701 2.625C9.50765 2.62373 8.35892 2.87204 7.3039 3.35261C6.24889 3.83319 5.31294 4.53448 4.56127 5.40764C3.80959 6.28081 3.26025 7.30484 2.95152 8.40843C2.64279 9.51201 2.58208 10.6686 2.77363 11.7977C2.96517 12.9267 3.40437 14.0011 4.06062 14.9459C4.71688 15.8907 5.57441 16.6833 6.57349 17.2684C7.57257 17.8535 8.68918 18.2172 9.84553 18.3339C11.0019 18.4507 12.1702 18.3178 13.2691 17.9445C7.48373 13.5126 7.50328 7.47162 13.2691 3.0555C12.4316 2.77632 11.5542 2.63098 10.6701 2.625Z" fill="#001021"/>
</svg>
