<svg width="110" height="36" viewBox="0 0 110 36" fill="none" xmlns="http://www.w3.org/2000/svg">
<mask id="path-1-inside-1_2403_228" fill="white">
<path d="M9.24154 34H0L0 24.7585L9.24154 34Z"/>
<path d="M30.9441 20.865L19.0541 32.755L13.1498 32.8116L1.2908 20.9533L1.26255 15.079L13.1541 3.24358L19.012 3.16653L30.8878 15.0737L30.9441 20.865Z"/>
<path d="M32 34H22.6312L32 24.6312V34Z"/>
<path d="M32 2.00001V11.4867L22.5133 2.00001H32Z"/>
<path d="M0 11.3867L0 2.00001H9.38667L0 11.3867Z"/>
</mask>
<path d="M9.24154 34H0L0 24.7585L9.24154 34Z" fill="#001021"/>
<path d="M30.9441 20.865L19.0541 32.755L13.1498 32.8116L1.2908 20.9533L1.26255 15.079L13.1541 3.24358L19.012 3.16653L30.8878 15.0737L30.9441 20.865Z" fill="#001021"/>
<path d="M32 34H22.6312L32 24.6312V34Z" fill="#001021"/>
<path d="M32 2.00001V11.4867L22.5133 2.00001H32Z" fill="#001021"/>
<path d="M0 11.3867L0 2.00001H9.38667L0 11.3867Z" fill="#001021"/>
<path d="M9.24154 34H0L0 24.7585L9.24154 34Z" stroke="#001021" stroke-width="20" mask="url(#path-1-inside-1_2403_228)"/>
<path d="M30.9441 20.865L19.0541 32.755L13.1498 32.8116L1.2908 20.9533L1.26255 15.079L13.1541 3.24358L19.012 3.16653L30.8878 15.0737L30.9441 20.865Z" stroke="#001021" stroke-width="20" mask="url(#path-1-inside-1_2403_228)"/>
<path d="M32 34H22.6312L32 24.6312V34Z" stroke="#001021" stroke-width="20" mask="url(#path-1-inside-1_2403_228)"/>
<path d="M32 2.00001V11.4867L22.5133 2.00001H32Z" stroke="#001021" stroke-width="20" mask="url(#path-1-inside-1_2403_228)"/>
<path d="M0 11.3867L0 2.00001H9.38667L0 11.3867Z" stroke="#001021" stroke-width="20" mask="url(#path-1-inside-1_2403_228)"/>
<path d="M55.7963 22.268H59.1563C59.3323 22.268 59.4202 22.38 59.4202 22.604V26.828C59.4202 27.276 59.1962 27.5 58.7483 27.5H52.9402V25.22H55.1723C55.4283 25.22 55.5563 25.196 55.5563 25.148C55.5723 25.084 55.5803 25.012 55.5803 24.932V22.532C55.5803 22.404 55.5963 22.332 55.6283 22.316C55.6603 22.284 55.7163 22.268 55.7963 22.268ZM52.1002 27.5H49.5802C49.0362 27.5 48.6762 27.412 48.5002 27.236C48.3402 27.06 48.2602 26.692 48.2602 26.132V11.516C48.2602 10.956 48.3402 10.588 48.5002 10.412C48.6762 10.236 49.0362 10.148 49.5802 10.148H52.1002V27.5ZM71.5545 10.148H73.3545C74.7145 10.148 75.3945 10.924 75.3945 12.476V18.572C75.3945 20.012 74.6905 20.732 73.2825 20.732H69.9705V18.452H70.9065C71.1945 18.452 71.3705 18.404 71.4345 18.308C71.5145 18.196 71.5545 18.012 71.5545 17.756V10.148ZM69.0105 20.732H68.3385C68.0505 20.732 67.8665 20.788 67.7865 20.9C67.7225 20.996 67.6905 21.172 67.6905 21.428V27.5H65.6505C64.8665 27.5 64.3705 27.372 64.1625 27.116C63.9545 26.86 63.8505 26.22 63.8505 25.196V20.132C63.8505 19.428 63.9705 18.972 64.2105 18.764C64.4505 18.556 64.9545 18.452 65.7225 18.452H69.0105V20.732ZM74.7945 24.74C75.1945 24.74 75.3945 24.964 75.3945 25.412V27.5H68.6745L68.6505 24.74H74.7945ZM70.5945 12.428H68.3145C67.9785 12.428 67.7705 12.484 67.6905 12.596C67.6105 12.692 67.5705 12.876 67.5705 13.148V15.812H64.9305C64.3385 15.812 63.9865 15.764 63.8745 15.668C63.7785 15.572 63.7305 15.276 63.7305 14.78V12.716C63.7305 11.836 63.8585 11.188 64.1145 10.772C64.3865 10.356 64.9705 10.148 65.8665 10.148H70.5945V12.428ZM88.392 10.148H90.192C91.552 10.148 92.232 10.924 92.232 12.476V18.572C92.232 20.012 91.528 20.732 90.12 20.732H86.808V18.452H87.744C88.032 18.452 88.208 18.404 88.272 18.308C88.352 18.196 88.392 18.012 88.392 17.756V10.148ZM85.848 20.732H85.176C84.888 20.732 84.704 20.788 84.624 20.9C84.56 20.996 84.528 21.172 84.528 21.428V27.5H82.488C81.704 27.5 81.208 27.372 81 27.116C80.792 26.86 80.688 26.22 80.688 25.196V20.132C80.688 19.428 80.808 18.972 81.048 18.764C81.288 18.556 81.792 18.452 82.56 18.452H85.848V20.732ZM91.632 24.74C92.032 24.74 92.232 24.964 92.232 25.412V27.5H85.512L85.488 24.74H91.632ZM87.432 12.428H85.152C84.816 12.428 84.608 12.484 84.528 12.596C84.448 12.692 84.408 12.876 84.408 13.148V15.812H81.768C81.176 15.812 80.824 15.764 80.712 15.668C80.616 15.572 80.568 15.276 80.568 14.78V12.716C80.568 11.836 80.696 11.188 80.952 10.772C81.224 10.356 81.808 10.148 82.704 10.148H87.432V12.428ZM105.277 22.268H108.637C108.813 22.268 108.901 22.38 108.901 22.604V26.828C108.901 27.276 108.677 27.5 108.229 27.5H102.421V25.22H104.653C104.909 25.22 105.037 25.196 105.037 25.148C105.053 25.084 105.061 25.012 105.061 24.932V22.532C105.061 22.404 105.077 22.332 105.109 22.316C105.141 22.284 105.197 22.268 105.277 22.268ZM101.581 27.5H99.0615C98.5175 27.5 98.1575 27.412 97.9815 27.236C97.8215 27.06 97.7415 26.692 97.7415 26.132V11.516C97.7415 10.956 97.8215 10.588 97.9815 10.412C98.1575 10.236 98.5175 10.148 99.0615 10.148H101.581V27.5Z" fill="#001021"/>
<path d="M52.9402 27.5H51.9402V28.5H52.9402V27.5ZM52.9402 25.22V24.22H51.9402V25.22H52.9402ZM55.5563 25.148L54.5861 24.9055L54.5563 25.0249V25.148H55.5563ZM55.6283 22.316L56.0755 23.2104L56.2206 23.1379L56.3354 23.0231L55.6283 22.316ZM52.1002 27.5V28.5H53.1002V27.5H52.1002ZM48.5002 27.236L47.7603 27.9087L47.7763 27.9263L47.7931 27.9431L48.5002 27.236ZM48.5002 10.412L47.7931 9.70489L47.7763 9.72172L47.7603 9.73933L48.5002 10.412ZM52.1002 10.148H53.1002V9.148H52.1002V10.148ZM55.7963 23.268H59.1563V21.268H55.7963V23.268ZM59.1563 23.268C59.0172 23.268 58.7579 23.2116 58.5679 22.9698C58.4888 22.8691 58.4527 22.7726 58.4364 22.7104C58.4205 22.6498 58.4202 22.6102 58.4202 22.604H60.4202C60.4202 22.3883 60.3825 22.0421 60.1406 21.7342C59.8626 21.3804 59.4713 21.268 59.1563 21.268V23.268ZM58.4202 22.604V26.828H60.4202V22.604H58.4202ZM58.4202 26.828C58.4202 26.8979 58.4035 26.7666 58.5451 26.6249C58.6868 26.4832 58.8181 26.5 58.7483 26.5V28.5C59.1264 28.5 59.5937 28.4048 59.9594 28.0391C60.325 27.6734 60.4202 27.2061 60.4202 26.828H58.4202ZM58.7483 26.5H52.9402V28.5H58.7483V26.5ZM53.9402 27.5V25.22H51.9402V27.5H53.9402ZM52.9402 26.22H55.1723V24.22H52.9402V26.22ZM55.1723 26.22C55.315 26.22 55.4864 26.2145 55.6445 26.1849C55.7144 26.1718 55.8647 26.1399 56.0225 26.0511C56.1726 25.9666 56.5563 25.6895 56.5563 25.148H54.5563C54.5563 24.6305 54.9239 24.3744 55.042 24.3079C55.1678 24.2371 55.2701 24.2202 55.276 24.2191C55.3061 24.2135 55.2855 24.22 55.1723 24.22V26.22ZM56.5264 25.3905C56.5659 25.2325 56.5803 25.0771 56.5803 24.932H54.5803C54.5803 24.9389 54.5799 24.9398 54.5804 24.9356C54.5808 24.9313 54.5822 24.9209 54.5861 24.9055L56.5264 25.3905ZM56.5803 24.932V22.532H54.5803V24.932H56.5803ZM56.5803 22.532C56.5803 22.4961 56.5837 22.5303 56.5684 22.5989C56.5607 22.6336 56.5397 22.7173 56.4851 22.8174C56.4313 22.9161 56.31 23.0932 56.0755 23.2104L55.181 21.4216C54.9305 21.5468 54.7952 21.7389 54.7294 21.8596C54.6628 21.9817 54.6318 22.0944 54.6161 22.1651C54.5848 22.3057 54.5803 22.4399 54.5803 22.532H56.5803ZM56.3354 23.0231C56.2015 23.1569 56.0586 23.2159 55.969 23.2415C55.8813 23.2666 55.8172 23.268 55.7963 23.268V21.268C55.6385 21.268 55.2411 21.289 54.9211 21.6089L56.3354 23.0231ZM52.1002 26.5H49.5802V28.5H52.1002V26.5ZM49.5802 26.5C49.3547 26.5 49.215 26.481 49.1397 26.4626C49.0564 26.4422 49.1175 26.439 49.2074 26.5289L47.7931 27.9431C48.059 28.209 48.3881 28.3378 48.6648 28.4054C48.9495 28.475 49.2618 28.5 49.5802 28.5V26.5ZM49.2402 26.5633C49.2881 26.616 49.3071 26.6574 49.3102 26.6644C49.3133 26.6716 49.3067 26.6584 49.2974 26.6156C49.278 26.5262 49.2602 26.3715 49.2602 26.132H47.2602C47.2602 26.4525 47.2825 26.7618 47.3431 27.0404C47.4007 27.3053 47.5124 27.636 47.7603 27.9087L49.2402 26.5633ZM49.2602 26.132V11.516H47.2602V26.132H49.2602ZM49.2602 11.516C49.2602 11.2765 49.278 11.1218 49.2974 11.0324C49.3067 10.9896 49.3133 10.9764 49.3102 10.9836C49.3071 10.9906 49.2881 11.032 49.2402 11.0847L47.7603 9.73933C47.5124 10.012 47.4007 10.3427 47.3431 10.6076C47.2825 10.8862 47.2602 11.1955 47.2602 11.516H49.2602ZM49.2074 11.1191C49.1175 11.209 49.0564 11.2058 49.1397 11.1854C49.215 11.167 49.3547 11.148 49.5802 11.148V9.148C49.2618 9.148 48.9495 9.17301 48.6648 9.2426C48.3881 9.31024 48.059 9.43902 47.7931 9.70489L49.2074 11.1191ZM49.5802 11.148H52.1002V9.148H49.5802V11.148ZM51.1002 10.148V27.5H53.1002V10.148H51.1002ZM71.5545 10.148V9.148H70.5545V10.148H71.5545ZM69.9705 20.732H68.9705V21.732H69.9705V20.732ZM69.9705 18.452V17.452H68.9705V18.452H69.9705ZM71.4345 18.308L70.6208 17.7268L70.6114 17.7399L70.6024 17.7533L71.4345 18.308ZM69.0105 20.732V21.732H70.0105V20.732H69.0105ZM67.7865 20.9L66.9728 20.3188L66.9634 20.3319L66.9544 20.3453L67.7865 20.9ZM67.6905 27.5V28.5H68.6905V27.5H67.6905ZM64.1625 27.116L63.3864 27.7466L63.3864 27.7466L64.1625 27.116ZM64.2105 18.764L63.5556 18.0083L63.5556 18.0083L64.2105 18.764ZM69.0105 18.452H70.0105V17.452H69.0105V18.452ZM75.3945 27.5V28.5H76.3945V27.5H75.3945ZM68.6745 27.5L67.6745 27.5087L67.6832 28.5H68.6745V27.5ZM68.6505 24.74V23.74H67.6418L67.6505 24.7487L68.6505 24.74ZM70.5945 12.428V13.428H71.5945V12.428H70.5945ZM67.6905 12.596L68.4587 13.2362L68.4826 13.2076L68.5042 13.1772L67.6905 12.596ZM67.5705 15.812V16.812H68.5705V15.812H67.5705ZM63.8745 15.668L63.1674 16.3751L63.1945 16.4023L63.2237 16.4273L63.8745 15.668ZM64.1145 10.772L63.2775 10.2248L63.27 10.2362L63.2628 10.2479L64.1145 10.772ZM70.5945 10.148H71.5945V9.148H70.5945V10.148ZM71.5545 11.148H73.3545V9.148H71.5545V11.148ZM73.3545 11.148C73.8435 11.148 74.0381 11.2814 74.1324 11.3891C74.2488 11.5219 74.3945 11.8241 74.3945 12.476H76.3945C76.3945 11.5759 76.2002 10.7141 75.6366 10.0709C75.0509 9.40259 74.2255 9.148 73.3545 9.148V11.148ZM74.3945 12.476V18.572H76.3945V12.476H74.3945ZM74.3945 18.572C74.3945 19.1434 74.2548 19.3873 74.1515 19.4929C74.0523 19.5943 73.8266 19.732 73.2825 19.732V21.732C74.1464 21.732 74.9767 21.5097 75.5815 20.8911C76.1822 20.2767 76.3945 19.4406 76.3945 18.572H74.3945ZM73.2825 19.732H69.9705V21.732H73.2825V19.732ZM70.9705 20.732V18.452H68.9705V20.732H70.9705ZM69.9705 19.452H70.9065V17.452H69.9705V19.452ZM70.9065 19.452C71.0944 19.452 71.3093 19.4376 71.5176 19.3808C71.7102 19.3282 72.0417 19.1999 72.2666 18.8627L70.6024 17.7533C70.6842 17.6307 70.7806 17.5557 70.851 17.5135C70.9191 17.4727 70.9722 17.4565 70.9914 17.4512C71.0237 17.4424 71.0066 17.452 70.9065 17.452V19.452ZM72.2482 18.8892C72.5157 18.5147 72.5545 18.066 72.5545 17.756H70.5545C70.5545 17.7944 70.553 17.8233 70.5511 17.844C70.5492 17.8648 70.5472 17.8739 70.5473 17.8736C70.5474 17.8734 70.5504 17.8591 70.5603 17.8348C70.5702 17.8104 70.5886 17.7718 70.6208 17.7268L72.2482 18.8892ZM72.5545 17.756V10.148H70.5545V17.756H72.5545ZM69.0105 19.732H68.3385V21.732H69.0105V19.732ZM68.3385 19.732C68.1397 19.732 67.9141 19.7501 67.6933 19.8173C67.4726 19.8845 67.1831 20.0244 66.9728 20.3188L68.6002 21.4812C68.4699 21.6636 68.3124 21.7195 68.2757 21.7307C68.2389 21.7419 68.2492 21.732 68.3385 21.732V19.732ZM66.9544 20.3453C66.8167 20.552 66.759 20.769 66.7306 20.9251C66.7004 21.0913 66.6905 21.2633 66.6905 21.428H68.6905C68.6905 21.3844 68.6919 21.3504 68.6938 21.3249C68.6957 21.299 68.6978 21.2858 68.6984 21.2829C68.699 21.2793 68.6968 21.2934 68.6875 21.3198C68.6784 21.3455 68.6584 21.395 68.6185 21.4547L66.9544 20.3453ZM66.6905 21.428V27.5H68.6905V21.428H66.6905ZM67.6905 26.5H65.6505V28.5H67.6905V26.5ZM65.6505 26.5C65.3033 26.5 65.0758 26.4707 64.9404 26.4357C64.7923 26.3975 64.8517 26.3784 64.9386 26.4854L63.3864 27.7466C63.6813 28.1096 64.0927 28.2825 64.4406 28.3723C64.8012 28.4653 65.2137 28.5 65.6505 28.5V26.5ZM64.9386 26.4854C64.9843 26.5416 64.9865 26.5695 64.9704 26.5232C64.956 26.4817 64.9354 26.4056 64.9156 26.2836C64.8756 26.0379 64.8505 25.6812 64.8505 25.196H62.8505C62.8505 25.7348 62.8774 26.2101 62.9414 26.6044C62.9992 26.9599 63.1092 27.4054 63.3864 27.7466L64.9386 26.4854ZM64.8505 25.196V20.132H62.8505V25.196H64.8505ZM64.8505 20.132C64.8505 19.8281 64.8773 19.6315 64.9076 19.5165C64.9398 19.3941 64.9548 19.4422 64.8654 19.5197L63.5556 18.0083C63.2262 18.2938 63.0612 18.6739 62.9734 19.0075C62.8837 19.3485 62.8505 19.7319 62.8505 20.132H64.8505ZM64.8654 19.5197C64.7995 19.5768 64.7931 19.546 64.9706 19.5094C65.1322 19.476 65.3767 19.452 65.7225 19.452V17.452C65.3003 17.452 64.9088 17.48 64.5664 17.5506C64.2399 17.618 63.8615 17.7432 63.5556 18.0083L64.8654 19.5197ZM65.7225 19.452H69.0105V17.452H65.7225V19.452ZM68.0105 18.452V20.732H70.0105V18.452H68.0105ZM74.7945 25.74C74.8037 25.74 74.7681 25.7416 74.7072 25.7188C74.6405 25.6939 74.5638 25.6471 74.4986 25.574C74.3706 25.4307 74.3945 25.316 74.3945 25.412H76.3945C76.3945 25.06 76.3184 24.6093 75.9904 24.242C75.6432 23.8531 75.1798 23.74 74.7945 23.74V25.74ZM74.3945 25.412V27.5H76.3945V25.412H74.3945ZM75.3945 26.5H68.6745V28.5H75.3945V26.5ZM69.6745 27.4913L69.6505 24.7313L67.6505 24.7487L67.6745 27.5087L69.6745 27.4913ZM68.6505 25.74H74.7945V23.74H68.6505V25.74ZM70.5945 11.428H68.3145V13.428H70.5945V11.428ZM68.3145 11.428C68.1018 11.428 67.8687 11.4446 67.6465 11.5044C67.4383 11.5604 67.1089 11.6898 66.8768 12.0148L68.5042 13.1772C68.4266 13.2859 68.3392 13.3508 68.2784 13.3863C68.2195 13.4206 68.1764 13.4329 68.1665 13.4356C68.1523 13.4394 68.1912 13.428 68.3145 13.428V11.428ZM66.9223 11.9558C66.7401 12.1744 66.6616 12.4173 66.6233 12.5936C66.5831 12.7786 66.5705 12.9692 66.5705 13.148H68.5705C68.5705 13.1039 68.5721 13.071 68.5742 13.0479C68.5762 13.0243 68.5783 13.0155 68.5777 13.0184C68.5772 13.0207 68.5723 13.0431 68.5571 13.0784C68.542 13.1137 68.5125 13.1717 68.4587 13.2362L66.9223 11.9558ZM66.5705 13.148V15.812H68.5705V13.148H66.5705ZM67.5705 14.812H64.9305V16.812H67.5705V14.812ZM64.9305 14.812C64.6542 14.812 64.4692 14.8004 64.3576 14.7852C64.3017 14.7775 64.2872 14.772 64.2999 14.7759C64.3074 14.7783 64.3318 14.7862 64.3666 14.8032C64.4001 14.8195 64.459 14.852 64.5253 14.9087L63.2237 16.4273C63.401 16.5793 63.5925 16.6505 63.7071 16.6861C63.8358 16.726 63.9673 16.7505 64.0874 16.7668C64.3278 16.7996 64.6148 16.812 64.9305 16.812V14.812ZM64.5816 14.9609C64.6446 15.0238 64.6842 15.0835 64.7075 15.1239C64.7311 15.1649 64.744 15.197 64.7502 15.2137C64.7614 15.2442 64.7594 15.2497 64.7536 15.2139C64.7483 15.1815 64.7422 15.1296 64.7377 15.054C64.7331 14.9794 64.7305 14.8886 64.7305 14.78H62.7305C62.7305 15.0518 62.7431 15.3102 62.7794 15.5341C62.7976 15.6463 62.8256 15.7748 62.8728 15.9033C62.9166 16.0224 63.0006 16.2083 63.1674 16.3751L64.5816 14.9609ZM64.7305 14.78V12.716H62.7305V14.78H64.7305ZM64.7305 12.716C64.7305 11.8932 64.8574 11.4728 64.9662 11.2961L63.2628 10.2479C62.8596 10.9032 62.7305 11.7788 62.7305 12.716H64.7305ZM64.9515 11.3192C64.941 11.3353 64.954 11.2952 65.092 11.246C65.2399 11.1934 65.4864 11.148 65.8665 11.148V9.148C64.8981 9.148 63.8432 9.35966 63.2775 10.2248L64.9515 11.3192ZM65.8665 11.148H70.5945V9.148H65.8665V11.148ZM69.5945 10.148V12.428H71.5945V10.148H69.5945ZM88.392 10.148V9.148H87.392V10.148H88.392ZM86.808 20.732H85.808V21.732H86.808V20.732ZM86.808 18.452V17.452H85.808V18.452H86.808ZM88.272 18.308L87.4583 17.7268L87.4489 17.7399L87.4399 17.7533L88.272 18.308ZM85.848 20.732V21.732H86.848V20.732H85.848ZM84.624 20.9L83.8103 20.3188L83.8009 20.3319L83.7919 20.3453L84.624 20.9ZM84.528 27.5V28.5H85.528V27.5H84.528ZM81 27.116L80.2239 27.7466L80.2239 27.7466L81 27.116ZM81.048 18.764L80.3931 18.0083L80.3931 18.0083L81.048 18.764ZM85.848 18.452H86.848V17.452H85.848V18.452ZM92.232 27.5V28.5H93.232V27.5H92.232ZM85.512 27.5L84.512 27.5087L84.5207 28.5H85.512V27.5ZM85.488 24.74V23.74H84.4793L84.488 24.7487L85.488 24.74ZM87.432 12.428V13.428H88.432V12.428H87.432ZM84.528 12.596L85.2962 13.2362L85.3201 13.2076L85.3417 13.1772L84.528 12.596ZM84.408 15.812V16.812H85.408V15.812H84.408ZM80.712 15.668L80.0049 16.3751L80.032 16.4023L80.0612 16.4273L80.712 15.668ZM80.952 10.772L80.115 10.2248L80.1075 10.2362L80.1003 10.2479L80.952 10.772ZM87.432 10.148H88.432V9.148H87.432V10.148ZM88.392 11.148H90.192V9.148H88.392V11.148ZM90.192 11.148C90.681 11.148 90.8756 11.2814 90.9699 11.3891C91.0863 11.5219 91.232 11.8241 91.232 12.476H93.232C93.232 11.5759 93.0377 10.7141 92.4741 10.0709C91.8884 9.40259 91.063 9.148 90.192 9.148V11.148ZM91.232 12.476V18.572H93.232V12.476H91.232ZM91.232 18.572C91.232 19.1434 91.0923 19.3873 90.989 19.4929C90.8898 19.5943 90.6641 19.732 90.12 19.732V21.732C90.9839 21.732 91.8142 21.5097 92.419 20.8911C93.0197 20.2767 93.232 19.4406 93.232 18.572H91.232ZM90.12 19.732H86.808V21.732H90.12V19.732ZM87.808 20.732V18.452H85.808V20.732H87.808ZM86.808 19.452H87.744V17.452H86.808V19.452ZM87.744 19.452C87.9319 19.452 88.1468 19.4376 88.3551 19.3808C88.5477 19.3282 88.8792 19.1999 89.104 18.8627L87.4399 17.7533C87.5217 17.6307 87.6181 17.5557 87.6885 17.5135C87.7566 17.4727 87.8097 17.4565 87.8289 17.4512C87.8612 17.4424 87.8441 17.452 87.744 17.452V19.452ZM89.0857 18.8892C89.3532 18.5147 89.392 18.066 89.392 17.756H87.392C87.392 17.7944 87.3905 17.8233 87.3886 17.844C87.3867 17.8648 87.3847 17.8739 87.3848 17.8736C87.3849 17.8734 87.3879 17.8591 87.3978 17.8348C87.4076 17.8104 87.4261 17.7718 87.4583 17.7268L89.0857 18.8892ZM89.392 17.756V10.148H87.392V17.756H89.392ZM85.848 19.732H85.176V21.732H85.848V19.732ZM85.176 19.732C84.9772 19.732 84.7516 19.7501 84.5308 19.8173C84.3101 19.8845 84.0206 20.0244 83.8103 20.3188L85.4377 21.4812C85.3074 21.6636 85.1499 21.7195 85.1132 21.7307C85.0764 21.7419 85.0867 21.732 85.176 21.732V19.732ZM83.7919 20.3453C83.6542 20.552 83.5965 20.769 83.5681 20.9251C83.5379 21.0913 83.528 21.2633 83.528 21.428H85.528C85.528 21.3844 85.5294 21.3504 85.5313 21.3249C85.5332 21.299 85.5353 21.2858 85.5359 21.2829C85.5365 21.2793 85.5343 21.2934 85.525 21.3198C85.5159 21.3455 85.4959 21.395 85.456 21.4547L83.7919 20.3453ZM83.528 21.428V27.5H85.528V21.428H83.528ZM84.528 26.5H82.488V28.5H84.528V26.5ZM82.488 26.5C82.1408 26.5 81.9133 26.4707 81.7779 26.4357C81.6298 26.3975 81.6892 26.3784 81.7761 26.4854L80.2239 27.7466C80.5188 28.1096 80.9302 28.2825 81.2781 28.3723C81.6387 28.4653 82.0512 28.5 82.488 28.5V26.5ZM81.7761 26.4854C81.8218 26.5416 81.824 26.5695 81.8079 26.5232C81.7935 26.4817 81.7729 26.4056 81.753 26.2836C81.7131 26.0379 81.688 25.6812 81.688 25.196H79.688C79.688 25.7348 79.7149 26.2101 79.7789 26.6044C79.8367 26.9599 79.9467 27.4054 80.2239 27.7466L81.7761 26.4854ZM81.688 25.196V20.132H79.688V25.196H81.688ZM81.688 20.132C81.688 19.8281 81.7148 19.6315 81.7451 19.5165C81.7773 19.3941 81.7923 19.4422 81.7029 19.5197L80.3931 18.0083C80.0637 18.2938 79.8987 18.6739 79.8109 19.0075C79.7212 19.3485 79.688 19.7319 79.688 20.132H81.688ZM81.7029 19.5197C81.637 19.5768 81.6306 19.546 81.8081 19.5094C81.9697 19.476 82.2142 19.452 82.56 19.452V17.452C82.1378 17.452 81.7462 17.48 81.4039 17.5506C81.0774 17.618 80.699 17.7432 80.3931 18.0083L81.7029 19.5197ZM82.56 19.452H85.848V17.452H82.56V19.452ZM84.848 18.452V20.732H86.848V18.452H84.848ZM91.632 25.74C91.6412 25.74 91.6056 25.7416 91.5447 25.7188C91.478 25.6939 91.4013 25.6471 91.3361 25.574C91.2081 25.4307 91.232 25.316 91.232 25.412H93.232C93.232 25.06 93.1559 24.6093 92.8279 24.242C92.4807 23.8531 92.0173 23.74 91.632 23.74V25.74ZM91.232 25.412V27.5H93.232V25.412H91.232ZM92.232 26.5H85.512V28.5H92.232V26.5ZM86.512 27.4913L86.488 24.7313L84.488 24.7487L84.512 27.5087L86.512 27.4913ZM85.488 25.74H91.632V23.74H85.488V25.74ZM87.432 11.428H85.152V13.428H87.432V11.428ZM85.152 11.428C84.9393 11.428 84.7062 11.4446 84.484 11.5044C84.2758 11.5604 83.9464 11.6898 83.7143 12.0148L85.3417 13.1772C85.2641 13.2859 85.1767 13.3508 85.1159 13.3863C85.057 13.4206 85.0139 13.4329 85.004 13.4356C84.9898 13.4394 85.0286 13.428 85.152 13.428V11.428ZM83.7598 11.9558C83.5776 12.1744 83.4991 12.4173 83.4608 12.5936C83.4206 12.7786 83.408 12.9692 83.408 13.148H85.408C85.408 13.1039 85.4096 13.071 85.4117 13.0479C85.4137 13.0243 85.4158 13.0155 85.4152 13.0184C85.4147 13.0207 85.4098 13.0431 85.3946 13.0784C85.3795 13.1137 85.35 13.1717 85.2962 13.2362L83.7598 11.9558ZM83.408 13.148V15.812H85.408V13.148H83.408ZM84.408 14.812H81.768V16.812H84.408V14.812ZM81.768 14.812C81.4917 14.812 81.3067 14.8004 81.1951 14.7852C81.1392 14.7775 81.1247 14.772 81.1374 14.7759C81.1449 14.7783 81.1693 14.7862 81.2041 14.8032C81.2376 14.8195 81.2965 14.852 81.3628 14.9087L80.0612 16.4273C80.2385 16.5793 80.43 16.6505 80.5446 16.6861C80.6733 16.726 80.8048 16.7505 80.9249 16.7668C81.1653 16.7996 81.4523 16.812 81.768 16.812V14.812ZM81.4191 14.9609C81.4821 15.0238 81.5217 15.0835 81.545 15.1239C81.5686 15.1649 81.5815 15.197 81.5877 15.2137C81.5989 15.2442 81.5969 15.2497 81.5911 15.2139C81.5858 15.1815 81.5797 15.1296 81.5752 15.054C81.5706 14.9794 81.568 14.8886 81.568 14.78H79.568C79.568 15.0518 79.5806 15.3102 79.6169 15.5341C79.6351 15.6463 79.6631 15.7748 79.7103 15.9033C79.7541 16.0224 79.8381 16.2083 80.0049 16.3751L81.4191 14.9609ZM81.568 14.78V12.716H79.568V14.78H81.568ZM81.568 12.716C81.568 11.8932 81.6949 11.4728 81.8037 11.2961L80.1003 10.2479C79.6971 10.9032 79.568 11.7788 79.568 12.716H81.568ZM81.789 11.3192C81.7785 11.3353 81.7915 11.2952 81.9295 11.246C82.0774 11.1934 82.3239 11.148 82.704 11.148V9.148C81.7356 9.148 80.6807 9.35966 80.115 10.2248L81.789 11.3192ZM82.704 11.148H87.432V9.148H82.704V11.148ZM86.432 10.148V12.428H88.432V10.148H86.432ZM102.421 27.5H101.421V28.5H102.421V27.5ZM102.421 25.22V24.22H101.421V25.22H102.421ZM105.037 25.148L104.067 24.9055L104.037 25.0249V25.148H105.037ZM105.109 22.316L105.557 23.2104L105.702 23.1379L105.817 23.0231L105.109 22.316ZM101.581 27.5V28.5H102.581V27.5H101.581ZM97.9815 27.236L97.2416 27.9087L97.2576 27.9263L97.2744 27.9431L97.9815 27.236ZM97.9815 10.412L97.2744 9.70489L97.2576 9.72172L97.2416 9.73933L97.9815 10.412ZM101.581 10.148H102.581V9.148H101.581V10.148ZM105.277 23.268H108.637V21.268H105.277V23.268ZM108.637 23.268C108.498 23.268 108.239 23.2116 108.049 22.9698C107.97 22.8691 107.934 22.7726 107.918 22.7104C107.902 22.6498 107.901 22.6102 107.901 22.604H109.901C109.901 22.3883 109.864 22.0421 109.622 21.7342C109.344 21.3804 108.953 21.268 108.637 21.268V23.268ZM107.901 22.604V26.828H109.901V22.604H107.901ZM107.901 26.828C107.901 26.8979 107.885 26.7666 108.026 26.6249C108.168 26.4832 108.299 26.5 108.229 26.5V28.5C108.608 28.5 109.075 28.4048 109.441 28.0391C109.806 27.6734 109.901 27.2061 109.901 26.828H107.901ZM108.229 26.5H102.421V28.5H108.229V26.5ZM103.421 27.5V25.22H101.421V27.5H103.421ZM102.421 26.22H104.653V24.22H102.421V26.22ZM104.653 26.22C104.796 26.22 104.968 26.2145 105.126 26.1849C105.196 26.1718 105.346 26.1399 105.504 26.0511C105.654 25.9666 106.037 25.6895 106.037 25.148H104.037C104.037 24.6305 104.405 24.3744 104.523 24.3079C104.649 24.2371 104.751 24.2202 104.757 24.2191C104.787 24.2135 104.767 24.22 104.653 24.22V26.22ZM106.008 25.3905C106.047 25.2325 106.061 25.0771 106.061 24.932H104.061C104.061 24.9389 104.061 24.9398 104.062 24.9356C104.062 24.9313 104.063 24.9209 104.067 24.9055L106.008 25.3905ZM106.061 24.932V22.532H104.061V24.932H106.061ZM106.061 22.532C106.061 22.4961 106.065 22.5303 106.05 22.5989C106.042 22.6336 106.021 22.7173 105.966 22.8174C105.913 22.9161 105.791 23.0932 105.557 23.2104L104.662 21.4216C104.412 21.5468 104.276 21.7389 104.211 21.8596C104.144 21.9817 104.113 22.0944 104.097 22.1651C104.066 22.3057 104.061 22.4399 104.061 22.532H106.061ZM105.817 23.0231C105.683 23.1569 105.54 23.2159 105.45 23.2415C105.363 23.2666 105.298 23.268 105.277 23.268V21.268C105.12 21.268 104.722 21.289 104.402 21.6089L105.817 23.0231ZM101.581 26.5H99.0615V28.5H101.581V26.5ZM99.0615 26.5C98.8359 26.5 98.6963 26.481 98.621 26.4626C98.5377 26.4422 98.5987 26.439 98.6886 26.5289L97.2744 27.9431C97.5403 28.209 97.8693 28.3378 98.146 28.4054C98.4307 28.475 98.7431 28.5 99.0615 28.5V26.5ZM98.7214 26.5633C98.7694 26.616 98.7883 26.6574 98.7914 26.6644C98.7946 26.6716 98.788 26.6584 98.7787 26.6156C98.7593 26.5262 98.7415 26.3715 98.7415 26.132H96.7415C96.7415 26.4525 96.7637 26.7618 96.8243 27.0404C96.8819 27.3053 96.9937 27.636 97.2416 27.9087L98.7214 26.5633ZM98.7415 26.132V11.516H96.7415V26.132H98.7415ZM98.7415 11.516C98.7415 11.2765 98.7593 11.1218 98.7787 11.0324C98.788 10.9896 98.7946 10.9764 98.7914 10.9836C98.7883 10.9906 98.7694 11.032 98.7214 11.0847L97.2416 9.73933C96.9937 10.012 96.8819 10.3427 96.8243 10.6076C96.7637 10.8862 96.7415 11.1955 96.7415 11.516H98.7415ZM98.6886 11.1191C98.5987 11.209 98.5377 11.2058 98.621 11.1854C98.6963 11.167 98.8359 11.148 99.0615 11.148V9.148C98.7431 9.148 98.4307 9.17301 98.146 9.2426C97.8693 9.31024 97.5403 9.43902 97.2744 9.70489L98.6886 11.1191ZM99.0615 11.148H101.581V9.148H99.0615V11.148ZM100.581 10.148V27.5H102.581V10.148H100.581Z" fill="#001021"/>
</svg>
