<svg width="35" height="35" viewBox="0 0 35 35" fill="none" xmlns="http://www.w3.org/2000/svg">
<path d="M32.1664 6.75804L21.4129 1.17513C19.0458 -0.365718 16.0996 -0.393057 13.7087 1.10361L2.83427 6.75804C2.79346 6.78031 2.75115 6.80415 2.71177 6.82956C0.131138 8.43759 -0.764757 12.021 0.710811 14.8333C1.21098 15.7867 1.94672 16.5678 2.83427 17.088L5.83401 18.6454V26.4326C5.83579 29.9146 7.91488 32.991 10.9658 34.0258C13.0889 34.6952 15.2903 35.0229 17.5004 34.9984C19.7101 35.0254 21.9116 34.7005 24.035 34.0338C27.0859 32.999 29.165 29.9226 29.1668 26.4405V18.6422L32.0834 17.1229V30.2307C32.0834 31.1084 32.7363 31.8199 33.5417 31.8199C34.3471 31.8199 35 31.1084 35 30.2307V11.1601C35.0097 9.29398 33.6575 7.57003 32.1664 6.75804ZM26.2501 26.4405C26.2509 28.5233 25.0109 30.3656 23.1877 30.9904C21.3389 31.5661 19.423 31.8455 17.5003 31.82C15.5776 31.8455 13.6618 31.5661 11.813 30.9904C9.98981 30.3656 8.7498 28.5233 8.75056 26.4405V20.16L13.5877 22.671C14.7813 23.4433 16.1444 23.8492 17.5325 23.8454C18.8537 23.8556 20.1527 23.4744 21.2905 22.7425L26.2501 20.1599V26.4405ZM30.9167 14.2194L19.9182 19.9406C18.3847 20.9137 16.4839 20.8861 14.9746 19.8691L4.2138 14.2909C3.01433 13.5861 2.56631 11.955 3.21311 10.6479C3.43185 10.2059 3.75983 9.83943 4.15986 9.59002L15.0898 3.90066C16.6238 2.92969 18.5236 2.95718 20.0334 3.97217L30.7869 9.55508C31.5777 10.0336 32.0725 10.9373 32.0833 11.923C32.0847 12.8568 31.6435 13.7251 30.9167 14.2194Z" fill="#495867"/>
</svg>
