<svg width="117" height="36" viewBox="0 0 117 36" fill="none" xmlns="http://www.w3.org/2000/svg">
<mask id="path-1-inside-1_1609_98" fill="white">
<path d="M9.8691 33.6274H0.627563L0.627563 24.3859L9.8691 33.6274Z"/>
<path d="M31.5717 20.4925L19.6817 32.3825L13.7773 32.439L1.91837 20.5807L1.89011 14.7064L13.7816 2.87102L19.6396 2.79397L31.5153 14.7011L31.5717 20.4925Z"/>
<path d="M32.6276 33.6274H23.2588L32.6276 24.2586V33.6274Z"/>
<path d="M32.6276 1.62745V11.1142L23.1408 1.62745H32.6276Z"/>
<path d="M0.627563 11.0141L0.627563 1.62745H10.0142L0.627563 11.0141Z"/>
</mask>
<path d="M9.8691 33.6274H0.627563L0.627563 24.3859L9.8691 33.6274Z" fill="#001021"/>
<path d="M31.5717 20.4925L19.6817 32.3825L13.7773 32.439L1.91837 20.5807L1.89011 14.7064L13.7816 2.87102L19.6396 2.79397L31.5153 14.7011L31.5717 20.4925Z" fill="#001021"/>
<path d="M32.6276 33.6274H23.2588L32.6276 24.2586V33.6274Z" fill="#001021"/>
<path d="M32.6276 1.62745V11.1142L23.1408 1.62745H32.6276Z" fill="#001021"/>
<path d="M0.627563 11.0141L0.627563 1.62745H10.0142L0.627563 11.0141Z" fill="#001021"/>
<path d="M9.8691 33.6274H0.627563L0.627563 24.3859L9.8691 33.6274Z" stroke="#001021" stroke-width="20" mask="url(#path-1-inside-1_1609_98)"/>
<path d="M31.5717 20.4925L19.6817 32.3825L13.7773 32.439L1.91837 20.5807L1.89011 14.7064L13.7816 2.87102L19.6396 2.79397L31.5153 14.7011L31.5717 20.4925Z" stroke="#001021" stroke-width="20" mask="url(#path-1-inside-1_1609_98)"/>
<path d="M32.6276 33.6274H23.2588L32.6276 24.2586V33.6274Z" stroke="#001021" stroke-width="20" mask="url(#path-1-inside-1_1609_98)"/>
<path d="M32.6276 1.62745V11.1142L23.1408 1.62745H32.6276Z" stroke="#001021" stroke-width="20" mask="url(#path-1-inside-1_1609_98)"/>
<path d="M0.627563 11.0141L0.627563 1.62745H10.0142L0.627563 11.0141Z" stroke="#001021" stroke-width="20" mask="url(#path-1-inside-1_1609_98)"/>
<path d="M62.69 21.7748H66.05C66.226 21.7748 66.314 21.8868 66.314 22.1108V26.3348C66.314 26.7828 66.09 27.0068 65.642 27.0068H59.834V24.7268H62.066C62.322 24.7268 62.45 24.7028 62.45 24.6548C62.466 24.5908 62.474 24.5188 62.474 24.4388V22.0388C62.474 21.9108 62.49 21.8388 62.522 21.8228C62.554 21.7908 62.61 21.7748 62.69 21.7748ZM58.994 27.0068H56.474C55.93 27.0068 55.57 26.9188 55.394 26.7428C55.234 26.5668 55.154 26.1988 55.154 25.6388V11.0228C55.154 10.4628 55.234 10.0948 55.394 9.91884C55.57 9.74284 55.93 9.65483 56.474 9.65483H58.994V27.0068ZM78.4483 9.65483H80.2483C81.6083 9.65483 82.2883 10.4308 82.2883 11.9828V18.0788C82.2883 19.5188 81.5843 20.2388 80.1763 20.2388H76.8643V17.9588H77.8003C78.0883 17.9588 78.2643 17.9108 78.3283 17.8148C78.4083 17.7028 78.4483 17.5188 78.4483 17.2628V9.65483ZM75.9043 20.2388H75.2323C74.9443 20.2388 74.7603 20.2948 74.6803 20.4068C74.6163 20.5028 74.5843 20.6788 74.5843 20.9348V27.0068H72.5443C71.7603 27.0068 71.2643 26.8788 71.0563 26.6228C70.8483 26.3668 70.7443 25.7268 70.7443 24.7028V19.6388C70.7443 18.9348 70.8643 18.4788 71.1043 18.2708C71.3443 18.0628 71.8483 17.9588 72.6163 17.9588H75.9043V20.2388ZM81.6883 24.2468C82.0883 24.2468 82.2883 24.4708 82.2883 24.9188V27.0068H75.5683L75.5443 24.2468H81.6883ZM77.4883 11.9348H75.2083C74.8723 11.9348 74.6643 11.9908 74.5843 12.1028C74.5043 12.1988 74.4643 12.3828 74.4643 12.6548V15.3188H71.8243C71.2323 15.3188 70.8803 15.2708 70.7683 15.1748C70.6723 15.0788 70.6243 14.7828 70.6243 14.2868V12.2228C70.6243 11.3428 70.7523 10.6948 71.0083 10.2788C71.2803 9.86283 71.8643 9.65483 72.7603 9.65483H77.4883V11.9348ZM95.2858 9.65483H97.0858C98.4458 9.65483 99.1258 10.4308 99.1258 11.9828V18.0788C99.1258 19.5188 98.4218 20.2388 97.0138 20.2388H93.7018V17.9588H94.6378C94.9258 17.9588 95.1018 17.9108 95.1658 17.8148C95.2458 17.7028 95.2858 17.5188 95.2858 17.2628V9.65483ZM92.7418 20.2388H92.0698C91.7818 20.2388 91.5978 20.2948 91.5178 20.4068C91.4538 20.5028 91.4218 20.6788 91.4218 20.9348V27.0068H89.3818C88.5978 27.0068 88.1018 26.8788 87.8938 26.6228C87.6858 26.3668 87.5818 25.7268 87.5818 24.7028V19.6388C87.5818 18.9348 87.7018 18.4788 87.9418 18.2708C88.1818 18.0628 88.6858 17.9588 89.4538 17.9588H92.7418V20.2388ZM98.5258 24.2468C98.9258 24.2468 99.1258 24.4708 99.1258 24.9188V27.0068H92.4058L92.3818 24.2468H98.5258ZM94.3258 11.9348H92.0458C91.7098 11.9348 91.5018 11.9908 91.4218 12.1028C91.3418 12.1988 91.3018 12.3828 91.3018 12.6548V15.3188H88.6618C88.0698 15.3188 87.7178 15.2708 87.6058 15.1748C87.5098 15.0788 87.4618 14.7828 87.4618 14.2868V12.2228C87.4618 11.3428 87.5898 10.6948 87.8458 10.2788C88.1178 9.86283 88.7018 9.65483 89.5978 9.65483H94.3258V11.9348ZM112.171 21.7748H115.531C115.707 21.7748 115.795 21.8868 115.795 22.1108V26.3348C115.795 26.7828 115.571 27.0068 115.123 27.0068H109.315V24.7268H111.547C111.803 24.7268 111.931 24.7028 111.931 24.6548C111.947 24.5908 111.955 24.5188 111.955 24.4388V22.0388C111.955 21.9108 111.971 21.8388 112.003 21.8228C112.035 21.7908 112.091 21.7748 112.171 21.7748ZM108.475 27.0068H105.955C105.411 27.0068 105.051 26.9188 104.875 26.7428C104.715 26.5668 104.635 26.1988 104.635 25.6388V11.0228C104.635 10.4628 104.715 10.0948 104.875 9.91884C105.051 9.74284 105.411 9.65483 105.955 9.65483H108.475V27.0068Z" fill="#001021"/>
<path d="M59.834 27.0068H58.834V28.0068H59.834V27.0068ZM59.834 24.7268V23.7268H58.834V24.7268H59.834ZM62.45 24.6548L61.4799 24.4123L61.45 24.5317V24.6548H62.45ZM62.522 21.8228L62.9693 22.7173L63.1144 22.6447L63.2292 22.5299L62.522 21.8228ZM58.994 27.0068V28.0068H59.994V27.0068H58.994ZM55.394 26.7428L54.6541 27.4155L54.6701 27.4331L54.6869 27.4499L55.394 26.7428ZM55.394 9.91884L54.6869 9.21173L54.6701 9.22856L54.6541 9.24616L55.394 9.91884ZM58.994 9.65483H59.994V8.65483H58.994V9.65483ZM62.69 22.7748H66.05V20.7748H62.69V22.7748ZM66.05 22.7748C65.911 22.7748 65.6517 22.7184 65.4617 22.4767C65.3826 22.376 65.3465 22.2794 65.3302 22.2172C65.3143 22.1566 65.314 22.117 65.314 22.1108H67.314C67.314 21.8951 67.2763 21.5489 67.0344 21.241C66.7564 20.8872 66.3651 20.7748 66.05 20.7748V22.7748ZM65.314 22.1108V26.3348H67.314V22.1108H65.314ZM65.314 26.3348C65.314 26.4047 65.2973 26.2734 65.4389 26.1317C65.5806 25.99 65.7119 26.0068 65.642 26.0068V28.0068C66.0202 28.0068 66.4875 27.9116 66.8532 27.5459C67.2188 27.1803 67.314 26.713 67.314 26.3348H65.314ZM65.642 26.0068H59.834V28.0068H65.642V26.0068ZM60.834 27.0068V24.7268H58.834V27.0068H60.834ZM59.834 25.7268H62.066V23.7268H59.834V25.7268ZM62.066 25.7268C62.2088 25.7268 62.3802 25.7214 62.5383 25.6917C62.6082 25.6786 62.7585 25.6467 62.9163 25.5579C63.0664 25.4735 63.45 25.1963 63.45 24.6548H61.45C61.45 24.1374 61.8177 23.8812 61.9358 23.8148C62.0616 23.744 62.1639 23.7271 62.1698 23.726C62.1999 23.7203 62.1793 23.7268 62.066 23.7268V25.7268ZM63.4202 24.8974C63.4597 24.7394 63.474 24.5839 63.474 24.4388H61.474C61.474 24.4457 61.4737 24.4466 61.4742 24.4424C61.4746 24.4382 61.476 24.4277 61.4799 24.4123L63.4202 24.8974ZM63.474 24.4388V22.0388H61.474V24.4388H63.474ZM63.474 22.0388C63.474 22.0029 63.4775 22.0371 63.4622 22.1058C63.4545 22.1405 63.4335 22.2241 63.3789 22.3242C63.3251 22.4229 63.2038 22.6 62.9693 22.7173L62.0748 20.9284C61.8243 21.0537 61.689 21.2457 61.6232 21.3665C61.5566 21.4886 61.5256 21.6012 61.5099 21.6719C61.4786 21.8126 61.474 21.9468 61.474 22.0388H63.474ZM63.2292 22.5299C63.0953 22.6638 62.9524 22.7227 62.8628 22.7484C62.7751 22.7734 62.711 22.7748 62.69 22.7748V20.7748C62.5323 20.7748 62.1349 20.7958 61.8149 21.1157L63.2292 22.5299ZM58.994 26.0068H56.474V28.0068H58.994V26.0068ZM56.474 26.0068C56.2485 26.0068 56.1088 25.9878 56.0335 25.9694C55.9502 25.9491 56.0113 25.9459 56.1012 26.0357L54.6869 27.4499C54.9528 27.7158 55.2819 27.8446 55.5586 27.9122C55.8433 27.9818 56.1556 28.0068 56.474 28.0068V26.0068ZM56.134 26.0702C56.1819 26.1229 56.2009 26.1642 56.204 26.1712C56.2071 26.1784 56.2005 26.1652 56.1912 26.1224C56.1718 26.0331 56.154 25.8784 56.154 25.6388H54.154C54.154 25.9593 54.1763 26.2686 54.2369 26.5473C54.2945 26.8122 54.4062 27.1428 54.6541 27.4155L56.134 26.0702ZM56.154 25.6388V11.0228H54.154V25.6388H56.154ZM56.154 11.0228C56.154 10.7833 56.1718 10.6286 56.1912 10.5393C56.2005 10.4964 56.2071 10.4833 56.204 10.4905C56.2009 10.4974 56.1819 10.5388 56.134 10.5915L54.6541 9.24616C54.4062 9.51883 54.2945 9.8495 54.2369 10.1144C54.1763 10.3931 54.154 10.7024 54.154 11.0228H56.154ZM56.1012 10.6259C56.0113 10.7158 55.9502 10.7126 56.0335 10.6922C56.1088 10.6738 56.2485 10.6548 56.474 10.6548V8.65483C56.1556 8.65483 55.8433 8.67985 55.5586 8.74944C55.2819 8.81708 54.9528 8.94586 54.6869 9.21173L56.1012 10.6259ZM56.474 10.6548H58.994V8.65483H56.474V10.6548ZM57.994 9.65483V27.0068H59.994V9.65483H57.994ZM78.4483 9.65483V8.65483H77.4483V9.65483H78.4483ZM76.8643 20.2388H75.8643V21.2388H76.8643V20.2388ZM76.8643 17.9588V16.9588H75.8643V17.9588H76.8643ZM78.3283 17.8148L77.5146 17.2336L77.5052 17.2467L77.4962 17.2601L78.3283 17.8148ZM75.9043 20.2388V21.2388H76.9043V20.2388H75.9043ZM74.6803 20.4068L73.8666 19.8256L73.8572 19.8387L73.8482 19.8521L74.6803 20.4068ZM74.5843 27.0068V28.0068H75.5843V27.0068H74.5843ZM71.0563 26.6228L70.2802 27.2534L71.0563 26.6228ZM71.1043 18.2708L70.4494 17.5151L71.1043 18.2708ZM75.9043 17.9588H76.9043V16.9588H75.9043V17.9588ZM82.2883 27.0068V28.0068H83.2883V27.0068H82.2883ZM75.5683 27.0068L74.5683 27.0155L74.577 28.0068H75.5683V27.0068ZM75.5443 24.2468V23.2468H74.5356L74.5443 24.2555L75.5443 24.2468ZM77.4883 11.9348V12.9348H78.4883V11.9348H77.4883ZM74.5843 12.1028L75.3525 12.743L75.3764 12.7144L75.398 12.6841L74.5843 12.1028ZM74.4643 15.3188V16.3188H75.4643V15.3188H74.4643ZM70.7683 15.1748L70.0612 15.8819L70.0883 15.9091L70.1175 15.9341L70.7683 15.1748ZM71.0083 10.2788L70.1713 9.73159L70.1638 9.74306L70.1566 9.75474L71.0083 10.2788ZM77.4883 9.65483H78.4883V8.65483H77.4883V9.65483ZM78.4483 10.6548H80.2483V8.65483H78.4483V10.6548ZM80.2483 10.6548C80.7373 10.6548 80.9319 10.7882 81.0262 10.8959C81.1426 11.0287 81.2883 11.3309 81.2883 11.9828H83.2883C83.2883 11.0828 83.094 10.2209 82.5304 9.57778C81.9447 8.90942 81.1193 8.65483 80.2483 8.65483V10.6548ZM81.2883 11.9828V18.0788H83.2883V11.9828H81.2883ZM81.2883 18.0788C81.2883 18.6503 81.1486 18.8941 81.0453 18.9997C80.9461 19.1012 80.7204 19.2388 80.1763 19.2388V21.2388C81.0402 21.2388 81.8705 21.0165 82.4753 20.398C83.076 19.7836 83.2883 18.9474 83.2883 18.0788H81.2883ZM80.1763 19.2388H76.8643V21.2388H80.1763V19.2388ZM77.8643 20.2388V17.9588H75.8643V20.2388H77.8643ZM76.8643 18.9588H77.8003V16.9588H76.8643V18.9588ZM77.8003 18.9588C77.9882 18.9588 78.2031 18.9444 78.4114 18.8876C78.604 18.8351 78.9355 18.7068 79.1603 18.3695L77.4962 17.2601C77.578 17.1375 77.6744 17.0626 77.7448 17.0203C77.8129 16.9795 77.866 16.9633 77.8852 16.9581C77.9175 16.9492 77.9004 16.9588 77.8003 16.9588V18.9588ZM79.142 18.3961C79.4095 18.0216 79.4483 17.5728 79.4483 17.2628H77.4483C77.4483 17.3012 77.4468 17.3302 77.4449 17.3508C77.443 17.3716 77.441 17.3808 77.4411 17.3804C77.4412 17.3802 77.4442 17.3659 77.4541 17.3416C77.464 17.3172 77.4824 17.2787 77.5146 17.2336L79.142 18.3961ZM79.4483 17.2628V9.65483H77.4483V17.2628H79.4483ZM75.9043 19.2388H75.2323V21.2388H75.9043V19.2388ZM75.2323 19.2388C75.0335 19.2388 74.8079 19.257 74.5871 19.3242C74.3664 19.3913 74.0769 19.5312 73.8666 19.8256L75.494 20.9881C75.3637 21.1705 75.2062 21.2263 75.1695 21.2375C75.1327 21.2487 75.143 21.2388 75.2323 21.2388V19.2388ZM73.8482 19.8521C73.7105 20.0588 73.6528 20.2759 73.6244 20.4319C73.5942 20.5982 73.5843 20.7701 73.5843 20.9348H75.5843C75.5843 20.8912 75.5857 20.8572 75.5876 20.8317C75.5895 20.8059 75.5916 20.7927 75.5922 20.7897C75.5928 20.7862 75.5906 20.8003 75.5813 20.8267C75.5722 20.8524 75.5522 20.9018 75.5123 20.9615L73.8482 19.8521ZM73.5843 20.9348V27.0068H75.5843V20.9348H73.5843ZM74.5843 26.0068H72.5443V28.0068H74.5843V26.0068ZM72.5443 26.0068C72.1971 26.0068 71.9696 25.9775 71.8342 25.9426C71.6861 25.9043 71.7455 25.8852 71.8324 25.9922L70.2802 27.2534C70.5751 27.6164 70.9865 27.7893 71.3344 27.8791C71.695 27.9722 72.1075 28.0068 72.5443 28.0068V26.0068ZM71.8324 25.9922C71.8781 26.0484 71.8803 26.0763 71.8642 26.03C71.8498 25.9886 71.8292 25.9124 71.8094 25.7904C71.7694 25.5447 71.7443 25.1881 71.7443 24.7028H69.7443C69.7443 25.2416 69.7712 25.717 69.8352 26.1112C69.893 26.4667 70.003 26.9122 70.2802 27.2534L71.8324 25.9922ZM71.7443 24.7028V19.6388H69.7443V24.7028H71.7443ZM71.7443 19.6388C71.7443 19.3349 71.7711 19.1383 71.8014 19.0233C71.8336 18.9009 71.8486 18.9491 71.7592 19.0265L70.4494 17.5151C70.12 17.8006 69.955 18.1808 69.8672 18.5143C69.7775 18.8554 69.7443 19.2387 69.7443 19.6388H71.7443ZM71.7592 19.0265C71.6933 19.0837 71.6869 19.0528 71.8644 19.0162C72.026 18.9828 72.2705 18.9588 72.6163 18.9588V16.9588C72.1941 16.9588 71.8026 16.9868 71.4602 17.0575C71.1337 17.1248 70.7553 17.25 70.4494 17.5151L71.7592 19.0265ZM72.6163 18.9588H75.9043V16.9588H72.6163V18.9588ZM74.9043 17.9588V20.2388H76.9043V17.9588H74.9043ZM81.6883 25.2468C81.6975 25.2468 81.6619 25.2484 81.601 25.2257C81.5343 25.2008 81.4576 25.1539 81.3924 25.0809C81.2644 24.9375 81.2883 24.8228 81.2883 24.9188H83.2883C83.2883 24.5669 83.2122 24.1161 82.8842 23.7488C82.537 23.3599 82.0736 23.2468 81.6883 23.2468V25.2468ZM81.2883 24.9188V27.0068H83.2883V24.9188H81.2883ZM82.2883 26.0068H75.5683V28.0068H82.2883V26.0068ZM76.5683 26.9981L76.5443 24.2381L74.5443 24.2555L74.5683 27.0155L76.5683 26.9981ZM75.5443 25.2468H81.6883V23.2468H75.5443V25.2468ZM77.4883 10.9348H75.2083V12.9348H77.4883V10.9348ZM75.2083 10.9348C74.9956 10.9348 74.7625 10.9514 74.5403 11.0112C74.3321 11.0673 74.0027 11.1966 73.7706 11.5216L75.398 12.6841C75.3204 12.7927 75.233 12.8576 75.1722 12.8931C75.1133 12.9275 75.0702 12.9398 75.0603 12.9425C75.0461 12.9463 75.085 12.9348 75.2083 12.9348V10.9348ZM73.8161 11.4627C73.6339 11.6813 73.5554 11.9242 73.5171 12.1004C73.4769 12.2855 73.4643 12.476 73.4643 12.6548H75.4643C75.4643 12.6108 75.4659 12.5779 75.468 12.5547C75.47 12.5312 75.4721 12.5224 75.4715 12.5253C75.471 12.5275 75.4661 12.55 75.4509 12.5853C75.4358 12.6205 75.4063 12.6785 75.3525 12.743L73.8161 11.4627ZM73.4643 12.6548V15.3188H75.4643V12.6548H73.4643ZM74.4643 14.3188H71.8243V16.3188H74.4643V14.3188ZM71.8243 14.3188C71.548 14.3188 71.363 14.3072 71.2514 14.292C71.1955 14.2844 71.181 14.2788 71.1937 14.2828C71.2012 14.2851 71.2256 14.293 71.2604 14.31C71.2939 14.3264 71.3528 14.3588 71.4191 14.4156L70.1175 15.9341C70.2948 16.0861 70.4863 16.1573 70.6009 16.1929C70.7296 16.2328 70.8611 16.2573 70.9812 16.2737C71.2216 16.3065 71.5086 16.3188 71.8243 16.3188V14.3188ZM71.4754 14.4677C71.5384 14.5307 71.578 14.5903 71.6013 14.6308C71.6249 14.6717 71.6378 14.7038 71.644 14.7205C71.6552 14.7511 71.6532 14.7565 71.6474 14.7208C71.6421 14.6883 71.636 14.6364 71.6315 14.5608C71.6269 14.4862 71.6243 14.3954 71.6243 14.2868H69.6243C69.6243 14.5586 69.6369 14.817 69.6732 15.0409C69.6914 15.1532 69.7194 15.2816 69.7666 15.4102C69.8104 15.5292 69.8944 15.7152 70.0612 15.8819L71.4754 14.4677ZM71.6243 14.2868V12.2228H69.6243V14.2868H71.6243ZM71.6243 12.2228C71.6243 11.4001 71.7512 10.9797 71.86 10.8029L70.1566 9.75474C69.7534 10.41 69.6243 11.2856 69.6243 12.2228H71.6243ZM71.8453 10.8261C71.8348 10.8421 71.8478 10.802 71.9858 10.7529C72.1337 10.7002 72.3802 10.6548 72.7603 10.6548V8.65483C71.7919 8.65483 70.737 8.8665 70.1713 9.73159L71.8453 10.8261ZM72.7603 10.6548H77.4883V8.65483H72.7603V10.6548ZM76.4883 9.65483V11.9348H78.4883V9.65483H76.4883ZM95.2858 9.65483V8.65483H94.2858V9.65483H95.2858ZM93.7018 20.2388H92.7018V21.2388H93.7018V20.2388ZM93.7018 17.9588V16.9588H92.7018V17.9588H93.7018ZM95.1658 17.8148L94.3521 17.2336L94.3427 17.2467L94.3337 17.2601L95.1658 17.8148ZM92.7418 20.2388V21.2388H93.7418V20.2388H92.7418ZM91.5178 20.4068L90.7041 19.8256L90.6947 19.8387L90.6857 19.8521L91.5178 20.4068ZM91.4218 27.0068V28.0068H92.4218V27.0068H91.4218ZM87.8938 26.6228L87.1177 27.2534L87.8938 26.6228ZM87.9418 18.2708L87.2869 17.5151L87.9418 18.2708ZM92.7418 17.9588H93.7418V16.9588H92.7418V17.9588ZM99.1258 27.0068V28.0068H100.126V27.0068H99.1258ZM92.4058 27.0068L91.4058 27.0155L91.4145 28.0068H92.4058V27.0068ZM92.3818 24.2468V23.2468H91.3731L91.3818 24.2555L92.3818 24.2468ZM94.3258 11.9348V12.9348H95.3258V11.9348H94.3258ZM91.4218 12.1028L92.19 12.743L92.2139 12.7144L92.2355 12.6841L91.4218 12.1028ZM91.3018 15.3188V16.3188H92.3018V15.3188H91.3018ZM87.6058 15.1748L86.8987 15.8819L86.9258 15.9091L86.955 15.9341L87.6058 15.1748ZM87.8458 10.2788L87.0088 9.73159L87.0013 9.74306L86.9941 9.75474L87.8458 10.2788ZM94.3258 9.65483H95.3258V8.65483H94.3258V9.65483ZM95.2858 10.6548H97.0858V8.65483H95.2858V10.6548ZM97.0858 10.6548C97.5748 10.6548 97.7694 10.7882 97.8637 10.8959C97.9801 11.0287 98.1258 11.3309 98.1258 11.9828H100.126C100.126 11.0828 99.9315 10.2209 99.3679 9.57778C98.7822 8.90942 97.9568 8.65483 97.0858 8.65483V10.6548ZM98.1258 11.9828V18.0788H100.126V11.9828H98.1258ZM98.1258 18.0788C98.1258 18.6503 97.9861 18.8941 97.8828 18.9997C97.7836 19.1012 97.5579 19.2388 97.0138 19.2388V21.2388C97.8777 21.2388 98.708 21.0165 99.3128 20.398C99.9135 19.7836 100.126 18.9474 100.126 18.0788H98.1258ZM97.0138 19.2388H93.7018V21.2388H97.0138V19.2388ZM94.7018 20.2388V17.9588H92.7018V20.2388H94.7018ZM93.7018 18.9588H94.6378V16.9588H93.7018V18.9588ZM94.6378 18.9588C94.8257 18.9588 95.0406 18.9444 95.2489 18.8876C95.4415 18.8351 95.773 18.7068 95.9978 18.3695L94.3337 17.2601C94.4155 17.1375 94.5119 17.0626 94.5823 17.0203C94.6504 16.9795 94.7035 16.9633 94.7227 16.9581C94.755 16.9492 94.7379 16.9588 94.6378 16.9588V18.9588ZM95.9795 18.3961C96.247 18.0216 96.2858 17.5728 96.2858 17.2628H94.2858C94.2858 17.3012 94.2843 17.3302 94.2824 17.3508C94.2805 17.3716 94.2785 17.3808 94.2786 17.3804C94.2787 17.3802 94.2817 17.3659 94.2916 17.3416C94.3014 17.3172 94.3199 17.2787 94.3521 17.2336L95.9795 18.3961ZM96.2858 17.2628V9.65483H94.2858V17.2628H96.2858ZM92.7418 19.2388H92.0698V21.2388H92.7418V19.2388ZM92.0698 19.2388C91.871 19.2388 91.6454 19.257 91.4246 19.3242C91.2039 19.3913 90.9143 19.5312 90.7041 19.8256L92.3315 20.9881C92.2012 21.1705 92.0437 21.2263 92.007 21.2375C91.9702 21.2487 91.9805 21.2388 92.0698 21.2388V19.2388ZM90.6857 19.8521C90.548 20.0588 90.4903 20.2759 90.4619 20.4319C90.4317 20.5982 90.4218 20.7701 90.4218 20.9348H92.4218C92.4218 20.8912 92.4232 20.8572 92.4251 20.8317C92.427 20.8059 92.4291 20.7927 92.4297 20.7897C92.4303 20.7862 92.4281 20.8003 92.4188 20.8267C92.4097 20.8524 92.3897 20.9018 92.3498 20.9615L90.6857 19.8521ZM90.4218 20.9348V27.0068H92.4218V20.9348H90.4218ZM91.4218 26.0068H89.3818V28.0068H91.4218V26.0068ZM89.3818 26.0068C89.0346 26.0068 88.8071 25.9775 88.6717 25.9426C88.5236 25.9043 88.583 25.8852 88.6699 25.9922L87.1177 27.2534C87.4126 27.6164 87.824 27.7893 88.1719 27.8791C88.5325 27.9722 88.945 28.0068 89.3818 28.0068V26.0068ZM88.6699 25.9922C88.7156 26.0484 88.7178 26.0763 88.7017 26.03C88.6873 25.9886 88.6667 25.9124 88.6468 25.7904C88.6069 25.5447 88.5818 25.1881 88.5818 24.7028H86.5818C86.5818 25.2416 86.6087 25.717 86.6727 26.1112C86.7305 26.4667 86.8405 26.9122 87.1177 27.2534L88.6699 25.9922ZM88.5818 24.7028V19.6388H86.5818V24.7028H88.5818ZM88.5818 19.6388C88.5818 19.3349 88.6086 19.1383 88.6389 19.0233C88.6711 18.9009 88.6861 18.9491 88.5967 19.0265L87.2869 17.5151C86.9575 17.8006 86.7925 18.1808 86.7047 18.5143C86.615 18.8554 86.5818 19.2387 86.5818 19.6388H88.5818ZM88.5967 19.0265C88.5308 19.0837 88.5244 19.0528 88.7019 19.0162C88.8635 18.9828 89.108 18.9588 89.4538 18.9588V16.9588C89.0316 16.9588 88.64 16.9868 88.2977 17.0575C87.9712 17.1248 87.5928 17.25 87.2869 17.5151L88.5967 19.0265ZM89.4538 18.9588H92.7418V16.9588H89.4538V18.9588ZM91.7418 17.9588V20.2388H93.7418V17.9588H91.7418ZM98.5258 25.2468C98.535 25.2468 98.4994 25.2484 98.4385 25.2257C98.3718 25.2008 98.2951 25.1539 98.2299 25.0809C98.1019 24.9375 98.1258 24.8228 98.1258 24.9188H100.126C100.126 24.5669 100.05 24.1161 99.7217 23.7488C99.3745 23.3599 98.9111 23.2468 98.5258 23.2468V25.2468ZM98.1258 24.9188V27.0068H100.126V24.9188H98.1258ZM99.1258 26.0068H92.4058V28.0068H99.1258V26.0068ZM93.4058 26.9981L93.3818 24.2381L91.3818 24.2555L91.4058 27.0155L93.4058 26.9981ZM92.3818 25.2468H98.5258V23.2468H92.3818V25.2468ZM94.3258 10.9348H92.0458V12.9348H94.3258V10.9348ZM92.0458 10.9348C91.8331 10.9348 91.6 10.9514 91.3778 11.0112C91.1696 11.0673 90.8402 11.1966 90.6081 11.5216L92.2355 12.6841C92.1579 12.7927 92.0705 12.8576 92.0097 12.8931C91.9507 12.9275 91.9077 12.9398 91.8978 12.9425C91.8836 12.9463 91.9224 12.9348 92.0458 12.9348V10.9348ZM90.6536 11.4627C90.4714 11.6813 90.3929 11.9242 90.3546 12.1004C90.3144 12.2855 90.3018 12.476 90.3018 12.6548H92.3018C92.3018 12.6108 92.3034 12.5779 92.3055 12.5547C92.3075 12.5312 92.3096 12.5224 92.309 12.5253C92.3085 12.5275 92.3036 12.55 92.2884 12.5853C92.2733 12.6205 92.2438 12.6785 92.19 12.743L90.6536 11.4627ZM90.3018 12.6548V15.3188H92.3018V12.6548H90.3018ZM91.3018 14.3188H88.6618V16.3188H91.3018V14.3188ZM88.6618 14.3188C88.3855 14.3188 88.2005 14.3072 88.0889 14.292C88.033 14.2844 88.0185 14.2788 88.0312 14.2828C88.0387 14.2851 88.0631 14.293 88.0979 14.31C88.1314 14.3264 88.1903 14.3588 88.2566 14.4156L86.955 15.9341C87.1323 16.0861 87.3238 16.1573 87.4384 16.1929C87.5671 16.2328 87.6986 16.2573 87.8187 16.2737C88.0591 16.3065 88.3461 16.3188 88.6618 16.3188V14.3188ZM88.3129 14.4677C88.3759 14.5307 88.4155 14.5903 88.4388 14.6308C88.4624 14.6717 88.4753 14.7038 88.4815 14.7205C88.4927 14.7511 88.4907 14.7565 88.4849 14.7208C88.4796 14.6883 88.4735 14.6364 88.469 14.5608C88.4644 14.4862 88.4618 14.3954 88.4618 14.2868H86.4618C86.4618 14.5586 86.4744 14.817 86.5107 15.0409C86.5289 15.1532 86.5569 15.2816 86.6041 15.4102C86.6479 15.5292 86.7319 15.7152 86.8987 15.8819L88.3129 14.4677ZM88.4618 14.2868V12.2228H86.4618V14.2868H88.4618ZM88.4618 12.2228C88.4618 11.4001 88.5887 10.9797 88.6975 10.8029L86.9941 9.75474C86.5909 10.41 86.4618 11.2856 86.4618 12.2228H88.4618ZM88.6828 10.8261C88.6723 10.8421 88.6853 10.802 88.8233 10.7529C88.9712 10.7002 89.2177 10.6548 89.5978 10.6548V8.65483C88.6294 8.65483 87.5745 8.8665 87.0088 9.73159L88.6828 10.8261ZM89.5978 10.6548H94.3258V8.65483H89.5978V10.6548ZM93.3258 9.65483V11.9348H95.3258V9.65483H93.3258ZM109.315 27.0068H108.315V28.0068H109.315V27.0068ZM109.315 24.7268V23.7268H108.315V24.7268H109.315ZM111.931 24.6548L110.961 24.4123L110.931 24.5317V24.6548H111.931ZM112.003 21.8228L112.451 22.7173L112.596 22.6447L112.71 22.5299L112.003 21.8228ZM108.475 27.0068V28.0068H109.475V27.0068H108.475ZM104.875 26.7428L104.135 27.4155L104.151 27.4331L104.168 27.4499L104.875 26.7428ZM104.875 9.91884L104.168 9.21173L104.151 9.22856L104.135 9.24616L104.875 9.91884ZM108.475 9.65483H109.475V8.65483H108.475V9.65483ZM112.171 22.7748H115.531V20.7748H112.171V22.7748ZM115.531 22.7748C115.392 22.7748 115.133 22.7184 114.943 22.4767C114.864 22.376 114.828 22.2794 114.811 22.2172C114.796 22.1566 114.795 22.117 114.795 22.1108H116.795C116.795 21.8951 116.758 21.5489 116.516 21.241C116.238 20.8872 115.846 20.7748 115.531 20.7748V22.7748ZM114.795 22.1108V26.3348H116.795V22.1108H114.795ZM114.795 26.3348C114.795 26.4047 114.779 26.2734 114.92 26.1317C115.062 25.99 115.193 26.0068 115.123 26.0068V28.0068C115.501 28.0068 115.969 27.9116 116.334 27.5459C116.7 27.1803 116.795 26.713 116.795 26.3348H114.795ZM115.123 26.0068H109.315V28.0068H115.123V26.0068ZM110.315 27.0068V24.7268H108.315V27.0068H110.315ZM109.315 25.7268H111.547V23.7268H109.315V25.7268ZM111.547 25.7268C111.69 25.7268 111.861 25.7214 112.02 25.6917C112.089 25.6786 112.24 25.6467 112.398 25.5579C112.548 25.4735 112.931 25.1963 112.931 24.6548H110.931C110.931 24.1374 111.299 23.8812 111.417 23.8148C111.543 23.744 111.645 23.7271 111.651 23.726C111.681 23.7203 111.661 23.7268 111.547 23.7268V25.7268ZM112.901 24.8974C112.941 24.7394 112.955 24.5839 112.955 24.4388H110.955C110.955 24.4457 110.955 24.4466 110.955 24.4424C110.956 24.4382 110.957 24.4277 110.961 24.4123L112.901 24.8974ZM112.955 24.4388V22.0388H110.955V24.4388H112.955ZM112.955 22.0388C112.955 22.0029 112.959 22.0371 112.943 22.1058C112.936 22.1405 112.915 22.2241 112.86 22.3242C112.806 22.4229 112.685 22.6 112.451 22.7173L111.556 20.9284C111.306 21.0537 111.17 21.2457 111.104 21.3665C111.038 21.4886 111.007 21.6012 110.991 21.6719C110.96 21.8126 110.955 21.9468 110.955 22.0388H112.955ZM112.71 22.5299C112.577 22.6638 112.434 22.7227 112.344 22.7484C112.256 22.7734 112.192 22.7748 112.171 22.7748V20.7748C112.014 20.7748 111.616 20.7958 111.296 21.1157L112.71 22.5299ZM108.475 26.0068H105.955V28.0068H108.475V26.0068ZM105.955 26.0068C105.73 26.0068 105.59 25.9878 105.515 25.9694C105.431 25.9491 105.493 25.9459 105.582 26.0357L104.168 27.4499C104.434 27.7158 104.763 27.8446 105.04 27.9122C105.325 27.9818 105.637 28.0068 105.955 28.0068V26.0068ZM105.615 26.0702C105.663 26.1229 105.682 26.1642 105.685 26.1712C105.688 26.1784 105.682 26.1652 105.672 26.1224C105.653 26.0331 105.635 25.8784 105.635 25.6388H103.635C103.635 25.9593 103.658 26.2686 103.718 26.5473C103.776 26.8122 103.887 27.1428 104.135 27.4155L105.615 26.0702ZM105.635 25.6388V11.0228H103.635V25.6388H105.635ZM105.635 11.0228C105.635 10.7833 105.653 10.6286 105.672 10.5393C105.682 10.4964 105.688 10.4833 105.685 10.4905C105.682 10.4974 105.663 10.5388 105.615 10.5915L104.135 9.24616C103.887 9.51883 103.776 9.8495 103.718 10.1144C103.658 10.3931 103.635 10.7024 103.635 11.0228H105.635ZM105.582 10.6259C105.493 10.7158 105.431 10.7126 105.515 10.6922C105.59 10.6738 105.73 10.6548 105.955 10.6548V8.65483C105.637 8.65483 105.325 8.67985 105.04 8.74944C104.763 8.81708 104.434 8.94586 104.168 9.21173L105.582 10.6259ZM105.955 10.6548H108.475V8.65483H105.955V10.6548ZM107.475 9.65483V27.0068H109.475V9.65483H107.475Z" fill="#001021"/>
</svg>
