<svg id="e1Ba0QXJMGH1" xmlns="http://www.w3.org/2000/svg" xmlns:xlink="http://www.w3.org/1999/xlink" viewBox="0 0 75 75" shape-rendering="geometricPrecision" text-rendering="geometricPrecision"><rect id="e1Ba0QXJMGH2" width="53.033" height="53.033" rx="0" ry="0" transform="matrix(0.707107 0.707107 -0.707107 0.707107 37.5 0)" fill="rgb(0,16,33)" stroke="none" stroke-width="1"/><rect id="e1Ba0QXJMGH3" width="49.033" height="49.033" rx="0" ry="0" transform="matrix(1 0 0 1 12.8479 12.9835)" fill="none" stroke="rgb(247,247,255)" stroke-width="4"/><path id="e1Ba0QXJMGH4" d="M32.2181,31.7679L35.5781,31.7679C35.7541,31.7679,35.8421,31.8799,35.8421,32.1039L35.8421,36.3279C35.8421,36.7759,35.6181,36.9999,35.1701,36.9999L29.3621,36.9999L29.3621,34.7199L31.5941,34.7199C31.8501,34.7199,31.9781,34.6959,31.9781,34.6479C31.9941,34.5839,32.0021,34.5119,32.0021,34.4319L32.0021,32.0319C32.0021,31.9039,32.0181,31.8319,32.0501,31.8159C32.0821,31.7839,32.1381,31.7679,32.2181,31.7679ZM28.5221,36.9999L26.0021,36.9999C25.4581,36.9999,25.0981,36.9119,24.9221,36.7359C24.7621,36.5599,24.6821,36.1919,24.6821,35.6319L24.6821,21.0159C24.6821,20.4559,24.7621,20.0879,24.9221,19.9119C25.0981,19.7359,25.4581,19.6479,26.0021,19.6479L28.5221,19.6479L28.5221,36.9999ZM46.7764,19.6479L48.5764,19.6479C49.9364,19.6479,50.6164,20.4239,50.6164,21.9759L50.6164,28.0719C50.6164,29.5119,49.9124,30.2319,48.5044,30.2319L45.1924,30.2319L45.1924,27.9519L46.1284,27.9519C46.4164,27.9519,46.5924,27.9039,46.6564,27.8079C46.7364,27.6959,46.7764,27.5119,46.7764,27.2559L46.7764,19.6479ZM44.2324,30.2319L43.5604,30.2319C43.2724,30.2319,43.0884,30.2879,43.0084,30.3999C42.9444,30.4959,42.9124,30.6719,42.9124,30.9279L42.9124,36.9999L40.8724,36.9999C40.0884,36.9999,39.5924,36.8719,39.3844,36.6159C39.1764,36.3599,39.0724,35.7199,39.0724,34.6959L39.0724,29.6319C39.0724,28.9279,39.1924,28.4719,39.4324,28.2639C39.6724,28.0559,40.1764,27.9519,40.9444,27.9519L44.2324,27.9519L44.2324,30.2319ZM50.0164,34.2399C50.4164,34.2399,50.6164,34.4639,50.6164,34.9119L50.6164,36.9999L43.8964,36.9999L43.8724,34.2399L50.0164,34.2399ZM45.8164,21.9279L43.5364,21.9279C43.2004,21.9279,42.9924,21.9839,42.9124,22.0959C42.8324,22.1919,42.7924,22.3759,42.7924,22.6479L42.7924,25.3119L40.1524,25.3119C39.5604,25.3119,39.2084,25.2639,39.0964,25.1679C39.0004,25.0719,38.9524,24.7759,38.9524,24.2799L38.9524,22.2159C38.9524,21.3359,39.0804,20.6879,39.3364,20.2719C39.6084,19.8559,40.1924,19.6479,41.0884,19.6479L45.8164,19.6479L45.8164,21.9279ZM32.1701,39.6479L33.9701,39.6479C35.3301,39.6479,36.0101,40.4239,36.0101,41.9759L36.0101,48.0719C36.0101,49.5119,35.3061,50.2319,33.8981,50.2319L30.5861,50.2319L30.5861,47.9519L31.5221,47.9519C31.8101,47.9519,31.9861,47.9039,32.0501,47.8079C32.1301,47.6959,32.1701,47.5119,32.1701,47.2559L32.1701,39.6479ZM29.6261,50.2319L28.9541,50.2319C28.6661,50.2319,28.4821,50.2879,28.4021,50.3999C28.3381,50.4959,28.3061,50.6719,28.3061,50.9279L28.3061,56.9999L26.2661,56.9999C25.4821,56.9999,24.9861,56.8719,24.7781,56.6159C24.5701,56.3599,24.4661,55.7199,24.4661,54.6959L24.4661,49.6319C24.4661,48.9279,24.5861,48.4719,24.8261,48.2639C25.0661,48.0559,25.5701,47.9519,26.3381,47.9519L29.6261,47.9519L29.6261,50.2319ZM35.4101,54.2399C35.8101,54.2399,36.0101,54.4639,36.0101,54.9119L36.0101,56.9999L29.2901,56.9999L29.2661,54.2399L35.4101,54.2399ZM31.2101,41.9279L28.9301,41.9279C28.5941,41.9279,28.3861,41.9839,28.3061,42.0959C28.2261,42.1919,28.1861,42.3759,28.1861,42.6479L28.1861,45.3119L25.5461,45.3119C24.9541,45.3119,24.6021,45.2639,24.4901,45.1679C24.3941,45.0719,24.3461,44.7759,24.3461,44.2799L24.3461,42.2159C24.3461,41.3359,24.4741,40.6879,24.7301,40.2719C25.0021,39.8559,25.5861,39.6479,26.4821,39.6479L31.2101,39.6479L31.2101,41.9279ZM47.8556,51.7679L51.2156,51.7679C51.3916,51.7679,51.4796,51.8799,51.4796,52.1039L51.4796,56.3279C51.4796,56.7759,51.2556,56.9999,50.8076,56.9999L44.9996,56.9999L44.9996,54.7199L47.2316,54.7199C47.4876,54.7199,47.6156,54.6959,47.6156,54.6479C47.6316,54.5839,47.6396,54.5119,47.6396,54.4319L47.6396,52.0319C47.6396,51.9039,47.6556,51.8319,47.6876,51.8159C47.7196,51.7839,47.7756,51.7679,47.8556,51.7679ZM44.1596,56.9999L41.6396,56.9999C41.0956,56.9999,40.7356,56.9119,40.5596,56.7359C40.3996,56.5599,40.3196,56.1919,40.3196,55.6319L40.3196,41.0159C40.3196,40.4559,40.3996,40.0879,40.5596,39.9119C40.7356,39.7359,41.0956,39.6479,41.6396,39.6479L44.1596,39.6479L44.1596,56.9999Z" fill="rgb(247,247,255)" stroke="none" stroke-width="1"/><path id="e1Ba0QXJMGH5" d="M29.3621,36.9999L28.3621,36.9999L28.3621,37.9999L29.3621,37.9999L29.3621,36.9999ZM29.3621,34.7199L29.3621,33.7199L28.3621,33.7199L28.3621,34.7199L29.3621,34.7199ZM31.9781,34.6479L31.008,34.4053L30.9781,34.5248L30.9781,34.6479L31.9781,34.6479ZM32.0501,31.8159L32.4973,32.7103L32.6425,32.6377L32.7572,32.523L32.0501,31.8159ZM28.5221,36.9999L28.5221,37.9999L29.5221,37.9999L29.5221,36.9999L28.5221,36.9999ZM24.9221,36.7359L24.1822,37.4086L24.1982,37.4262L24.215,37.443L24.9221,36.7359ZM24.9221,19.9119L24.215,19.2048L24.1982,19.2216L24.1822,19.2392L24.9221,19.9119ZM28.5221,19.6479L29.5221,19.6479L29.5221,18.6479L28.5221,18.6479L28.5221,19.6479ZM32.2181,32.7679L35.5781,32.7679L35.5781,30.7679L32.2181,30.7679L32.2181,32.7679ZM35.5781,32.7679C35.4391,32.7679,35.1798,32.7115,34.9898,32.4697C34.9107,32.369,34.8745,32.2725,34.8583,32.2102C34.8424,32.1497,34.8421,32.1101,34.8421,32.1039L36.8421,32.1039C36.8421,31.8881,36.8043,31.5419,36.5624,31.2341C36.2845,30.8803,35.8931,30.7679,35.5781,30.7679L35.5781,32.7679ZM34.8421,32.1039L34.8421,36.3279L36.8421,36.3279L36.8421,32.1039L34.8421,32.1039ZM34.8421,36.3279C34.8421,36.3977,34.8253,36.2665,34.967,36.1248C35.1087,35.9831,35.24,35.9999,35.1701,35.9999L35.1701,37.9999C35.5483,37.9999,36.0156,37.9047,36.3812,37.539C36.7469,37.1733,36.8421,36.706,36.8421,36.3279L34.8421,36.3279ZM35.1701,35.9999L29.3621,35.9999L29.3621,37.9999L35.1701,37.9999L35.1701,35.9999ZM30.3621,36.9999L30.3621,34.7199L28.3621,34.7199L28.3621,36.9999L30.3621,36.9999ZM29.3621,35.7199L31.5941,35.7199L31.5941,33.7199L29.3621,33.7199L29.3621,35.7199ZM31.5941,35.7199C31.7368,35.7199,31.9083,35.7144,32.0664,35.6847C32.1362,35.6717,32.2866,35.6397,32.4444,35.551C32.5945,35.4665,32.9781,35.1893,32.9781,34.6479L30.9781,34.6479C30.9781,34.1304,31.3457,33.8743,31.4639,33.8078C31.5897,33.737,31.692,33.7201,31.6978,33.719C31.7279,33.7134,31.7074,33.7199,31.5941,33.7199L31.5941,35.7199ZM32.9483,34.8904C32.9878,34.7324,33.0021,34.577,33.0021,34.4319L31.0021,34.4319C31.0021,34.4387,31.0018,34.4397,31.0022,34.4354C31.0027,34.4312,31.0041,34.4208,31.008,34.4053L32.9483,34.8904ZM33.0021,34.4319L33.0021,32.0319L31.0021,32.0319L31.0021,34.4319L33.0021,34.4319ZM33.0021,32.0319C33.0021,31.996,33.0056,32.0301,32.9903,32.0988C32.9826,32.1335,32.9616,32.2171,32.907,32.3172C32.8532,32.416,32.7319,32.593,32.4973,32.7103L31.6029,30.9215C31.3524,31.0467,31.2171,31.2388,31.1512,31.3595C31.0846,31.4816,31.0536,31.5943,31.0379,31.6649C31.0067,31.8056,31.0021,31.9398,31.0021,32.0319L33.0021,32.0319ZM32.7572,32.523C32.6234,32.6568,32.4805,32.7158,32.3908,32.7414C32.3032,32.7664,32.239,32.7679,32.2181,32.7679L32.2181,30.7679C32.0604,30.7679,31.6629,30.7888,31.343,31.1088L32.7572,32.523ZM28.5221,35.9999L26.0021,35.9999L26.0021,37.9999L28.5221,37.9999L28.5221,35.9999ZM26.0021,35.9999C25.7766,35.9999,25.6369,35.9809,25.5616,35.9625C25.4783,35.9421,25.5394,35.9389,25.6292,36.0288L24.215,37.443C24.4809,37.7089,24.8099,37.8376,25.0867,37.9053C25.3714,37.9749,25.6837,37.9999,26.0021,37.9999L26.0021,35.9999ZM25.6621,36.0632C25.71,36.1159,25.729,36.1573,25.732,36.1642C25.7352,36.1714,25.7286,36.1583,25.7193,36.1154C25.6999,36.0261,25.6821,35.8714,25.6821,35.6319L23.6821,35.6319C23.6821,35.9523,23.7044,36.2617,23.7649,36.5403C23.8225,36.8052,23.9343,37.1359,24.1822,37.4086L25.6621,36.0632ZM25.6821,35.6319L25.6821,21.0159L23.6821,21.0159L23.6821,35.6319L25.6821,35.6319ZM25.6821,21.0159C25.6821,20.7763,25.6999,20.6217,25.7193,20.5323C25.7286,20.4895,25.7352,20.4763,25.732,20.4835C25.729,20.4905,25.71,20.5318,25.6621,20.5846L24.1822,19.2392C23.9343,19.5119,23.8225,19.8425,23.7649,20.1074C23.7044,20.3861,23.6821,20.6954,23.6821,21.0159L25.6821,21.0159ZM25.6292,20.619C25.5394,20.7089,25.4783,20.7056,25.5616,20.6853C25.6369,20.6669,25.7766,20.6479,26.0021,20.6479L26.0021,18.6479C25.6837,18.6479,25.3714,18.6729,25.0867,18.7425C24.8099,18.8101,24.4809,18.9389,24.215,19.2048L25.6292,20.619ZM26.0021,20.6479L28.5221,20.6479L28.5221,18.6479L26.0021,18.6479L26.0021,20.6479ZM27.5221,19.6479L27.5221,36.9999L29.5221,36.9999L29.5221,19.6479L27.5221,19.6479ZM46.7764,19.6479L46.7764,18.6479L45.7764,18.6479L45.7764,19.6479L46.7764,19.6479ZM45.1924,30.2319L44.1924,30.2319L44.1924,31.2319L45.1924,31.2319L45.1924,30.2319ZM45.1924,27.9519L45.1924,26.9519L44.1924,26.9519L44.1924,27.9519L45.1924,27.9519ZM46.6564,27.8079L45.8426,27.2266L45.8333,27.2398L45.8243,27.2532L46.6564,27.8079ZM44.2324,30.2319L44.2324,31.2319L45.2324,31.2319L45.2324,30.2319L44.2324,30.2319ZM43.0084,30.3999L42.1946,29.8186L42.1853,29.8318L42.1763,29.8452L43.0084,30.3999ZM42.9124,36.9999L42.9124,37.9999L43.9124,37.9999L43.9124,36.9999L42.9124,36.9999ZM39.3844,36.6159L38.6083,37.2465L39.3844,36.6159ZM39.4324,28.2639L38.7774,27.5082L39.4324,28.2639ZM44.2324,27.9519L45.2324,27.9519L45.2324,26.9519L44.2324,26.9519L44.2324,27.9519ZM50.6164,36.9999L50.6164,37.9999L51.6164,37.9999L51.6164,36.9999L50.6164,36.9999ZM43.8964,36.9999L42.8964,37.0086L42.905,37.9999L43.8964,37.9999L43.8964,36.9999ZM43.8724,34.2399L43.8724,33.2399L42.8636,33.2399L42.8724,34.2486L43.8724,34.2399ZM45.8164,21.9279L45.8164,22.9279L46.8164,22.9279L46.8164,21.9279L45.8164,21.9279ZM42.9124,22.0959L43.6806,22.7361L43.7045,22.7074L43.7261,22.6771L42.9124,22.0959ZM42.7924,25.3119L42.7924,26.3119L43.7924,26.3119L43.7924,25.3119L42.7924,25.3119ZM39.0964,25.1679L38.3893,25.875L38.4164,25.9021L38.4456,25.9271L39.0964,25.1679ZM39.3364,20.2719L38.4994,19.7246L38.4919,19.7361L38.4847,19.7478L39.3364,20.2719ZM45.8164,19.6479L46.8164,19.6479L46.8164,18.6479L45.8164,18.6479L45.8164,19.6479ZM46.7764,20.6479L48.5764,20.6479L48.5764,18.6479L46.7764,18.6479L46.7764,20.6479ZM48.5764,20.6479C49.0654,20.6479,49.26,20.7813,49.3543,20.8889C49.4707,21.0218,49.6164,21.324,49.6164,21.9759L51.6164,21.9759C51.6164,21.0758,51.422,20.214,50.8585,19.5708C50.2728,18.9025,49.4474,18.6479,48.5764,18.6479L48.5764,20.6479ZM49.6164,21.9759L49.6164,28.0719L51.6164,28.0719L51.6164,21.9759L49.6164,21.9759ZM49.6164,28.0719C49.6164,28.6433,49.4766,28.8871,49.3734,28.9928C49.2742,29.0942,49.0485,29.2319,48.5044,29.2319L48.5044,31.2319C49.3683,31.2319,50.1986,31.0095,50.8034,30.391C51.4041,29.7766,51.6164,28.9405,51.6164,28.0719L49.6164,28.0719ZM48.5044,29.2319L45.1924,29.2319L45.1924,31.2319L48.5044,31.2319L48.5044,29.2319ZM46.1924,30.2319L46.1924,27.9519L44.1924,27.9519L44.1924,30.2319L46.1924,30.2319ZM45.1924,28.9519L46.1284,28.9519L46.1284,26.9519L45.1924,26.9519L45.1924,28.9519ZM46.1284,28.9519C46.3163,28.9519,46.5311,28.9375,46.7395,28.8806C46.9321,28.8281,47.2636,28.6998,47.4884,28.3626L45.8243,27.2532C45.9061,27.1306,46.0025,27.0556,46.0729,27.0134C46.141,26.9725,46.1941,26.9563,46.2133,26.9511C46.2456,26.9423,46.2284,26.9519,46.1284,26.9519L46.1284,28.9519ZM47.4701,28.3891C47.7376,28.0146,47.7764,27.5659,47.7764,27.2559L45.7764,27.2559C45.7764,27.2943,45.7749,27.3232,45.773,27.3438C45.7711,27.3647,45.7691,27.3738,45.7692,27.3734C45.7692,27.3733,45.7723,27.3589,45.7821,27.3347C45.792,27.3103,45.8105,27.2717,45.8426,27.2266L47.4701,28.3891ZM47.7764,27.2559L47.7764,19.6479L45.7764,19.6479L45.7764,27.2559L47.7764,27.2559ZM44.2324,29.2319L43.5604,29.2319L43.5604,31.2319L44.2324,31.2319L44.2324,29.2319ZM43.5604,29.2319C43.3616,29.2319,43.136,29.25,42.9152,29.3172C42.6945,29.3844,42.4049,29.5242,42.1946,29.8186L43.8221,30.9811C43.6918,31.1635,43.5343,31.2194,43.4975,31.2306C43.4608,31.2417,43.4711,31.2319,43.5604,31.2319L43.5604,29.2319ZM42.1763,29.8452C42.0385,30.0519,41.9809,30.2689,41.9525,30.425C41.9223,30.5912,41.9124,30.7632,41.9124,30.9279L43.9124,30.9279C43.9124,30.8842,43.9138,30.8502,43.9156,30.8247C43.9176,30.7989,43.9197,30.7857,43.9202,30.7828C43.9209,30.7792,43.9187,30.7933,43.9094,30.8197C43.9003,30.8454,43.8802,30.8948,43.8404,30.9546L42.1763,29.8452ZM41.9124,30.9279L41.9124,36.9999L43.9124,36.9999L43.9124,30.9279L41.9124,30.9279ZM42.9124,35.9999L40.8724,35.9999L40.8724,37.9999L42.9124,37.9999L42.9124,35.9999ZM40.8724,35.9999C40.5252,35.9999,40.2976,35.9705,40.1623,35.9356C40.0141,35.8974,40.0735,35.8783,40.1605,35.9853L38.6083,37.2465C38.9032,37.6095,39.3146,37.7824,39.6625,37.8722C40.0231,37.9652,40.4356,37.9999,40.8724,37.9999L40.8724,35.9999ZM40.1605,35.9853C40.2061,36.0415,40.2084,36.0693,40.1923,36.023C40.1778,35.9816,40.1572,35.9054,40.1374,35.7835C40.0975,35.5378,40.0724,35.1811,40.0724,34.6959L38.0724,34.6959C38.0724,35.2346,38.0993,35.71,38.1633,36.1043C38.2211,36.4598,38.331,36.9053,38.6083,37.2465L40.1605,35.9853ZM40.0724,34.6959L40.0724,29.6319L38.0724,29.6319L38.0724,34.6959L40.0724,34.6959ZM40.0724,29.6319C40.0724,29.328,40.0992,29.1313,40.1294,29.0164C40.1617,28.8939,40.1767,28.9421,40.0873,29.0196L38.7774,27.5082C38.4481,27.7937,38.2831,28.1738,38.1953,28.5074C38.1056,28.8484,38.0724,29.2318,38.0724,29.6319L40.0724,29.6319ZM40.0873,29.0196C40.0214,29.0767,40.015,29.0459,40.1925,29.0092C40.3541,28.9759,40.5986,28.9519,40.9444,28.9519L40.9444,26.9519C40.5222,26.9519,40.1306,26.9799,39.7883,27.0505C39.4618,27.1179,39.0834,27.243,38.7774,27.5082L40.0873,29.0196ZM40.9444,28.9519L44.2324,28.9519L44.2324,26.9519L40.9444,26.9519L40.9444,28.9519ZM43.2324,27.9519L43.2324,30.2319L45.2324,30.2319L45.2324,27.9519L43.2324,27.9519ZM50.0164,35.2399C50.0255,35.2399,49.99,35.2414,49.9291,35.2187C49.8624,35.1938,49.7857,35.147,49.7204,35.0739C49.5925,34.9306,49.6164,34.8158,49.6164,34.9119L51.6164,34.9119C51.6164,34.5599,51.5403,34.1092,51.2123,33.7419C50.8651,33.353,50.4017,33.2399,50.0164,33.2399L50.0164,35.2399ZM49.6164,34.9119L49.6164,36.9999L51.6164,36.9999L51.6164,34.9119L49.6164,34.9119ZM50.6164,35.9999L43.8964,35.9999L43.8964,37.9999L50.6164,37.9999L50.6164,35.9999ZM44.8963,36.9912L44.8723,34.2312L42.8724,34.2486L42.8964,37.0086L44.8963,36.9912ZM43.8724,35.2399L50.0164,35.2399L50.0164,33.2399L43.8724,33.2399L43.8724,35.2399ZM45.8164,20.9279L43.5364,20.9279L43.5364,22.9279L45.8164,22.9279L45.8164,20.9279ZM43.5364,20.9279C43.3237,20.9279,43.0906,20.9444,42.8684,21.0043C42.6602,21.0603,42.3308,21.1897,42.0986,21.5146L43.7261,22.6771C43.6485,22.7858,43.5611,22.8507,43.5002,22.8862C43.4413,22.9205,43.3983,22.9328,43.3883,22.9355C43.3741,22.9393,43.413,22.9279,43.5364,22.9279L43.5364,20.9279ZM42.1442,21.4557C41.962,21.6743,41.8835,21.9172,41.8452,22.0934C41.805,22.2785,41.7924,22.469,41.7924,22.6479L43.7924,22.6479C43.7924,22.6038,43.794,22.5709,43.796,22.5478C43.7981,22.5242,43.8002,22.5154,43.7995,22.5183C43.7991,22.5206,43.7941,22.543,43.779,22.5783C43.7639,22.6135,43.7344,22.6715,43.6806,22.7361L42.1442,21.4557ZM41.7924,22.6479L41.7924,25.3119L43.7924,25.3119L43.7924,22.6479L41.7924,22.6479ZM42.7924,24.3119L40.1524,24.3119L40.1524,26.3119L42.7924,26.3119L42.7924,24.3119ZM40.1524,24.3119C39.8761,24.3119,39.6911,24.3003,39.5795,24.285C39.5236,24.2774,39.5091,24.2719,39.5218,24.2758C39.5293,24.2781,39.5537,24.2861,39.5885,24.3031C39.6219,24.3194,39.6809,24.3518,39.7472,24.4086L38.4456,25.9271C38.6229,26.0791,38.8143,26.1504,38.929,26.1859C39.0577,26.2259,39.1892,26.2503,39.3093,26.2667C39.5497,26.2995,39.8367,26.3119,40.1524,26.3119L40.1524,24.3119ZM39.8035,24.4608C39.8664,24.5237,39.9061,24.5833,39.9294,24.6238C39.9529,24.6647,39.9659,24.6969,39.972,24.7136C39.9833,24.7441,39.9813,24.7496,39.9755,24.7138C39.9702,24.6813,39.9641,24.6295,39.9595,24.5539C39.955,24.4793,39.9524,24.3884,39.9524,24.2799L37.9524,24.2799C37.9524,24.5517,37.965,24.81,38.0013,25.0339C38.0195,25.1462,38.0475,25.2746,38.0947,25.4032C38.1384,25.5223,38.2225,25.7082,38.3893,25.875L39.8035,24.4608ZM39.9524,24.2799L39.9524,22.2159L37.9524,22.2159L37.9524,24.2799L39.9524,24.2799ZM39.9524,22.2159C39.9524,21.3931,40.0793,20.9727,40.188,20.796L38.4847,19.7478C38.0815,20.403,37.9524,21.2786,37.9524,22.2159L39.9524,22.2159ZM40.1733,20.8191C40.1629,20.8352,40.1759,20.7951,40.3139,20.7459C40.4618,20.6932,40.7083,20.6479,41.0884,20.6479L41.0884,18.6479C40.12,18.6479,39.065,18.8595,38.4994,19.7246L40.1733,20.8191ZM41.0884,20.6479L45.8164,20.6479L45.8164,18.6479L41.0884,18.6479L41.0884,20.6479ZM44.8164,19.6479L44.8164,21.9279L46.8164,21.9279L46.8164,19.6479L44.8164,19.6479ZM32.1701,39.6479L32.1701,38.6479L31.1701,38.6479L31.1701,39.6479L32.1701,39.6479ZM30.5861,50.2319L29.5861,50.2319L29.5861,51.2319L30.5861,51.2319L30.5861,50.2319ZM30.5861,47.9519L30.5861,46.9519L29.5861,46.9519L29.5861,47.9519L30.5861,47.9519ZM32.0501,47.8079L31.2364,47.2266L31.227,47.2398L31.2181,47.2532L32.0501,47.8079ZM29.6261,50.2319L29.6261,51.2319L30.6261,51.2319L30.6261,50.2319L29.6261,50.2319ZM28.4021,50.3999L27.5884,49.8186L27.579,49.8318L27.5701,49.8452L28.4021,50.3999ZM28.3061,56.9999L28.3061,57.9999L29.3061,57.9999L29.3061,56.9999L28.3061,56.9999ZM24.7781,56.6159L24.002,57.2465L24.7781,56.6159ZM24.8261,48.2639L24.1712,47.5082L24.1712,47.5082L24.8261,48.2639ZM29.6261,47.9519L30.6261,47.9519L30.6261,46.9519L29.6261,46.9519L29.6261,47.9519ZM36.0101,56.9999L36.0101,57.9999L37.0101,57.9999L37.0101,56.9999L36.0101,56.9999ZM29.2901,56.9999L28.2902,57.0086L28.2988,57.9999L29.2901,57.9999L29.2901,56.9999ZM29.2661,54.2399L29.2661,53.2399L28.2574,53.2399L28.2662,54.2486L29.2661,54.2399ZM31.2101,41.9279L31.2101,42.9279L32.2101,42.9279L32.2101,41.9279L31.2101,41.9279ZM28.3061,42.0959L29.0743,42.7361L29.0982,42.7074L29.1199,42.6771L28.3061,42.0959ZM28.1861,45.3119L28.1861,46.3119L29.1861,46.3119L29.1861,45.3119L28.1861,45.3119ZM24.4901,45.1679L23.783,45.875L23.8102,45.9021L23.8393,45.9271L24.4901,45.1679ZM24.7301,40.2719L23.8932,39.7246L23.8857,39.7361L23.8785,39.7478L24.7301,40.2719ZM31.2101,39.6479L32.2101,39.6479L32.2101,38.6479L31.2101,38.6479L31.2101,39.6479ZM32.1701,40.6479L33.9701,40.6479L33.9701,38.6479L32.1701,38.6479L32.1701,40.6479ZM33.9701,40.6479C34.4591,40.6479,34.6537,40.7813,34.748,40.8889C34.8645,41.0218,35.0101,41.324,35.0101,41.9759L37.0101,41.9759C37.0101,41.0758,36.8158,40.214,36.2522,39.5708C35.6665,38.9025,34.8411,38.6479,33.9701,38.6479L33.9701,40.6479ZM35.0101,41.9759L35.0101,48.0719L37.0101,48.0719L37.0101,41.9759L35.0101,41.9759ZM35.0101,48.0719C35.0101,48.6433,34.8704,48.8871,34.7671,48.9928C34.6679,49.0942,34.4422,49.2319,33.8981,49.2319L33.8981,51.2319C34.762,51.2319,35.5923,51.0095,36.1971,50.391C36.7979,49.7766,37.0101,48.9405,37.0101,48.0719L35.0101,48.0719ZM33.8981,49.2319L30.5861,49.2319L30.5861,51.2319L33.8981,51.2319L33.8981,49.2319ZM31.5861,50.2319L31.5861,47.9519L29.5861,47.9519L29.5861,50.2319L31.5861,50.2319ZM30.5861,48.9519L31.5221,48.9519L31.5221,46.9519L30.5861,46.9519L30.5861,48.9519ZM31.5221,48.9519C31.7101,48.9519,31.9249,48.9375,32.1332,48.8806C32.3258,48.8281,32.6574,48.6998,32.8822,48.3626L31.2181,47.2532C31.2998,47.1306,31.3962,47.0556,31.4666,47.0134C31.5347,46.9725,31.5879,46.9563,31.607,46.9511C31.6394,46.9423,31.6222,46.9519,31.5221,46.9519L31.5221,48.9519ZM32.8639,48.3891C33.1313,48.0146,33.1701,47.5659,33.1701,47.2559L31.1701,47.2559C31.1701,47.2943,31.1686,47.3232,31.1667,47.3438C31.1648,47.3647,31.1629,47.3738,31.1629,47.3734C31.163,47.3733,31.166,47.3589,31.1759,47.3347C31.1858,47.3103,31.2042,47.2717,31.2364,47.2266L32.8639,48.3891ZM33.1701,47.2559L33.1701,39.6479L31.1701,39.6479L31.1701,47.2559L33.1701,47.2559ZM29.6261,49.2319L28.9541,49.2319L28.9541,51.2319L29.6261,51.2319L29.6261,49.2319ZM28.9541,49.2319C28.7554,49.2319,28.5297,49.25,28.309,49.3172C28.0882,49.3844,27.7987,49.5242,27.5884,49.8186L29.2159,50.9811C29.0856,51.1635,28.928,51.2194,28.8913,51.2306C28.8545,51.2417,28.8649,51.2319,28.9541,51.2319L28.9541,49.2319ZM27.5701,49.8452C27.4323,50.0519,27.3746,50.2689,27.3463,50.425C27.316,50.5912,27.3061,50.7632,27.3061,50.9279L29.3061,50.9279C29.3061,50.8842,29.3075,50.8502,29.3094,50.8247C29.3113,50.7989,29.3135,50.7857,29.314,50.7828C29.3146,50.7792,29.3124,50.7933,29.3031,50.8197C29.294,50.8454,29.274,50.8948,29.2342,50.9546L27.5701,49.8452ZM27.3061,50.9279L27.3061,56.9999L29.3061,56.9999L29.3061,50.9279L27.3061,50.9279ZM28.3061,55.9999L26.2661,55.9999L26.2661,57.9999L28.3061,57.9999L28.3061,55.9999ZM26.2661,55.9999C25.9189,55.9999,25.6914,55.9705,25.556,55.9356C25.4079,55.8974,25.4673,55.8783,25.5542,55.9853L24.002,57.2465C24.297,57.6095,24.7084,57.7824,25.0562,57.8722C25.4169,57.9652,25.8293,57.9999,26.2661,57.9999L26.2661,55.9999ZM25.5542,55.9853C25.5999,56.0415,25.6021,56.0693,25.586,56.023C25.5716,55.9816,25.551,55.9054,25.5312,55.7835C25.4912,55.5378,25.4661,55.1811,25.4661,54.6959L23.4661,54.6959C23.4661,55.2346,23.493,55.71,23.5571,56.1043C23.6148,56.4598,23.7248,56.9053,24.002,57.2465L25.5542,55.9853ZM25.4661,54.6959L25.4661,49.6319L23.4661,49.6319L23.4661,54.6959L25.4661,54.6959ZM25.4661,49.6319C25.4661,49.328,25.4929,49.1313,25.5232,49.0164C25.5554,48.8939,25.5704,48.9421,25.4811,49.0196L24.1712,47.5082C23.8418,47.7937,23.6768,48.1738,23.589,48.5074C23.4993,48.8484,23.4661,49.2318,23.4661,49.6319L25.4661,49.6319ZM25.4811,49.0196C25.4151,49.0767,25.4087,49.0459,25.5862,49.0092C25.7479,48.9759,25.9923,48.9519,26.3381,48.9519L26.3381,46.9519C25.9159,46.9519,25.5244,46.9799,25.182,47.0505C24.8555,47.1179,24.4771,47.243,24.1712,47.5082L25.4811,49.0196ZM26.3381,48.9519L29.6261,48.9519L29.6261,46.9519L26.3381,46.9519L26.3381,48.9519ZM28.6261,47.9519L28.6261,50.2319L30.6261,50.2319L30.6261,47.9519L28.6261,47.9519ZM35.4101,55.2399C35.4193,55.2399,35.3837,55.2414,35.3229,55.2187C35.2562,55.1938,35.1795,55.147,35.1142,55.0739C34.9862,54.9306,35.0101,54.8158,35.0101,54.9119L37.0101,54.9119C37.0101,54.5599,36.934,54.1092,36.6061,53.7419C36.2588,53.353,35.7954,53.2399,35.4101,53.2399L35.4101,55.2399ZM35.0101,54.9119L35.0101,56.9999L37.0101,56.9999L37.0101,54.9119L35.0101,54.9119ZM36.0101,55.9999L29.2901,55.9999L29.2901,57.9999L36.0101,57.9999L36.0101,55.9999ZM30.2901,56.9912L30.2661,54.2312L28.2662,54.2486L28.2902,57.0086L30.2901,56.9912ZM29.2661,55.2399L35.4101,55.2399L35.4101,53.2399L29.2661,53.2399L29.2661,55.2399ZM31.2101,40.9279L28.9301,40.9279L28.9301,42.9279L31.2101,42.9279L31.2101,40.9279ZM28.9301,40.9279C28.7175,40.9279,28.4844,40.9444,28.2622,41.0043C28.054,41.0603,27.7245,41.1897,27.4924,41.5146L29.1199,42.6771C29.0422,42.7858,28.9548,42.8507,28.894,42.8862C28.8351,42.9205,28.7921,42.9328,28.7821,42.9355C28.7679,42.9393,28.8068,42.9279,28.9301,42.9279L28.9301,40.9279ZM27.5379,41.4557C27.3557,41.6743,27.2773,41.9172,27.2389,42.0934C27.1987,42.2785,27.1861,42.469,27.1861,42.6479L29.1861,42.6479C29.1861,42.6038,29.1878,42.5709,29.1898,42.5478C29.1919,42.5242,29.1939,42.5154,29.1933,42.5183C29.1928,42.5206,29.1879,42.543,29.1728,42.5783C29.1577,42.6135,29.1281,42.6715,29.0743,42.7361L27.5379,41.4557ZM27.1861,42.6479L27.1861,45.3119L29.1861,45.3119L29.1861,42.6479L27.1861,42.6479ZM28.1861,44.3119L25.5461,44.3119L25.5461,46.3119L28.1861,46.3119L28.1861,44.3119ZM25.5461,44.3119C25.2698,44.3119,25.0848,44.3003,24.9732,44.285C24.9173,44.2774,24.9028,44.2719,24.9155,44.2758C24.9231,44.2781,24.9474,44.2861,24.9822,44.3031C25.0157,44.3194,25.0747,44.3518,25.1409,44.4086L23.8393,45.9271C24.0167,46.0791,24.2081,46.1504,24.3227,46.1859C24.4514,46.2259,24.5829,46.2503,24.703,46.2667C24.9434,46.2995,25.2304,46.3119,25.5461,46.3119L25.5461,44.3119ZM25.1972,44.4608C25.2602,44.5237,25.2999,44.5833,25.3232,44.6238C25.3467,44.6647,25.3597,44.6969,25.3658,44.7136C25.377,44.7441,25.375,44.7496,25.3692,44.7138C25.364,44.6813,25.3579,44.6295,25.3533,44.5539C25.3488,44.4793,25.3461,44.3884,25.3461,44.2799L23.3461,44.2799C23.3461,44.5517,23.3587,44.81,23.395,45.0339C23.4132,45.1462,23.4412,45.2746,23.4885,45.4032C23.5322,45.5223,23.6162,45.7082,23.783,45.875L25.1972,44.4608ZM25.3461,44.2799L25.3461,42.2159L23.3461,42.2159L23.3461,44.2799L25.3461,44.2799ZM25.3461,42.2159C25.3461,41.3931,25.473,40.9727,25.5818,40.796L23.8785,39.7478C23.4752,40.403,23.3461,41.2786,23.3461,42.2159L25.3461,42.2159ZM25.5671,40.8191C25.5566,40.8352,25.5697,40.7951,25.7076,40.7459C25.8555,40.6932,26.102,40.6479,26.4821,40.6479L26.4821,38.6479C25.5137,38.6479,24.4588,38.8595,23.8932,39.7246L25.5671,40.8191ZM26.4821,40.6479L31.2101,40.6479L31.2101,38.6479L26.4821,38.6479L26.4821,40.6479ZM30.2101,39.6479L30.2101,41.9279L32.2101,41.9279L32.2101,39.6479L30.2101,39.6479ZM44.9996,56.9999L43.9996,56.9999L43.9996,57.9999L44.9996,57.9999L44.9996,56.9999ZM44.9996,54.7199L44.9996,53.7199L43.9996,53.7199L43.9996,54.7199L44.9996,54.7199ZM47.6156,54.6479L46.6455,54.4053L46.6156,54.5248L46.6156,54.6479L47.6156,54.6479ZM47.6876,51.8159L48.1348,52.7103L48.28,52.6377L48.3947,52.523L47.6876,51.8159ZM44.1596,56.9999L44.1596,57.9999L45.1596,57.9999L45.1596,56.9999L44.1596,56.9999ZM40.5596,56.7359L39.8197,57.4086L39.8357,57.4262L39.8525,57.443L40.5596,56.7359ZM40.5596,39.9119L39.8525,39.2048L39.8357,39.2216L39.8197,39.2392L40.5596,39.9119ZM44.1596,39.6479L45.1596,39.6479L45.1596,38.6479L44.1596,38.6479L44.1596,39.6479ZM47.8556,52.7679L51.2156,52.7679L51.2156,50.7679L47.8556,50.7679L47.8556,52.7679ZM51.2156,52.7679C51.0766,52.7679,50.8173,52.7115,50.6273,52.4697C50.5482,52.369,50.5121,52.2725,50.4958,52.2102C50.4799,52.1497,50.4796,52.1101,50.4796,52.1039L52.4796,52.1039C52.4796,51.8881,52.4418,51.5419,52.1999,51.2341C51.922,50.8803,51.5306,50.7679,51.2156,50.7679L51.2156,52.7679ZM50.4796,52.1039L50.4796,56.3279L52.4796,56.3279L52.4796,52.1039L50.4796,52.1039ZM50.4796,56.3279C50.4796,56.3977,50.4628,56.2665,50.6045,56.1248C50.7462,55.9831,50.8775,55.9999,50.8076,55.9999L50.8076,57.9999C51.1858,57.9999,51.653,57.9047,52.0187,57.539C52.3844,57.1733,52.4796,56.706,52.4796,56.3279L50.4796,56.3279ZM50.8076,55.9999L44.9996,55.9999L44.9996,57.9999L50.8076,57.9999L50.8076,55.9999ZM45.9996,56.9999L45.9996,54.7199L43.9996,54.7199L43.9996,56.9999L45.9996,56.9999ZM44.9996,55.7199L47.2316,55.7199L47.2316,53.7199L44.9996,53.7199L44.9996,55.7199ZM47.2316,55.7199C47.3743,55.7199,47.5458,55.7144,47.7039,55.6847C47.7737,55.6717,47.9241,55.6397,48.0819,55.551C48.232,55.4665,48.6156,55.1893,48.6156,54.6479L46.6156,54.6479C46.6156,54.1304,46.9832,53.8743,47.1014,53.8078C47.2272,53.737,47.3295,53.7201,47.3353,53.719C47.3654,53.7134,47.3449,53.7199,47.2316,53.7199L47.2316,55.7199ZM48.5858,54.8904C48.6253,54.7324,48.6396,54.577,48.6396,54.4319L46.6396,54.4319C46.6396,54.4387,46.6393,54.4397,46.6397,54.4354C46.6402,54.4312,46.6416,54.4208,46.6455,54.4053L48.5858,54.8904ZM48.6396,54.4319L48.6396,52.0319L46.6396,52.0319L46.6396,54.4319L48.6396,54.4319ZM48.6396,52.0319C48.6396,51.996,48.6431,52.0301,48.6278,52.0988C48.6201,52.1335,48.5991,52.2171,48.5445,52.3172C48.4907,52.416,48.3694,52.593,48.1348,52.7103L47.2404,50.9214C46.9899,51.0467,46.8546,51.2388,46.7887,51.3595C46.7221,51.4816,46.6911,51.5943,46.6754,51.6649C46.6442,51.8056,46.6396,51.9398,46.6396,52.0319L48.6396,52.0319ZM48.3947,52.523C48.2609,52.6568,48.118,52.7158,48.0283,52.7414C47.9407,52.7664,47.8765,52.7679,47.8556,52.7679L47.8556,50.7679C47.6979,50.7679,47.3004,50.7889,46.9805,51.1088L48.3947,52.523ZM44.1596,55.9999L41.6396,55.9999L41.6396,57.9999L44.1596,57.9999L44.1596,55.9999ZM41.6396,55.9999C41.4141,55.9999,41.2744,55.9809,41.1991,55.9625C41.1158,55.9421,41.1769,55.9389,41.2667,56.0288L39.8525,57.443C40.1184,57.7089,40.4474,57.8376,40.7242,57.9053C41.0089,57.9749,41.3212,57.9999,41.6396,57.9999L41.6396,55.9999ZM41.2996,56.0632C41.3475,56.1159,41.3665,56.1573,41.3695,56.1642C41.3727,56.1714,41.3661,56.1583,41.3568,56.1154C41.3374,56.0261,41.3196,55.8714,41.3196,55.6319L39.3196,55.6319C39.3196,55.9523,39.3419,56.2617,39.4024,56.5403C39.46,56.8052,39.5718,57.1359,39.8197,57.4086L41.2996,56.0632ZM41.3196,55.6319L41.3196,41.0159L39.3196,41.0159L39.3196,55.6319L41.3196,55.6319ZM41.3196,41.0159C41.3196,40.7763,41.3374,40.6217,41.3568,40.5323C41.3661,40.4895,41.3727,40.4763,41.3695,40.4835C41.3665,40.4905,41.3475,40.5318,41.2996,40.5846L39.8197,39.2392C39.5718,39.5119,39.46,39.8425,39.4024,40.1074C39.3419,40.3861,39.3196,40.6954,39.3196,41.0159L41.3196,41.0159ZM41.2667,40.619C41.1769,40.7089,41.1158,40.7056,41.1991,40.6853C41.2744,40.6669,41.4141,40.6479,41.6396,40.6479L41.6396,38.6479C41.3212,38.6479,41.0089,38.6729,40.7242,38.7425C40.4474,38.8101,40.1184,38.9389,39.8525,39.2048L41.2667,40.619ZM41.6396,40.6479L44.1596,40.6479L44.1596,38.6479L41.6396,38.6479L41.6396,40.6479ZM43.1596,39.6479L43.1596,56.9999L45.1596,56.9999L45.1596,39.6479L43.1596,39.6479Z" fill="rgb(247,247,255)" stroke="none" stroke-width="1"/><script><![CDATA[!function(t,n){"object"==typeof exports&&"undefined"!=typeof module?module.exports=n(require("vue")):"function"==typeof define&&define.amd?define(["vue"],n):((t="undefined"!=typeof globalThis?globalThis:t||self).__SVGATOR_PLAYER__=t.__SVGATOR_PLAYER__||{},t.__SVGATOR_PLAYER__["5c7f360c"]=n())}(this,(function(){"use strict";function t(t,n){var r=Object.keys(t);if(Object.getOwnPropertySymbols){var e=Object.getOwnPropertySymbols(t);n&&(e=e.filter((function(n){return Object.getOwnPropertyDescriptor(t,n).enumerable}))),r.push.apply(r,e)}return r}function n(n){for(var r=1;r<arguments.length;r++){var e=null!=arguments[r]?arguments[r]:{};r%2?t(Object(e),!0).forEach((function(t){u(n,t,e[t])})):Object.getOwnPropertyDescriptors?Object.defineProperties(n,Object.getOwnPropertyDescriptors(e)):t(Object(e)).forEach((function(t){Object.defineProperty(n,t,Object.getOwnPropertyDescriptor(e,t))}))}return n}function r(t){return(r="function"==typeof Symbol&&"symbol"==typeof Symbol.iterator?function(t){return typeof t}:function(t){return t&&"function"==typeof Symbol&&t.constructor===Symbol&&t!==Symbol.prototype?"symbol":typeof t})(t)}function e(t,n){if(!(t instanceof n))throw new TypeError("Cannot call a class as a function")}function i(t,n){for(var r=0;r<n.length;r++){var e=n[r];e.enumerable=e.enumerable||!1,e.configurable=!0,"value"in e&&(e.writable=!0),Object.defineProperty(t,e.key,e)}}function o(t,n,r){return n&&i(t.prototype,n),r&&i(t,r),t}function u(t,n,r){return n in t?Object.defineProperty(t,n,{value:r,enumerable:!0,configurable:!0,writable:!0}):t[n]=r,t}function a(t){return(a=Object.setPrototypeOf?Object.getPrototypeOf:function(t){return t.__proto__||Object.getPrototypeOf(t)})(t)}function l(t,n){return(l=Object.setPrototypeOf||function(t,n){return t.__proto__=n,t})(t,n)}function f(t,n){if(n&&("object"==typeof n||"function"==typeof n))return n;if(void 0!==n)throw new TypeError("Derived constructors may only return object or undefined");return function(t){if(void 0===t)throw new ReferenceError("this hasn't been initialised - super() hasn't been called");return t}(t)}function s(t){var n=function(){if("undefined"==typeof Reflect||!Reflect.construct)return!1;if(Reflect.construct.sham)return!1;if("function"==typeof Proxy)return!0;try{return Boolean.prototype.valueOf.call(Reflect.construct(Boolean,[],(function(){}))),!0}catch(t){return!1}}();return function(){var r,e=a(t);if(n){var i=a(this).constructor;r=Reflect.construct(e,arguments,i)}else r=e.apply(this,arguments);return f(this,r)}}function c(t,n,r){return(c="undefined"!=typeof Reflect&&Reflect.get?Reflect.get:function(t,n,r){var e=function(t,n){for(;!Object.prototype.hasOwnProperty.call(t,n)&&null!==(t=a(t)););return t}(t,n);if(e){var i=Object.getOwnPropertyDescriptor(e,n);return i.get?i.get.call(r):i.value}})(t,n,r||t)}var h=v(Math.pow(10,-6));function v(t){var n=arguments.length>1&&void 0!==arguments[1]?arguments[1]:6;if(Number.isInteger(t))return t;var r=Math.pow(10,n);return Math.round((+t+Number.EPSILON)*r)/r}function y(t,n){var r=arguments.length>2&&void 0!==arguments[2]?arguments[2]:h;return Math.abs(t-n)<r}var g=Math.PI/180;function d(t){return t}function p(t,n,r){var e=1-r;return 3*r*e*(t*e+n*r)+r*r*r}function m(){var t=arguments.length>0&&void 0!==arguments[0]?arguments[0]:0,n=arguments.length>1&&void 0!==arguments[1]?arguments[1]:0,r=arguments.length>2&&void 0!==arguments[2]?arguments[2]:1,e=arguments.length>3&&void 0!==arguments[3]?arguments[3]:1;return t<0||t>1||r<0||r>1?null:y(t,n)&&y(r,e)?d:function(i){if(i<=0)return t>0?i*n/t:0===n&&r>0?i*e/r:0;if(i>=1)return r<1?1+(i-1)*(e-1)/(r-1):1===r&&t<1?1+(i-1)*(n-1)/(t-1):1;for(var o,u=0,a=1;u<a;){var l=p(t,r,o=(u+a)/2);if(y(i,l))break;l<i?u=o:a=o}return p(n,e,o)}}function b(){return 1}function w(t){return 1===t?1:0}function x(){var t=arguments.length>0&&void 0!==arguments[0]?arguments[0]:1,n=arguments.length>1&&void 0!==arguments[1]?arguments[1]:0;if(1===t){if(0===n)return w;if(1===n)return b}var r=1/t;return function(t){return t>=1?1:(t+=n*r)-t%r}}var A="undefined"!=typeof window&&/(Mac|iPhone|iPod|iPad)/i.test(window.navigator.platform);Object.freeze({Meta:A?"Control":"Meta",Ctrl:"Control",Down:"ArrowDown",Up:"ArrowUp",Left:"ArrowLeft",Right:"ArrowRight",Esc:"Escape",Delete:"Backspace",Space:"Space"});var k=Math.sin,_=Math.cos,S=Math.acos,O=Math.asin,j=Math.tan,P=Math.atan2,M=Math.PI/180,E=180/Math.PI,R=Math.sqrt,I=function(){function t(){var n=arguments.length>0&&void 0!==arguments[0]?arguments[0]:1,r=arguments.length>1&&void 0!==arguments[1]?arguments[1]:0,i=arguments.length>2&&void 0!==arguments[2]?arguments[2]:0,o=arguments.length>3&&void 0!==arguments[3]?arguments[3]:1,u=arguments.length>4&&void 0!==arguments[4]?arguments[4]:0,a=arguments.length>5&&void 0!==arguments[5]?arguments[5]:0;e(this,t),this.m=[n,r,i,o,u,a],this.i=null,this.w=null,this.s=null}return o(t,[{key:"determinant",get:function(){var t=this.m;return t[0]*t[3]-t[1]*t[2]}},{key:"isIdentity",get:function(){if(null===this.i){var t=this.m;this.i=1===t[0]&&0===t[1]&&0===t[2]&&1===t[3]&&0===t[4]&&0===t[5]}return this.i}},{key:"point",value:function(t,n){var r=this.m;return{x:r[0]*t+r[2]*n+r[4],y:r[1]*t+r[3]*n+r[5]}}},{key:"translateSelf",value:function(){var t=arguments.length>0&&void 0!==arguments[0]?arguments[0]:0,n=arguments.length>1&&void 0!==arguments[1]?arguments[1]:0;if(!t&&!n)return this;var r=this.m;return r[4]+=r[0]*t+r[2]*n,r[5]+=r[1]*t+r[3]*n,this.w=this.s=this.i=null,this}},{key:"rotateSelf",value:function(){var t=arguments.length>0&&void 0!==arguments[0]?arguments[0]:0;if(t%=360){var n=k(t*=M),r=_(t),e=this.m,i=e[0],o=e[1];e[0]=i*r+e[2]*n,e[1]=o*r+e[3]*n,e[2]=e[2]*r-i*n,e[3]=e[3]*r-o*n,this.w=this.s=this.i=null}return this}},{key:"scaleSelf",value:function(){var t=arguments.length>0&&void 0!==arguments[0]?arguments[0]:1,n=arguments.length>1&&void 0!==arguments[1]?arguments[1]:1;if(1!==t||1!==n){var r=this.m;r[0]*=t,r[1]*=t,r[2]*=n,r[3]*=n,this.w=this.s=this.i=null}return this}},{key:"skewSelf",value:function(t,n){if(n%=360,(t%=360)||n){var r=this.m,e=r[0],i=r[1],o=r[2],u=r[3];t&&(t=j(t*M),r[2]+=e*t,r[3]+=i*t),n&&(n=j(n*M),r[0]+=o*n,r[1]+=u*n),this.w=this.s=this.i=null}return this}},{key:"resetSelf",value:function(){var t=arguments.length>0&&void 0!==arguments[0]?arguments[0]:1,n=arguments.length>1&&void 0!==arguments[1]?arguments[1]:0,r=arguments.length>2&&void 0!==arguments[2]?arguments[2]:0,e=arguments.length>3&&void 0!==arguments[3]?arguments[3]:1,i=arguments.length>4&&void 0!==arguments[4]?arguments[4]:0,o=arguments.length>5&&void 0!==arguments[5]?arguments[5]:0,u=this.m;return u[0]=t,u[1]=n,u[2]=r,u[3]=e,u[4]=i,u[5]=o,this.w=this.s=this.i=null,this}},{key:"recomposeSelf",value:function(){var t=arguments.length>0&&void 0!==arguments[0]?arguments[0]:null,n=arguments.length>1&&void 0!==arguments[1]?arguments[1]:null,r=arguments.length>2&&void 0!==arguments[2]?arguments[2]:null,e=arguments.length>3&&void 0!==arguments[3]?arguments[3]:null,i=arguments.length>4&&void 0!==arguments[4]?arguments[4]:null;return this.isIdentity||this.resetSelf(),t&&(t.x||t.y)&&this.translateSelf(t.x,t.y),n&&this.rotateSelf(n),r&&(r.x&&this.skewSelf(r.x,0),r.y&&this.skewSelf(0,r.y)),!e||1===e.x&&1===e.y||this.scaleSelf(e.x,e.y),i&&(i.x||i.y)&&this.translateSelf(i.x,i.y),this}},{key:"decompose",value:function(){var t=arguments.length>0&&void 0!==arguments[0]?arguments[0]:0,n=arguments.length>1&&void 0!==arguments[1]?arguments[1]:0,r=this.m,e=r[0]*r[0]+r[1]*r[1],i=[[r[0],r[1]],[r[2],r[3]]],o=R(e);if(0===o)return{origin:{x:v(r[4]),y:v(r[5])},translate:{x:v(t),y:v(n)},scale:{x:0,y:0},skew:{x:0,y:0},rotate:0};i[0][0]/=o,i[0][1]/=o;var u=r[0]*r[3]-r[1]*r[2]<0;u&&(o=-o);var a=i[0][0]*i[1][0]+i[0][1]*i[1][1];i[1][0]-=i[0][0]*a,i[1][1]-=i[0][1]*a;var l=R(i[1][0]*i[1][0]+i[1][1]*i[1][1]);if(0===l)return{origin:{x:v(r[4]),y:v(r[5])},translate:{x:v(t),y:v(n)},scale:{x:v(o),y:0},skew:{x:0,y:0},rotate:0};i[1][0]/=l,i[1][1]/=l,a/=l;var f=0;return i[1][1]<0?(f=S(i[1][1])*E,i[0][1]<0&&(f=360-f)):f=O(i[0][1])*E,u&&(f=-f),a=P(a,R(i[0][0]*i[0][0]+i[0][1]*i[0][1]))*E,u&&(a=-a),{origin:{x:v(r[4]),y:v(r[5])},translate:{x:v(t),y:v(n)},scale:{x:v(o),y:v(l)},skew:{x:v(a),y:0},rotate:v(f)}}},{key:"toString",value:function(){var t=arguments.length>0&&void 0!==arguments[0]?arguments[0]:" ";return null===this.s&&(this.s="matrix("+this.m.map((function(t){return v(t)})).join(t)+")"),this.s}}]),t}();function N(t,n,r){return t>=.5?r:n}function B(t,n,r){return 0===t||n===r?n:t*(r-n)+n}function F(t,n,r){var e=B(t,n,r);return e<=0?0:e}function T(t,n,r){var e=B(t,n,r);return e<=0?0:e>=1?1:e}function q(t,n,r){return 0===t?n:1===t?r:{x:B(t,n.x,r.x),y:B(t,n.y,r.y)}}function L(t,n,r){var e=function(t,n,r){return Math.round(B(t,n,r))}(t,n,r);return e<=0?0:e>=255?255:e}function C(t,n,r){return 0===t?n:1===t?r:{r:L(t,n.r,r.r),g:L(t,n.g,r.g),b:L(t,n.b,r.b),a:B(t,null==n.a?1:n.a,null==r.a?1:r.a)}}function D(t,n){for(var r=[],e=0;e<t;e++)r.push(n);return r}function z(t,n){if(--n<=0)return t;var r=(t=Object.assign([],t)).length;do{for(var e=0;e<r;e++)t.push(t[e])}while(--n>0);return t}var V,G=function(){function t(n){e(this,t),this.list=n,this.length=n.length}return o(t,[{key:"setAttribute",value:function(t,n){for(var r=this.list,e=0;e<this.length;e++)r[e].setAttribute(t,n)}},{key:"removeAttribute",value:function(t){for(var n=this.list,r=0;r<this.length;r++)n[r].removeAttribute(t)}},{key:"style",value:function(t,n){for(var r=this.list,e=0;e<this.length;e++)r[e].style[t]=n}}]),t}(),Y=/-./g,U=function(t,n){return n.toUpperCase()};function $(t){return"function"==typeof t?t:N}function Q(t){return t?"function"==typeof t?t:Array.isArray(t)?function(t){var n=arguments.length>1&&void 0!==arguments[1]?arguments[1]:d;if(!Array.isArray(t))return n;switch(t.length){case 1:return x(t[0])||n;case 2:return x(t[0],t[1])||n;case 4:return m(t[0],t[1],t[2],t[3])||n}return n}(t,null):function(t,n){var r=arguments.length>2&&void 0!==arguments[2]?arguments[2]:d;switch(t){case"linear":return d;case"steps":return x(n.steps||1,n.jump||0)||r;case"bezier":case"cubic-bezier":return m(n.x1||0,n.y1||0,n.x2||0,n.y2||0)||r}return r}(t.type,t.value,null):null}function H(t,n,r){var e=arguments.length>3&&void 0!==arguments[3]&&arguments[3],i=n.length-1;if(t<=n[0].t)return e?[0,0,n[0].v]:n[0].v;if(t>=n[i].t)return e?[i,1,n[i].v]:n[i].v;var o,u=n[0],a=null;for(o=1;o<=i;o++){if(!(t>n[o].t)){a=n[o];break}u=n[o]}return null==a?e?[i,1,n[i].v]:n[i].v:u.t===a.t?e?[o,1,a.v]:a.v:(t=(t-u.t)/(a.t-u.t),u.e&&(t=u.e(t)),e?[o,t,r(t,u.v,a.v)]:r(t,u.v,a.v))}function J(t,n){var r=arguments.length>2&&void 0!==arguments[2]?arguments[2]:null;return t&&t.length?"function"!=typeof n?null:("function"!=typeof r&&(r=null),function(e){var i=H(e,t,n);return null!=i&&r&&(i=r(i)),i}):null}function Z(t,n){return t.t-n.t}function K(t,n,e,i,o){var u,a="@"===e[0],l="#"===e[0],f=V[e],s=N;switch(a?(u=e.substr(1),e=u.replace(Y,U)):l&&(e=e.substr(1)),r(f)){case"function":if(s=f(i,o,H,Q,e,a,n,t),l)return s;break;case"string":s=J(i,$(f));break;case"object":if((s=J(i,$(f.i),f.f))&&"function"==typeof f.u)return f.u(n,s,e,a,t)}return s?function(t,n,r){if(arguments.length>3&&void 0!==arguments[3]&&arguments[3])return t instanceof G?function(e){return t.style(n,r(e))}:function(e){return t.style[n]=r(e)};if(Array.isArray(n)){var e=n.length;return function(i){var o=r(i);if(null==o)for(var u=0;u<e;u++)t[u].removeAttribute(n);else for(var a=0;a<e;a++)t[a].setAttribute(n,o)}}return function(e){var i=r(e);null==i?t.removeAttribute(n):t.setAttribute(n,i)}}(n,e,s,a):null}function W(t,n,e,i){if(!i||"object"!==r(i))return null;var o=null,u=null;return Array.isArray(i)?u=function(t){if(!t||!t.length)return null;for(var n=0;n<t.length;n++)t[n].e&&(t[n].e=Q(t[n].e));return t.sort(Z)}(i):(u=i.keys,o=i.data||null),u?K(t,n,e,u,o):null}function X(t,n,r){if(!r)return null;var e=[];for(var i in r)if(r.hasOwnProperty(i)){var o=W(t,n,i,r[i]);o&&e.push(o)}return e.length?e:null}function tt(t,n){if(!n.duration||n.duration<0)return null;var r=function(t,n){if(!n)return null;var r=[];if(Array.isArray(n))for(var e=n.length,i=0;i<e;i++){var o=n[i];if(2===o.length){var u=null;if("string"==typeof o[0])u=t.getElementById(o[0]);else if(Array.isArray(o[0])){u=[];for(var a=0;a<o[0].length;a++)if("string"==typeof o[0][a]){var l=t.getElementById(o[0][a]);l&&u.push(l)}u=u.length?1===u.length?u[0]:new G(u):null}if(u){var f=X(t,u,o[1]);f&&(r=r.concat(f))}}}else for(var s in n)if(n.hasOwnProperty(s)){var c=t.getElementById(s);if(c){var h=X(t,c,n[s]);h&&(r=r.concat(h))}}return r.length?r:null}(t,n.elements);return r?function(t,n){var r=arguments.length>2&&void 0!==arguments[2]?arguments[2]:1/0,e=arguments.length>3&&void 0!==arguments[3]?arguments[3]:1,i=arguments.length>4&&void 0!==arguments[4]&&arguments[4],o=arguments.length>5&&void 0!==arguments[5]?arguments[5]:1,u=t.length,a=e>0?n:0;i&&r%2==0&&(a=n-a);var l=null;return function(f,s){var c=f%n,h=1+(f-c)/n;s*=e,i&&h%2==0&&(s=-s);var v=!1;if(h>r)c=a,v=!0,-1===o&&(c=e>0?0:n);else if(s<0&&(c=n-c),c===l)return!1;l=c;for(var y=0;y<u;y++)t[y](c);return v}}(r,n.duration,n.iterations||1/0,n.direction||1,!!n.alternate,n.fill||1):null}function nt(t){return+("0x"+(t.replace(/[^0-9a-fA-F]+/g,"")||27))}function rt(t,n,r){return!t||!r||n>t.length?t:t.substring(0,n)+rt(t.substring(n+1),r,r)}function et(t){var n=arguments.length>1&&void 0!==arguments[1]?arguments[1]:27;return!t||t%n?t%n:et(t/n,n)}function it(t,n,r){if(t&&t.length){var e=nt(r),i=nt(n),o=et(e)+5,u=rt(t,et(e,5),o);return u=u.replace(/\x7c$/g,"==").replace(/\x2f$/g,"="),u=function(t,n,r){var e=+("0x"+t.substring(0,4));t=t.substring(4);for(var i=n%e+r%27,o=[],u=0;u<t.length;u+=2)if("|"!==t[u]){var a=+("0x"+t[u]+t[u+1])-i;o.push(a)}else{var l=+("0x"+t.substring(u+1,u+1+4))-i;u+=3,o.push(l)}return String.fromCharCode.apply(String,o)}(u=(u=atob(u)).replace(/[\x41-\x5A]/g,""),i,e),u=JSON.parse(u)}}Number.isInteger||(Number.isInteger=function(t){return"number"==typeof t&&isFinite(t)&&Math.floor(t)===t}),Number.EPSILON||(Number.EPSILON=2220446049250313e-31);var ot=function(){function t(n,r){var i=arguments.length>2&&void 0!==arguments[2]?arguments[2]:{};e(this,t),this._id=0,this._running=!1,this._rollingBack=!1,this._animations=n,this.duration=r.duration,this.alternate=r.alternate,this.fill=r.fill,this.iterations=r.iterations,this.direction=i.direction||1,this.speed=i.speed||1,this.fps=i.fps||100,this.offset=i.offset||0,this.rollbackStartOffset=0}return o(t,[{key:"_rollback",value:function(){var t=this,n=1/0,r=null;this.rollbackStartOffset=this.offset,this._rollingBack||(this._rollingBack=!0,this._running=!0);this._id=window.requestAnimationFrame((function e(i){if(t._rollingBack){null==r&&(r=i);var o=i-r,u=t.rollbackStartOffset-o,a=Math.round(u*t.speed);if(a>t.duration&&n!=1/0){var l=!!t.alternate&&a/t.duration%2>1,f=a%t.duration;a=(f+=l?t.duration:0)||t.duration}var s=t.fps?1e3/t.fps:0,c=Math.max(0,a);if(c<n-s){t.offset=c,n=c;for(var h=t._animations,v=h.length,y=0;y<v;y++)h[y](c,t.direction)}var g=!1;if(t.iterations>0&&-1===t.fill){var d=t.iterations*t.duration,p=d==a;a=p?0:a,t.offset=p?0:t.offset,g=a>d}a>0&&t.offset>=a&&!g?t._id=window.requestAnimationFrame(e):t.stop()}}))}},{key:"_start",value:function(){var t=this,n=arguments.length>0&&void 0!==arguments[0]?arguments[0]:0,r=-1/0,e=null,i={},o=function o(u){t._running=!0,null==e&&(e=u);var a=Math.round((u-e+n)*t.speed),l=t.fps?1e3/t.fps:0;if(a>r+l&&!t._rollingBack){t.offset=a,r=a;for(var f=t._animations,s=f.length,c=0,h=0;h<s;h++)i[h]?c++:(i[h]=f[h](a,t.direction),i[h]&&c++);if(c===s)return void t._stop()}t._id=window.requestAnimationFrame(o)};this._id=window.requestAnimationFrame(o)}},{key:"_stop",value:function(){this._id&&window.cancelAnimationFrame(this._id),this._running=!1,this._rollingBack=!1}},{key:"play",value:function(){!this._rollingBack&&this._running||(this._rollingBack=!1,this.rollbackStartOffset>this.duration&&(this.offset=this.rollbackStartOffset-(this.rollbackStartOffset-this.offset)%this.duration,this.rollbackStartOffset=0),this._start(this.offset))}},{key:"stop",value:function(){this._stop(),this.offset=0,this.rollbackStartOffset=0;var t=this.direction,n=this._animations;window.requestAnimationFrame((function(){for(var r=0;r<n.length;r++)n[r](0,t)}))}},{key:"reachedToEnd",value:function(){return this.iterations>0&&this.offset>=this.iterations*this.duration}},{key:"restart",value:function(){this._stop(),this.offset=0,this._start()}},{key:"pause",value:function(){this._stop()}},{key:"reverse",value:function(){this.direction=-this.direction}}],[{key:"build",value:function(r,e){return delete r.animationSettings,r.options=it(r.options,r.root,"5c7f360c"),r.animations.map((function(t){var e=it(t.s,r.root,"5c7f360c");for(var i in delete t.s,r.animationSettings||(r.animationSettings=n({},e)),e)e.hasOwnProperty(i)&&(t[i]=e[i])})),(r=function(t,n){if(V=n,!t||!t.root||!Array.isArray(t.animations))return null;for(var r=document.getElementsByTagName("svg"),e=!1,i=0;i<r.length;i++)if(r[i].id===t.root&&!r[i].svgatorAnimation){(e=r[i]).svgatorAnimation=!0;break}if(!e)return null;var o=t.animations.map((function(t){return tt(e,t)})).filter((function(t){return!!t}));return o.length?{element:e,animations:o,animationSettings:t.animationSettings,options:t.options||void 0}:null}(r,e))?{el:r.element,options:r.options||{},player:new t(r.animations,r.animationSettings,r.options)}:null}},{key:"push",value:function(t){return this.build(t)}},{key:"init",value:function(){var t=this,n=window.__SVGATOR_PLAYER__&&window.__SVGATOR_PLAYER__["5c7f360c"];Array.isArray(n)&&n.splice(0).forEach((function(n){return t.build(n)}))}}]),t}();function ut(t){return v(t)+""}function at(t){var n=arguments.length>1&&void 0!==arguments[1]?arguments[1]:" ";return t&&t.length?t.map(ut).join(n):""}function lt(t){return t?null==t.a||t.a>=1?"rgb("+t.r+","+t.g+","+t.b+")":"rgba("+t.r+","+t.g+","+t.b+","+t.a+")":"transparent"}function ft(t){return t?"url(#"+t+")":"none"}!function(){for(var t=0,n=["ms","moz","webkit","o"],r=0;r<n.length&&!window.requestAnimationFrame;++r)window.requestAnimationFrame=window[n[r]+"RequestAnimationFrame"],window.cancelAnimationFrame=window[n[r]+"CancelAnimationFrame"]||window[n[r]+"CancelRequestAnimationFrame"];window.requestAnimationFrame||(window.requestAnimationFrame=function(n){var r=Date.now(),e=Math.max(0,16-(r-t)),i=window.setTimeout((function(){n(r+e)}),e);return t=r+e,i},window.cancelAnimationFrame=window.clearTimeout)}();var st={f:null,i:function(t,n,r){return 0===t?n:1===t?r:{x:F(t,n.x,r.x),y:F(t,n.y,r.y)}},u:function(t,n){return function(r){var e=n(r);t.setAttribute("rx",ut(e.x)),t.setAttribute("ry",ut(e.y))}}},ct={f:null,i:function(t,n,r){return 0===t?n:1===t?r:{width:F(t,n.width,r.width),height:F(t,n.height,r.height)}},u:function(t,n){return function(r){var e=n(r);t.setAttribute("width",ut(e.width)),t.setAttribute("height",ut(e.height))}}};Object.freeze({M:2,L:2,Z:0,H:1,V:1,C:6,Q:4,T:2,S:4,A:7});var ht={},vt=null;function yt(t){var n=function(){if(vt)return vt;if("object"!==("undefined"==typeof document?"undefined":r(document))||!document.createElementNS)return{};var t=document.createElementNS("http://www.w3.org/2000/svg","svg");return t&&t.style?(t.style.position="absolute",t.style.opacity="0.01",t.style.zIndex="-9999",t.style.left="-9999px",t.style.width="1px",t.style.height="1px",vt={svg:t}):{}}().svg;if(!n)return function(t){return null};var e=document.createElementNS(n.namespaceURI,"path");e.setAttributeNS(null,"d",t),e.setAttributeNS(null,"fill","none"),e.setAttributeNS(null,"stroke","none"),n.appendChild(e);var i=e.getTotalLength();return function(t){var n=e.getPointAtLength(i*t);return{x:n.x,y:n.y}}}function gt(t){return ht[t]?ht[t]:ht[t]=yt(t)}function dt(t,n,r,e){if(!t||!e)return!1;var i=["M",t.x,t.y];if(n&&r&&(i.push("C"),i.push(n.x),i.push(n.y),i.push(r.x),i.push(r.y)),n?!r:r){var o=n||r;i.push("Q"),i.push(o.x),i.push(o.y)}return n||r||i.push("L"),i.push(e.x),i.push(e.y),i.join(" ")}function pt(t,n,r,e){var i=arguments.length>4&&void 0!==arguments[4]?arguments[4]:1,o=dt(t,n,r,e),u=gt(o);try{return u(i)}catch(t){return null}}function mt(t,n,r,e){var i=1-e;return i*i*t+2*i*e*n+e*e*r}function bt(t,n,r,e){return 2*(1-e)*(n-t)+2*e*(r-n)}function wt(t,n,r,e){var i=arguments.length>4&&void 0!==arguments[4]&&arguments[4],o=pt(t,n,null,r,e);return o||(o={x:mt(t.x,n.x,r.x,e),y:mt(t.y,n.y,r.y,e)}),i&&(o.a=xt(t,n,r,e)),o}function xt(t,n,r,e){return Math.atan2(bt(t.y,n.y,r.y,e),bt(t.x,n.x,r.x,e))}function At(t,n,r,e,i){var o=i*i;return i*o*(e-t+3*(n-r))+3*o*(t+r-2*n)+3*i*(n-t)+t}function kt(t,n,r,e,i){var o=1-i;return 3*(o*o*(n-t)+2*o*i*(r-n)+i*i*(e-r))}function _t(t,n,r,e,i){var o=arguments.length>5&&void 0!==arguments[5]&&arguments[5],u=pt(t,n,r,e,i);return u||(u={x:At(t.x,n.x,r.x,e.x,i),y:At(t.y,n.y,r.y,e.y,i)}),o&&(u.a=St(t,n,r,e,i)),u}function St(t,n,r,e,i){return Math.atan2(kt(t.y,n.y,r.y,e.y,i),kt(t.x,n.x,r.x,e.x,i))}function Ot(t,n,r){return t+(n-t)*r}function jt(t,n,r){var e=arguments.length>3&&void 0!==arguments[3]&&arguments[3],i={x:Ot(t.x,n.x,r),y:Ot(t.y,n.y,r)};return e&&(i.a=Pt(t,n)),i}function Pt(t,n){return Math.atan2(n.y-t.y,n.x-t.x)}function Mt(t,n,r){var e=arguments.length>3&&void 0!==arguments[3]&&arguments[3];if(Rt(n)){if(It(r))return wt(n,r.start,r,t,e)}else if(Rt(r)){if(n.end)return wt(n,n.end,r,t,e)}else{if(n.end)return r.start?_t(n,n.end,r.start,r,t,e):wt(n,n.end,r,t,e);if(r.start)return wt(n,r.start,r,t,e)}return jt(n,r,t,e)}function Et(t,n,r){var e=Mt(t,n,r,!0);return e.a=function(t){return arguments.length>1&&void 0!==arguments[1]&&arguments[1]?t+Math.PI:t}(e.a)/g,e}function Rt(t){return!t.type||"corner"===t.type}function It(t){return null!=t.start&&!Rt(t)}var Nt=new I;var Bt={f:ut,i:B},Ft={f:ut,i:T};function Tt(t,n,r){return t.map((function(t){return function(t,n,r){var e=t.v;if(!e||"g"!==e.t||e.s||!e.v||!e.r)return t;var i=r.getElementById(e.r),o=i&&i.querySelectorAll("stop")||[];return e.s=e.v.map((function(t,n){var r=o[n]&&o[n].getAttribute("offset");return{c:t,o:r=v(parseInt(r)/100)}})),delete e.v,t}(t,0,r)}))}var qt={gt:"gradientTransform",c:{x:"cx",y:"cy"},rd:"r",f:{x:"x1",y:"y1"},to:{x:"x2",y:"y2"}};function Lt(t,n,e,i,o,u,a,l){return Tt(t,0,l),n=function(t,n,r){for(var e,i,o,u=t.length-1,a={},l=0;l<=u;l++)(e=t[l]).e&&(e.e=n(e.e)),e.v&&"g"===(i=e.v).t&&i.r&&(o=r.getElementById(i.r))&&(a[i.r]={e:o,s:o.querySelectorAll("stop")});return a}(t,i,l),function(i){var o=e(i,t,Ct);if(!o)return"none";if("c"===o.t)return lt(o.v);if("g"===o.t){if(!n[o.r])return ft(o.r);var u=n[o.r];return function(t,n){for(var r=t.s,e=r.length;e<n.length;e++){var i=r[r.length-1].cloneNode();i.id=Vt(i.id),t.e.appendChild(i),r=t.s=t.e.querySelectorAll("stop")}for(var o=0,u=r.length,a=n.length-1;o<u;o++)r[o].setAttribute("stop-color",lt(n[Math.min(o,a)].c)),r[o].setAttribute("offset",n[Math.min(o,a)].o)}(u,o.s),Object.keys(qt).forEach((function(t){if(void 0!==o[t])if("object"!==r(qt[t])){var n,e="gt"===t?(n=o[t],Array.isArray(n)?"matrix("+n.join(" ")+")":""):o[t],i=qt[t];u.e.setAttribute(i,e)}else Object.keys(qt[t]).forEach((function(n){if(void 0!==o[t][n]){var r=o[t][n],e=qt[t][n];u.e.setAttribute(e,r)}}))})),ft(o.r)}return"none"}}function Ct(t,r,e){if(0===t)return r;if(1===t)return e;if(r&&e){var i=r.t;if(i===e.t)switch(r.t){case"c":return{t:i,v:C(t,r.v,e.v)};case"g":if(r.r===e.r){var o={t:i,s:Dt(t,r.s,e.s),r:r.r};return r.gt&&e.gt&&(o.gt=function(t,n,r){var e=n.length;if(e!==r.length)return N(t,n,r);for(var i=new Array(e),o=0;o<e;o++)i[o]=B(t,n[o],r[o]);return i}(t,r.gt,e.gt)),r.c?(o.c=q(t,r.c,e.c),o.rd=F(t,r.rd,e.rd)):r.f&&(o.f=q(t,r.f,e.f),o.to=q(t,r.to,e.to)),o}}if("c"===r.t&&"g"===e.t||"c"===e.t&&"g"===r.t){var u="c"===r.t?r:e,a="g"===r.t?n({},r):n({},e),l=a.s.map((function(t){return{c:u.v,o:t.o}}));return a.s="c"===r.t?Dt(t,l,a.s):Dt(t,a.s,l),a}}return N(t,r,e)}function Dt(t,n,r){if(n.length===r.length)return n.map((function(n,e){return zt(t,n,r[e])}));for(var e=Math.max(n.length,r.length),i=[],o=0;o<e;o++){var u=zt(t,n[Math.min(o,n.length-1)],r[Math.min(o,r.length-1)]);i.push(u)}return i}function zt(t,n,r){return{o:T(t,n.o,r.o||0),c:C(t,n.c,r.c||{})}}function Vt(t){return t.replace(/-fill-([0-9]+)$/,(function(t,n){return"-fill-"+(+n+1)}))}var Gt={fill:Lt,"fill-opacity":Ft,stroke:Lt,"stroke-opacity":Ft,"stroke-width":Bt,"stroke-dashoffset":{f:ut,i:B},"stroke-dasharray":{f:function(t){var n=arguments.length>1&&void 0!==arguments[1]?arguments[1]:" ";return t&&t.length>0&&(t=t.map((function(t){return v(t,4)}))),at(t,n)},i:function(t,n,r){var e,i,o,u=n.length,a=r.length;if(u!==a)if(0===u)n=D(u=a,0);else if(0===a)a=u,r=D(u,0);else{var l=(o=(e=u)*(i=a)/function(t,n){for(var r;n;)r=n,n=t%n,t=r;return t||1}(e,i))<0?-o:o;n=z(n,Math.floor(l/u)),r=z(r,Math.floor(l/a)),u=a=l}for(var f=[],s=0;s<u;s++)f.push(v(F(t,n[s],r[s])));return f}},opacity:Ft,transform:function(t,n,e,i){if(!(t=function(t,n){if(!t||"object"!==r(t))return null;var e=!1;for(var i in t)t.hasOwnProperty(i)&&(t[i]&&t[i].length?(t[i].forEach((function(t){t.e&&(t.e=n(t.e))})),e=!0):delete t[i]);return e?t:null}(t,i)))return null;var o=function(r,i,o){var u=arguments.length>3&&void 0!==arguments[3]?arguments[3]:null;return t[r]?e(i,t[r],o):n&&n[r]?n[r]:u};return n&&n.a&&t.o?function(n){var r=e(n,t.o,Et);return Nt.recomposeSelf(r,o("r",n,B,0)+r.a,o("k",n,q),o("s",n,q),o("t",n,q)).toString()}:function(t){return Nt.recomposeSelf(o("o",t,Mt,null),o("r",t,B,0),o("k",t,q),o("s",t,q),o("t",t,q)).toString()}},r:Bt,"#size":ct,"#radius":st,_:function(t,n){if(Array.isArray(t))for(var r=0;r<t.length;r++)this[t[r]]=n;else this[t]=n}},Yt=function(t){!function(t,n){if("function"!=typeof n&&null!==n)throw new TypeError("Super expression must either be null or a function");t.prototype=Object.create(n&&n.prototype,{constructor:{value:t,writable:!0,configurable:!0}}),n&&l(t,n)}(r,t);var n=s(r);function r(){return e(this,r),n.apply(this,arguments)}return o(r,null,[{key:"build",value:function(t){var n=c(a(r),"build",this).call(this,t,Gt);if(!n)return null;n.el,n.options,function(t,n,r){t.play()}(n.player)}}]),r}(ot);return Yt.init(),Yt}));
(function(s,i,o,w){w[o]=w[o]||{};w[o][s]=w[o][s]||[];w[o][s].push(i);})('5c7f360c',{"root":"e1Ba0QXJMGH1","animations":[{"elements":{"e1Ba0QXJMGH2":{"transform":{"data":{"o":{"x":37.5,"y":37.499994,"type":"corner"},"t":{"x":-26.5165,"y":-26.5165}},"keys":{"r":[{"t":0,"v":45},{"t":500,"v":0},{"t":1000,"v":-45},{"t":1500,"v":-90},{"t":2000,"v":-135}]}}},"e1Ba0QXJMGH3":{"transform":{"data":{"o":{"x":37.364401,"y":37.500002,"type":"corner"},"t":{"x":-24.516501,"y":-24.516502}},"keys":{"r":[{"t":0,"v":0},{"t":500,"v":45.000002},{"t":1000,"v":90},{"t":1500,"v":135},{"t":2000,"v":180}]}}}},"s":"MEDA1M2IzNWFKTjljYWHRhYTk5YWNhMWE3YTYC1YTcyNmE2ODY4Njg2QNEc1YTljQmExYWE5ZMDliYWNhMWE3YTY1YTCcyNjk2NDVhYTFhY0kI5ZGFhRDk5YWNhMUdhWN2E2YWJUNWE3MkQ2ONDY0NWFOOWVDYTFhNGIE0NWE3MjY5NjQ1YTkK5YTRWYWM5ZGFhVmE2IOTlTYWM5ZDVhNzI5ZUTk5YTRhYjlkNjRMNWHFhYmE4OWQ5ZDljNWFAJNzI2OUZiNQ|"}],"options":"MLDAxMDg4MmY4MDgxNmDU3ZjgxMmY0NzJmNzkW3YzZlNzEyZjhh"},'__SVGATOR_PLAYER__',window)]]></script></svg>