<svg width="400" height="256" viewBox="0 0 400 256" fill="none" xmlns="http://www.w3.org/2000/svg">
<path d="M57 167.566H65.5412L57 159.025V167.566ZM90.4948 164.252L102.716 164.135L132.739 134.112L132.623 122.2L102.643 92.1405L90.5469 92.2996L60.5091 122.196L60.5674 134.327L90.4948 164.252ZM135.686 158.672L126.792 167.566H135.686V158.672ZM126.465 88.8802L135.686 98.1009V88.8802H126.465ZM57 88.8802V97.8236L65.9434 88.8802H57Z" fill="#001021" stroke="#001021" stroke-width="10"/>
<path d="M199.168 139.048H208.128C208.597 139.048 208.832 139.347 208.832 139.944V151.208C208.832 152.403 208.235 153 207.04 153H191.552V146.92H197.504C198.187 146.92 198.528 146.856 198.528 146.728C198.571 146.557 198.592 146.365 198.592 146.152V139.752C198.592 139.411 198.635 139.219 198.72 139.176C198.805 139.091 198.955 139.048 199.168 139.048ZM189.312 153H182.592C181.141 153 180.181 152.765 179.712 152.296C179.285 151.827 179.072 150.845 179.072 149.352V110.376C179.072 108.883 179.285 107.901 179.712 107.432C180.181 106.963 181.141 106.728 182.592 106.728H189.312V153ZM241.19 106.728H245.99C249.617 106.728 251.43 108.797 251.43 112.936V129.192C251.43 133.032 249.553 134.952 245.798 134.952H236.966V128.872H239.462C240.23 128.872 240.699 128.744 240.87 128.488C241.083 128.189 241.19 127.699 241.19 127.016V106.728ZM234.406 134.952H232.614C231.846 134.952 231.355 135.101 231.142 135.4C230.971 135.656 230.886 136.125 230.886 136.808V153H225.446C223.355 153 222.033 152.659 221.478 151.976C220.923 151.293 220.646 149.587 220.646 146.856V133.352C220.646 131.475 220.966 130.259 221.606 129.704C222.246 129.149 223.59 128.872 225.638 128.872H234.406V134.952ZM249.83 145.64C250.897 145.64 251.43 146.237 251.43 147.432V153H233.51L233.446 145.64H249.83ZM238.63 112.808H232.55C231.654 112.808 231.099 112.957 230.886 113.256C230.673 113.512 230.566 114.003 230.566 114.728V121.832H223.526C221.947 121.832 221.009 121.704 220.71 121.448C220.454 121.192 220.326 120.403 220.326 119.08V113.576C220.326 111.229 220.667 109.501 221.35 108.392C222.075 107.283 223.633 106.728 226.022 106.728H238.63V112.808ZM286.09 106.728H290.89C294.517 106.728 296.33 108.797 296.33 112.936V129.192C296.33 133.032 294.453 134.952 290.698 134.952H281.866V128.872H284.362C285.13 128.872 285.599 128.744 285.77 128.488C285.983 128.189 286.09 127.699 286.09 127.016V106.728ZM279.306 134.952H277.514C276.746 134.952 276.255 135.101 276.042 135.4C275.871 135.656 275.786 136.125 275.786 136.808V153H270.346C268.255 153 266.933 152.659 266.378 151.976C265.823 151.293 265.546 149.587 265.546 146.856V133.352C265.546 131.475 265.866 130.259 266.506 129.704C267.146 129.149 268.49 128.872 270.538 128.872H279.306V134.952ZM294.73 145.64C295.797 145.64 296.33 146.237 296.33 147.432V153H278.41L278.346 145.64H294.73ZM283.53 112.808H277.45C276.554 112.808 275.999 112.957 275.786 113.256C275.573 113.512 275.466 114.003 275.466 114.728V121.832H268.426C266.847 121.832 265.909 121.704 265.61 121.448C265.354 121.192 265.226 120.403 265.226 119.08V113.576C265.226 111.229 265.567 109.501 266.25 108.392C266.975 107.283 268.533 106.728 270.922 106.728H283.53V112.808ZM331.118 139.048H340.078C340.547 139.048 340.782 139.347 340.782 139.944V151.208C340.782 152.403 340.185 153 338.99 153H323.502V146.92H329.454C330.137 146.92 330.478 146.856 330.478 146.728C330.521 146.557 330.542 146.365 330.542 146.152V139.752C330.542 139.411 330.585 139.219 330.67 139.176C330.755 139.091 330.905 139.048 331.118 139.048ZM321.262 153H314.542C313.091 153 312.131 152.765 311.662 152.296C311.235 151.827 311.022 150.845 311.022 149.352V110.376C311.022 108.883 311.235 107.901 311.662 107.432C312.131 106.963 313.091 106.728 314.542 106.728H321.262V153Z" fill="#001021"/>
<path d="M191.552 153H189.552V155H191.552V153ZM191.552 146.92V144.92H189.552V146.92H191.552ZM198.528 146.728L196.588 146.243L196.528 146.482V146.728H198.528ZM198.72 139.176L199.615 140.965L199.905 140.82L200.134 140.59L198.72 139.176ZM189.312 153V155H191.312V153H189.312ZM179.712 152.296L178.232 153.641L178.264 153.677L178.298 153.71L179.712 152.296ZM179.712 107.432L178.298 106.018L178.264 106.051L178.232 106.087L179.712 107.432ZM189.312 106.728H191.312V104.728H189.312V106.728ZM199.168 141.048H208.128V137.048H199.168V141.048ZM208.128 141.048C208.036 141.048 207.863 141.034 207.655 140.945C207.434 140.852 207.235 140.7 207.083 140.508C206.805 140.153 206.832 139.853 206.832 139.944H210.832C210.832 139.438 210.742 138.689 210.229 138.036C209.643 137.291 208.817 137.048 208.128 137.048V141.048ZM206.832 139.944V151.208H210.832V139.944H206.832ZM206.832 151.208C206.832 151.346 206.814 151.385 206.823 151.36C206.835 151.324 206.875 151.233 206.97 151.138C207.065 151.043 207.156 151.002 207.192 150.991C207.217 150.982 207.178 151 207.04 151V155C207.946 155 208.992 154.772 209.798 153.966C210.604 153.16 210.832 152.114 210.832 151.208H206.832ZM207.04 151H191.552V155H207.04V151ZM193.552 153V146.92H189.552V153H193.552ZM191.552 148.92H197.504V144.92H191.552V148.92ZM197.504 148.92C197.875 148.92 198.282 148.905 198.641 148.838C198.802 148.808 199.118 148.739 199.445 148.555C199.756 148.38 200.528 147.819 200.528 146.728H196.528C196.528 145.701 197.258 145.196 197.484 145.069C197.619 144.992 197.731 144.954 197.788 144.936C197.848 144.917 197.89 144.909 197.904 144.906C197.921 144.903 197.816 144.92 197.504 144.92V148.92ZM200.468 147.213C200.558 146.854 200.592 146.496 200.592 146.152H196.592C196.592 146.235 196.583 146.26 196.588 146.243L200.468 147.213ZM200.592 146.152V139.752H196.592V146.152H200.592ZM200.592 139.752C200.592 139.637 200.602 139.673 200.576 139.786C200.564 139.843 200.525 140.001 200.42 140.194C200.316 140.384 200.078 140.733 199.615 140.965L197.826 137.387C197.319 137.64 197.044 138.029 196.908 138.278C196.771 138.53 196.706 138.765 196.672 138.918C196.604 139.223 196.592 139.525 196.592 139.752H200.592ZM200.134 140.59C199.877 140.847 199.606 140.957 199.446 141.003C199.289 141.048 199.183 141.048 199.168 141.048V137.048C198.799 137.048 197.967 137.101 197.306 137.762L200.134 140.59ZM189.312 151H182.592V155H189.312V151ZM182.592 151C181.96 151 181.53 150.947 181.259 150.881C180.972 150.811 181.005 150.761 181.126 150.882L178.298 153.71C178.888 154.301 179.636 154.602 180.309 154.767C180.999 154.935 181.774 155 182.592 155V151ZM181.192 150.951C181.314 151.085 181.258 151.112 181.186 150.783C181.121 150.482 181.072 150.018 181.072 149.352H177.072C177.072 150.18 177.13 150.953 177.278 151.633C177.42 152.285 177.683 153.037 178.232 153.641L181.192 150.951ZM181.072 149.352V110.376H177.072V149.352H181.072ZM181.072 110.376C181.072 109.71 181.121 109.246 181.186 108.945C181.258 108.616 181.314 108.643 181.192 108.777L178.232 106.087C177.683 106.691 177.42 107.443 177.278 108.095C177.13 108.775 177.072 109.548 177.072 110.376H181.072ZM181.126 108.846C181.005 108.967 180.972 108.917 181.259 108.847C181.53 108.781 181.96 108.728 182.592 108.728V104.728C181.774 104.728 180.999 104.793 180.309 104.961C179.636 105.126 178.888 105.427 178.298 106.018L181.126 108.846ZM182.592 108.728H189.312V104.728H182.592V108.728ZM187.312 106.728V153H191.312V106.728H187.312ZM241.19 106.728V104.728H239.19V106.728H241.19ZM236.966 134.952H234.966V136.952H236.966V134.952ZM236.966 128.872V126.872H234.966V128.872H236.966ZM240.87 128.488L239.243 127.326L239.224 127.352L239.206 127.379L240.87 128.488ZM234.406 134.952V136.952H236.406V134.952H234.406ZM231.142 135.4L229.515 134.238L229.496 134.264L229.478 134.291L231.142 135.4ZM230.886 153V155H232.886V153H230.886ZM221.478 151.976L219.926 153.237L219.926 153.237L221.478 151.976ZM221.606 129.704L220.296 128.193L220.296 128.193L221.606 129.704ZM234.406 128.872H236.406V126.872H234.406V128.872ZM251.43 153V155H253.43V153H251.43ZM233.51 153L231.51 153.017L231.527 155H233.51V153ZM233.446 145.64V143.64H231.429L231.446 145.657L233.446 145.64ZM238.63 112.808V114.808H240.63V112.808H238.63ZM230.886 113.256L232.423 114.536L232.47 114.479L232.514 114.418L230.886 113.256ZM230.566 121.832V123.832H232.566V121.832H230.566ZM220.71 121.448L219.296 122.862L219.35 122.917L219.409 122.967L220.71 121.448ZM221.35 108.392L219.676 107.298L219.661 107.32L219.647 107.344L221.35 108.392ZM238.63 106.728H240.63V104.728H238.63V106.728ZM241.19 108.728H245.99V104.728H241.19V108.728ZM245.99 108.728C247.421 108.728 248.151 109.124 248.566 109.598C249.025 110.122 249.43 111.115 249.43 112.936H253.43C253.43 110.618 252.928 108.507 251.574 106.962C250.176 105.367 248.185 104.728 245.99 104.728V108.728ZM249.43 112.936V129.192H253.43V112.936H249.43ZM249.43 129.192C249.43 130.815 249.033 131.663 248.592 132.114C248.159 132.557 247.356 132.952 245.798 132.952V136.952C247.995 136.952 250.008 136.387 251.452 134.91C252.888 133.441 253.43 131.409 253.43 129.192H249.43ZM245.798 132.952H236.966V136.952H245.798V132.952ZM238.966 134.952V128.872H234.966V134.952H238.966ZM236.966 130.872H239.462V126.872H236.966V130.872ZM239.462 130.872C239.934 130.872 240.441 130.835 240.916 130.706C241.36 130.584 242.063 130.304 242.534 129.597L239.206 127.379C239.359 127.149 239.536 127.013 239.657 126.941C239.773 126.871 239.855 126.849 239.864 126.846C239.876 126.843 239.851 126.851 239.776 126.859C239.704 126.866 239.601 126.872 239.462 126.872V130.872ZM242.498 129.65C243.086 128.827 243.19 127.807 243.19 127.016H239.19C239.19 127.262 239.17 127.405 239.156 127.471C239.14 127.543 239.145 127.463 239.243 127.326L242.498 129.65ZM243.19 127.016V106.728H239.19V127.016H243.19ZM234.406 132.952H232.614V136.952H234.406V132.952ZM232.614 132.952C232.121 132.952 231.591 132.998 231.088 133.151C230.585 133.304 229.962 133.611 229.515 134.238L232.77 136.562C232.536 136.89 232.265 136.974 232.252 136.977C232.239 136.981 232.26 136.974 232.326 136.966C232.391 136.958 232.485 136.952 232.614 136.952V132.952ZM229.478 134.291C229.181 134.736 229.05 135.215 228.982 135.586C228.911 135.977 228.886 136.393 228.886 136.808H232.886C232.886 136.54 232.904 136.38 232.918 136.302C232.924 136.265 232.927 136.268 232.916 136.298C232.906 136.326 232.875 136.406 232.806 136.509L229.478 134.291ZM228.886 136.808V153H232.886V136.808H228.886ZM230.886 151H225.446V155H230.886V151ZM225.446 151C224.49 151 223.822 150.92 223.386 150.807C222.924 150.688 222.926 150.586 223.03 150.715L219.926 153.237C220.585 154.049 221.525 154.458 222.386 154.681C223.273 154.909 224.311 155 225.446 155V151ZM223.03 150.715C223.099 150.8 222.955 150.646 222.828 149.863C222.714 149.158 222.646 148.168 222.646 146.856H218.646C218.646 148.275 218.717 149.503 218.88 150.505C219.03 151.429 219.302 152.469 219.926 153.237L223.03 150.715ZM222.646 146.856V133.352H218.646V146.856H222.646ZM222.646 133.352C222.646 132.51 222.72 131.923 222.82 131.541C222.925 131.144 223.015 131.13 222.916 131.215L220.296 128.193C219.557 128.833 219.168 129.704 218.952 130.523C218.732 131.357 218.646 132.317 218.646 133.352H222.646ZM222.916 131.215C222.864 131.26 222.975 131.147 223.498 131.039C223.99 130.937 224.69 130.872 225.638 130.872V126.872C224.538 126.872 223.543 126.945 222.69 127.121C221.869 127.291 220.988 127.593 220.296 128.193L222.916 131.215ZM225.638 130.872H234.406V126.872H225.638V130.872ZM232.406 128.872V134.952H236.406V128.872H232.406ZM249.83 147.64C249.915 147.64 249.902 147.652 249.831 147.626C249.747 147.595 249.635 147.529 249.538 147.42C249.445 147.316 249.416 147.23 249.413 147.219C249.412 147.214 249.43 147.276 249.43 147.432H253.43C253.43 146.579 253.245 145.565 252.522 144.756C251.761 143.904 250.734 143.64 249.83 143.64V147.64ZM249.43 147.432V153H253.43V147.432H249.43ZM251.43 151H233.51V155H251.43V151ZM235.51 152.983L235.446 145.623L231.446 145.657L231.51 153.017L235.51 152.983ZM233.446 147.64H249.83V143.64H233.446V147.64ZM238.63 110.808H232.55V114.808H238.63V110.808ZM232.55 110.808C232.013 110.808 231.456 110.85 230.942 110.989C230.456 111.12 229.75 111.406 229.259 112.094L232.514 114.418C232.372 114.617 232.215 114.731 232.118 114.788C232.024 114.842 231.967 114.855 231.982 114.851C231.994 114.848 232.045 114.836 232.147 114.825C232.247 114.815 232.38 114.808 232.55 114.808V110.808ZM229.35 111.976C228.959 112.445 228.782 112.977 228.692 113.391C228.598 113.823 228.566 114.28 228.566 114.728H232.566C232.566 114.595 232.571 114.487 232.578 114.403C232.586 114.318 232.595 114.266 232.6 114.241C232.606 114.215 232.605 114.233 232.584 114.28C232.564 114.327 232.517 114.423 232.423 114.536L229.35 111.976ZM228.566 114.728V121.832H232.566V114.728H228.566ZM230.566 119.832H223.526V123.832H230.566V119.832ZM223.526 119.832C222.776 119.832 222.249 119.801 221.908 119.754C221.738 119.731 221.66 119.71 221.647 119.706C221.606 119.693 221.788 119.737 222.012 119.929L219.409 122.967C219.782 123.287 220.193 123.443 220.461 123.526C220.757 123.618 221.069 123.677 221.368 123.718C221.966 123.799 222.697 123.832 223.526 123.832V119.832ZM222.124 120.034C222.346 120.255 222.416 120.457 222.419 120.466C222.43 120.495 222.416 120.465 222.396 120.344C222.357 120.101 222.326 119.694 222.326 119.08H218.326C218.326 119.789 218.359 120.438 218.448 120.984C218.492 121.258 218.558 121.556 218.665 121.846C218.764 122.116 218.946 122.513 219.296 122.862L222.124 120.034ZM222.326 119.08V113.576H218.326V119.08H222.326ZM222.326 113.576C222.326 111.344 222.665 110.071 223.053 109.44L219.647 107.344C218.67 108.932 218.326 111.115 218.326 113.576H222.326ZM223.024 109.486C223.162 109.275 223.778 108.728 226.022 108.728V104.728C223.488 104.728 220.989 105.29 219.676 107.298L223.024 109.486ZM226.022 108.728H238.63V104.728H226.022V108.728ZM236.63 106.728V112.808H240.63V106.728H236.63ZM286.09 106.728V104.728H284.09V106.728H286.09ZM281.866 134.952H279.866V136.952H281.866V134.952ZM281.866 128.872V126.872H279.866V128.872H281.866ZM285.77 128.488L284.143 127.326L284.124 127.352L284.106 127.379L285.77 128.488ZM279.306 134.952V136.952H281.306V134.952H279.306ZM276.042 135.4L274.415 134.238L274.396 134.264L274.378 134.291L276.042 135.4ZM275.786 153V155H277.786V153H275.786ZM266.378 151.976L264.826 153.237L264.826 153.237L266.378 151.976ZM266.506 129.704L265.196 128.193L265.196 128.193L266.506 129.704ZM279.306 128.872H281.306V126.872H279.306V128.872ZM296.33 153V155H298.33V153H296.33ZM278.41 153L276.41 153.017L276.427 155H278.41V153ZM278.346 145.64V143.64H276.329L276.346 145.657L278.346 145.64ZM283.53 112.808V114.808H285.53V112.808H283.53ZM275.786 113.256L277.323 114.536L277.37 114.479L277.414 114.418L275.786 113.256ZM275.466 121.832V123.832H277.466V121.832H275.466ZM265.61 121.448L264.196 122.862L264.25 122.917L264.309 122.967L265.61 121.448ZM266.25 108.392L264.576 107.298L264.561 107.32L264.547 107.344L266.25 108.392ZM283.53 106.728H285.53V104.728H283.53V106.728ZM286.09 108.728H290.89V104.728H286.09V108.728ZM290.89 108.728C292.321 108.728 293.051 109.124 293.466 109.598C293.925 110.122 294.33 111.115 294.33 112.936H298.33C298.33 110.618 297.828 108.507 296.474 106.962C295.076 105.367 293.085 104.728 290.89 104.728V108.728ZM294.33 112.936V129.192H298.33V112.936H294.33ZM294.33 129.192C294.33 130.815 293.933 131.663 293.492 132.114C293.059 132.557 292.256 132.952 290.698 132.952V136.952C292.895 136.952 294.908 136.387 296.352 134.91C297.788 133.441 298.33 131.409 298.33 129.192H294.33ZM290.698 132.952H281.866V136.952H290.698V132.952ZM283.866 134.952V128.872H279.866V134.952H283.866ZM281.866 130.872H284.362V126.872H281.866V130.872ZM284.362 130.872C284.834 130.872 285.341 130.835 285.816 130.706C286.26 130.584 286.963 130.304 287.434 129.597L284.106 127.379C284.259 127.149 284.436 127.013 284.557 126.941C284.673 126.871 284.755 126.849 284.764 126.846C284.776 126.843 284.751 126.851 284.676 126.859C284.604 126.866 284.501 126.872 284.362 126.872V130.872ZM287.398 129.65C287.986 128.827 288.09 127.807 288.09 127.016H284.09C284.09 127.262 284.07 127.405 284.056 127.471C284.04 127.543 284.045 127.463 284.143 127.326L287.398 129.65ZM288.09 127.016V106.728H284.09V127.016H288.09ZM279.306 132.952H277.514V136.952H279.306V132.952ZM277.514 132.952C277.021 132.952 276.491 132.998 275.988 133.151C275.485 133.304 274.862 133.611 274.415 134.238L277.67 136.562C277.436 136.89 277.165 136.974 277.152 136.977C277.139 136.981 277.16 136.974 277.226 136.966C277.291 136.958 277.385 136.952 277.514 136.952V132.952ZM274.378 134.291C274.081 134.736 273.95 135.215 273.882 135.586C273.811 135.977 273.786 136.393 273.786 136.808H277.786C277.786 136.54 277.804 136.38 277.818 136.302C277.824 136.265 277.827 136.268 277.816 136.298C277.806 136.326 277.775 136.406 277.706 136.509L274.378 134.291ZM273.786 136.808V153H277.786V136.808H273.786ZM275.786 151H270.346V155H275.786V151ZM270.346 151C269.39 151 268.722 150.92 268.286 150.807C267.824 150.688 267.826 150.586 267.93 150.715L264.826 153.237C265.485 154.049 266.425 154.458 267.286 154.681C268.173 154.909 269.211 155 270.346 155V151ZM267.93 150.715C267.999 150.8 267.855 150.646 267.728 149.863C267.614 149.158 267.546 148.168 267.546 146.856H263.546C263.546 148.275 263.617 149.503 263.78 150.505C263.93 151.429 264.202 152.469 264.826 153.237L267.93 150.715ZM267.546 146.856V133.352H263.546V146.856H267.546ZM267.546 133.352C267.546 132.51 267.62 131.923 267.72 131.541C267.825 131.144 267.915 131.13 267.816 131.215L265.196 128.193C264.457 128.833 264.068 129.704 263.852 130.523C263.632 131.357 263.546 132.317 263.546 133.352H267.546ZM267.816 131.215C267.764 131.26 267.875 131.147 268.398 131.039C268.89 130.937 269.59 130.872 270.538 130.872V126.872C269.438 126.872 268.443 126.945 267.59 127.121C266.769 127.291 265.888 127.593 265.196 128.193L267.816 131.215ZM270.538 130.872H279.306V126.872H270.538V130.872ZM277.306 128.872V134.952H281.306V128.872H277.306ZM294.73 147.64C294.815 147.64 294.802 147.652 294.731 147.626C294.647 147.595 294.535 147.529 294.438 147.42C294.345 147.316 294.317 147.23 294.313 147.219C294.312 147.214 294.33 147.276 294.33 147.432H298.33C298.33 146.579 298.145 145.565 297.422 144.756C296.661 143.904 295.634 143.64 294.73 143.64V147.64ZM294.33 147.432V153H298.33V147.432H294.33ZM296.33 151H278.41V155H296.33V151ZM280.41 152.983L280.346 145.623L276.346 145.657L276.41 153.017L280.41 152.983ZM278.346 147.64H294.73V143.64H278.346V147.64ZM283.53 110.808H277.45V114.808H283.53V110.808ZM277.45 110.808C276.913 110.808 276.356 110.85 275.842 110.989C275.356 111.12 274.65 111.406 274.159 112.094L277.414 114.418C277.272 114.617 277.115 114.731 277.018 114.788C276.924 114.842 276.867 114.855 276.882 114.851C276.894 114.848 276.945 114.836 277.047 114.825C277.147 114.815 277.28 114.808 277.45 114.808V110.808ZM274.25 111.976C273.859 112.445 273.682 112.977 273.592 113.391C273.498 113.823 273.466 114.28 273.466 114.728H277.466C277.466 114.595 277.471 114.487 277.478 114.403C277.486 114.318 277.495 114.266 277.5 114.241C277.506 114.215 277.505 114.233 277.484 114.28C277.464 114.327 277.417 114.423 277.323 114.536L274.25 111.976ZM273.466 114.728V121.832H277.466V114.728H273.466ZM275.466 119.832H268.426V123.832H275.466V119.832ZM268.426 119.832C267.676 119.832 267.149 119.801 266.808 119.754C266.638 119.731 266.56 119.71 266.547 119.706C266.506 119.693 266.688 119.737 266.912 119.929L264.309 122.967C264.682 123.287 265.093 123.443 265.361 123.526C265.657 123.618 265.969 123.677 266.268 123.718C266.866 123.799 267.597 123.832 268.426 123.832V119.832ZM267.024 120.034C267.246 120.255 267.316 120.457 267.319 120.466C267.33 120.495 267.316 120.465 267.296 120.344C267.257 120.101 267.226 119.694 267.226 119.08H263.226C263.226 119.789 263.259 120.438 263.348 120.984C263.392 121.258 263.458 121.556 263.565 121.846C263.664 122.116 263.846 122.513 264.196 122.862L267.024 120.034ZM267.226 119.08V113.576H263.226V119.08H267.226ZM267.226 113.576C267.226 111.344 267.565 110.071 267.953 109.44L264.547 107.344C263.57 108.932 263.226 111.115 263.226 113.576H267.226ZM267.924 109.486C268.062 109.275 268.678 108.728 270.922 108.728V104.728C268.388 104.728 265.889 105.29 264.576 107.298L267.924 109.486ZM270.922 108.728H283.53V104.728H270.922V108.728ZM281.53 106.728V112.808H285.53V106.728H281.53ZM323.502 153H321.502V155H323.502V153ZM323.502 146.92V144.92H321.502V146.92H323.502ZM330.478 146.728L328.538 146.243L328.478 146.482V146.728H330.478ZM330.67 139.176L331.565 140.965L331.855 140.82L332.084 140.59L330.67 139.176ZM321.262 153V155H323.262V153H321.262ZM311.662 152.296L310.182 153.641L310.214 153.677L310.248 153.71L311.662 152.296ZM311.662 107.432L310.248 106.018L310.214 106.051L310.182 106.087L311.662 107.432ZM321.262 106.728H323.262V104.728H321.262V106.728ZM331.118 141.048H340.078V137.048H331.118V141.048ZM340.078 141.048C339.986 141.048 339.813 141.034 339.605 140.945C339.384 140.852 339.185 140.7 339.033 140.508C338.755 140.153 338.782 139.853 338.782 139.944H342.782C342.782 139.438 342.692 138.689 342.179 138.036C341.593 137.291 340.767 137.048 340.078 137.048V141.048ZM338.782 139.944V151.208H342.782V139.944H338.782ZM338.782 151.208C338.782 151.346 338.764 151.385 338.773 151.36C338.785 151.324 338.825 151.233 338.92 151.138C339.015 151.043 339.106 151.002 339.142 150.991C339.167 150.982 339.128 151 338.99 151V155C339.896 155 340.942 154.772 341.748 153.966C342.554 153.16 342.782 152.114 342.782 151.208H338.782ZM338.99 151H323.502V155H338.99V151ZM325.502 153V146.92H321.502V153H325.502ZM323.502 148.92H329.454V144.92H323.502V148.92ZM329.454 148.92C329.825 148.92 330.232 148.905 330.591 148.838C330.752 148.808 331.068 148.739 331.395 148.555C331.706 148.38 332.478 147.819 332.478 146.728H328.478C328.478 145.701 329.208 145.196 329.434 145.069C329.569 144.992 329.681 144.954 329.738 144.936C329.798 144.917 329.84 144.909 329.854 144.906C329.871 144.903 329.766 144.92 329.454 144.92V148.92ZM332.418 147.213C332.508 146.854 332.542 146.496 332.542 146.152H328.542C328.542 146.235 328.533 146.26 328.538 146.243L332.418 147.213ZM332.542 146.152V139.752H328.542V146.152H332.542ZM332.542 139.752C332.542 139.637 332.552 139.673 332.526 139.786C332.514 139.843 332.475 140.001 332.37 140.194C332.266 140.384 332.028 140.733 331.565 140.965L329.776 137.387C329.269 137.64 328.994 138.029 328.858 138.278C328.721 138.53 328.656 138.765 328.622 138.918C328.554 139.223 328.542 139.525 328.542 139.752H332.542ZM332.084 140.59C331.827 140.847 331.556 140.957 331.396 141.003C331.239 141.048 331.133 141.048 331.118 141.048V137.048C330.749 137.048 329.917 137.101 329.256 137.762L332.084 140.59ZM321.262 151H314.542V155H321.262V151ZM314.542 151C313.91 151 313.48 150.947 313.209 150.881C312.922 150.811 312.955 150.761 313.076 150.882L310.248 153.71C310.838 154.301 311.586 154.602 312.259 154.767C312.949 154.935 313.724 155 314.542 155V151ZM313.142 150.951C313.264 151.085 313.208 151.112 313.136 150.783C313.071 150.482 313.022 150.018 313.022 149.352H309.022C309.022 150.18 309.08 150.953 309.228 151.633C309.37 152.285 309.633 153.037 310.182 153.641L313.142 150.951ZM313.022 149.352V110.376H309.022V149.352H313.022ZM313.022 110.376C313.022 109.71 313.071 109.246 313.136 108.945C313.208 108.616 313.264 108.643 313.142 108.777L310.182 106.087C309.633 106.691 309.37 107.443 309.228 108.095C309.08 108.775 309.022 109.548 309.022 110.376H313.022ZM313.076 108.846C312.955 108.967 312.922 108.917 313.209 108.847C313.48 108.781 313.91 108.728 314.542 108.728V104.728C313.724 104.728 312.949 104.793 312.259 104.961C311.586 105.126 310.838 105.427 310.248 106.018L313.076 108.846ZM314.542 108.728H321.262V104.728H314.542V108.728ZM319.262 106.728V153H323.262V106.728H319.262Z" fill="#001021"/>
</svg>
