<svg width="24" height="25" viewBox="0 0 24 25" fill="none" xmlns="http://www.w3.org/2000/svg">
<path d="M2.82989 16.6937C4.49252 18.3582 6.70661 19.3575 9.05507 19.5032C11.4035 19.6488 13.7242 18.931 15.5799 17.4848L21.9652 23.8681C22.1916 24.0868 22.4949 24.2078 22.8097 24.205C23.1246 24.2023 23.4257 24.0761 23.6483 23.8535C23.8709 23.631 23.9972 23.3299 24 23.0152C24.0027 22.7005 23.8817 22.3972 23.663 22.1709L17.2777 15.7875C18.7885 13.8492 19.5028 11.4077 19.2749 8.96093C19.047 6.5142 17.894 4.24653 16.0512 2.6204C14.2083 0.994276 11.8144 0.132173 9.3576 0.209913C6.90079 0.287654 4.56618 1.29938 2.82989 3.03876C1.93273 3.9352 1.22104 4.99956 0.735482 6.17105C0.24992 7.34253 0 8.59818 0 9.86625C0 11.1343 0.24992 12.39 0.735482 13.5615C1.22104 14.7329 1.93273 15.7973 2.82989 16.6937V16.6937ZM4.52765 4.73843C5.71462 3.55184 7.2764 2.81339 8.94692 2.64889C10.6174 2.48439 12.2933 2.90402 13.6891 3.83629C15.0848 4.76856 16.114 6.15578 16.6014 7.76161C17.0887 9.36744 17.0041 11.0925 16.3618 12.6429C15.7195 14.1934 14.5594 15.4732 13.0791 16.2644C11.5988 17.0556 9.88982 17.3092 8.24343 16.982C6.59705 16.6548 5.11508 15.767 4.05002 14.4699C2.98495 13.1729 2.40269 11.5468 2.40244 9.86865C2.39915 8.91508 2.58531 7.97034 2.95013 7.08926C3.31495 6.20818 3.85116 5.4083 4.52765 4.73603V4.73843Z" fill="#001021"/>
</svg>
