<svg width="35" height="35" viewBox="0 0 35 35" fill="none" xmlns="http://www.w3.org/2000/svg">
<path d="M7.29167 5.83333H8.89583C9.23431 4.18748 10.1298 2.70863 11.4315 1.64605C12.7332 0.583465 14.3614 0.00212118 16.0417 0L18.9583 0C20.6386 0.00212118 22.2668 0.583465 23.5685 1.64605C24.8702 2.70863 25.7657 4.18748 26.1042 5.83333H27.7083C29.6415 5.83565 31.4948 6.60462 32.8618 7.97157C34.2287 9.33852 34.9977 11.1918 35 13.125V27.7083C34.9977 29.6415 34.2287 31.4948 32.8618 32.8618C31.4948 34.2287 29.6415 34.9977 27.7083 35H7.29167C5.35851 34.9977 3.50519 34.2287 2.13824 32.8618C0.771284 31.4948 0.00231467 29.6415 -9.53674e-07 27.7083V13.125C0.00231467 11.1918 0.771284 9.33852 2.13824 7.97157C3.50519 6.60462 5.35851 5.83565 7.29167 5.83333V5.83333ZM18.9583 2.91667H16.0417C15.14 2.9204 14.2616 3.20262 13.5265 3.72471C12.7914 4.2468 12.2355 4.98326 11.935 5.83333H23.065C22.7645 4.98326 22.2086 4.2468 21.4735 3.72471C20.7384 3.20262 19.86 2.9204 18.9583 2.91667V2.91667ZM27.7083 8.75H7.29167C6.13134 8.75 5.01854 9.21094 4.19807 10.0314C3.3776 10.8519 2.91667 11.9647 2.91667 13.125V17.5H32.0833V13.125C32.0833 11.9647 31.6224 10.8519 30.8019 10.0314C29.9815 9.21094 28.8687 8.75 27.7083 8.75V8.75ZM7.29167 32.0833H27.7083C28.8687 32.0833 29.9815 31.6224 30.8019 30.8019C31.6224 29.9815 32.0833 28.8687 32.0833 27.7083V20.4167H18.9583V21.875C18.9583 22.2618 18.8047 22.6327 18.5312 22.9062C18.2577 23.1797 17.8868 23.3333 17.5 23.3333C17.1132 23.3333 16.7423 23.1797 16.4688 22.9062C16.1953 22.6327 16.0417 22.2618 16.0417 21.875V20.4167H2.91667V27.7083C2.91667 28.8687 3.3776 29.9815 4.19807 30.8019C5.01854 31.6224 6.13134 32.0833 7.29167 32.0833Z" fill="#FE5F55"/>
</svg>
