<svg width="32" height="33" viewBox="0 0 32 33" fill="none" xmlns="http://www.w3.org/2000/svg">
<g clip-path="url(#clip0)">
<path d="M22.7046 0.909119H9.2955C4.16994 0.909119 0 5.07906 0 10.2046V23.6136C0 28.7392 4.16994 32.9091 9.2955 32.9091H22.7045C27.8301 32.9091 32 28.7392 32 23.6137V10.2046C32 5.07906 27.8301 0.909119 22.7046 0.909119ZM29.5 23.6136C29.5 27.3607 26.4516 30.4091 22.7046 30.4091H9.2955C5.54844 30.4091 2.5 27.3607 2.5 23.6137V10.2046C2.5 6.45756 5.54844 3.40912 9.2955 3.40912H22.7045C26.4516 3.40912 29.5 6.45756 29.5 10.2046V23.6136Z" fill="#001021"/>
<path d="M16 8.28412C11.2441 8.28412 7.375 12.1532 7.375 16.9091C7.375 21.665 11.2441 25.5341 16 25.5341C20.7559 25.5341 24.625 21.665 24.625 16.9091C24.625 12.1532 20.7559 8.28412 16 8.28412ZM16 23.0341C12.6227 23.0341 9.875 20.2864 9.875 16.9091C9.875 13.5318 12.6227 10.7841 16 10.7841C19.3773 10.7841 22.125 13.5318 22.125 16.9091C22.125 20.2864 19.3773 23.0341 16 23.0341Z" fill="#001021"/>
<path d="M24.75 9.40912C25.4404 9.40912 26 8.84948 26 8.15912C26 7.46876 25.4404 6.90912 24.75 6.90912C24.0596 6.90912 23.5 7.46876 23.5 8.15912C23.5 8.84948 24.0596 9.40912 24.75 9.40912Z" fill="#001021"/>
</g>
<defs>
<clipPath id="clip0">
<rect width="32" height="32" fill="white" transform="translate(0 0.909119)"/>
</clipPath>
</defs>
</svg>
