<svg width="33" height="33" viewBox="0 0 33 33" fill="none" xmlns="http://www.w3.org/2000/svg">
<g clip-path="url(#clip0)">
<path d="M12.8038 30.0368C11.4201 30.0368 9.99575 29.9248 8.5629 29.7002C6.03923 29.3042 3.48455 27.9841 2.76165 27.5888L0.865662 26.5522L2.91839 25.8772C5.16228 25.1394 6.52726 24.6816 8.21695 23.9648C6.52506 23.1455 5.22111 21.6716 4.59343 19.7663L4.11589 18.3166L4.50749 18.3764C4.13616 18.0022 3.84294 17.6223 3.61565 17.2768C2.8073 16.049 2.37933 14.5488 2.47039 13.2631L2.56024 11.9978L3.3178 12.2912C2.99822 11.6877 2.76727 11.0432 2.63152 10.3676C2.30071 8.72018 2.57757 6.96993 3.41131 5.43942L4.07122 4.22799L4.95378 5.28805C7.74503 8.64108 11.2804 10.6301 15.4764 11.2124C15.3051 10.031 15.4335 8.89083 15.8585 7.86886C16.3534 6.67892 17.2338 5.66989 18.4037 4.95065C19.703 4.15206 21.2787 3.7651 22.8404 3.86105C24.4974 3.96285 26.0018 4.5837 27.1966 5.65768C27.7801 5.50607 28.21 5.3442 28.7911 5.12545C29.1407 4.99386 29.5372 4.84445 30.0333 4.67355L31.8614 4.04367L30.6693 7.44845C30.7479 7.44186 30.8289 7.43624 30.9136 7.43258L32.8658 7.3442L31.712 8.92111C31.6458 9.01144 31.629 9.03707 31.6055 9.07247C31.5125 9.21261 31.3968 9.38693 29.8131 11.5017C29.4166 12.0312 29.2186 12.7209 29.2554 13.4441C29.3958 16.1921 29.0587 18.6784 28.2528 20.8337C27.4906 22.8728 26.3094 24.6223 24.7425 26.0337C22.8036 27.7797 20.3312 28.9753 17.3937 29.5866C15.9528 29.8864 14.4054 30.0368 12.8038 30.0368V30.0368Z" fill="#001021"/>
</g>
<defs>
<clipPath id="clip0">
<rect width="32" height="32" fill="white" transform="translate(0.865662 0.909119)"/>
</clipPath>
</defs>
</svg>
