<svg width="75" height="75" viewBox="0 0 75 75" fill="none" xmlns="http://www.w3.org/2000/svg">
<path d="M10.8299 26.6701L0 37.5L10.8299 48.3299V26.6701Z" fill="#001021"/>
<path d="M52.5 15H22.5L14.8451 22.6549V52.3451L22.5 60H52.5L59.8856 52.6144L59.8806 22.3806L52.5 15Z" fill="#001021"/>
<path d="M37.5 -2.04603e-06L26.5209 10.9791H48.4791L37.5 -2.04603e-06Z" fill="#001021"/>
<path d="M75 37.5L63.8828 26.3827V48.6173L75 37.5Z" fill="#001021"/>
<path d="M26.5 64L37.5 75L48.5 64H26.5Z" fill="#001021"/>
<path d="M32.2181 31.768H35.5781C35.7541 31.768 35.8421 31.88 35.8421 32.104V36.328C35.8421 36.776 35.6181 37 35.1701 37H29.3621V34.72H31.5941C31.8501 34.72 31.9781 34.696 31.9781 34.648C31.9941 34.584 32.0021 34.512 32.0021 34.432V32.032C32.0021 31.904 32.0181 31.832 32.0501 31.816C32.0821 31.784 32.1381 31.768 32.2181 31.768ZM28.5221 37H26.0021C25.4581 37 25.0981 36.912 24.9221 36.736C24.7621 36.56 24.6821 36.192 24.6821 35.632V21.016C24.6821 20.456 24.7621 20.088 24.9221 19.912C25.0981 19.736 25.4581 19.648 26.0021 19.648H28.5221V37ZM46.7764 19.648H48.5764C49.9364 19.648 50.6164 20.424 50.6164 21.976V28.072C50.6164 29.512 49.9124 30.232 48.5044 30.232H45.1924V27.952H46.1284C46.4164 27.952 46.5924 27.904 46.6564 27.808C46.7364 27.696 46.7764 27.512 46.7764 27.256V19.648ZM44.2324 30.232H43.5604C43.2724 30.232 43.0884 30.288 43.0084 30.4C42.9444 30.496 42.9124 30.672 42.9124 30.928V37H40.8724C40.0884 37 39.5924 36.872 39.3844 36.616C39.1764 36.36 39.0724 35.72 39.0724 34.696V29.632C39.0724 28.928 39.1924 28.472 39.4324 28.264C39.6724 28.056 40.1764 27.952 40.9444 27.952H44.2324V30.232ZM50.0164 34.24C50.4164 34.24 50.6164 34.464 50.6164 34.912V37H43.8964L43.8724 34.24H50.0164ZM45.8164 21.928H43.5364C43.2004 21.928 42.9924 21.984 42.9124 22.096C42.8324 22.192 42.7924 22.376 42.7924 22.648V25.312H40.1524C39.5604 25.312 39.2084 25.264 39.0964 25.168C39.0004 25.072 38.9524 24.776 38.9524 24.28V22.216C38.9524 21.336 39.0804 20.688 39.3364 20.272C39.6084 19.856 40.1924 19.648 41.0884 19.648H45.8164V21.928ZM32.1701 39.648H33.9701C35.3301 39.648 36.0101 40.424 36.0101 41.976V48.072C36.0101 49.512 35.3061 50.232 33.8981 50.232H30.5861V47.952H31.5221C31.8101 47.952 31.9861 47.904 32.0501 47.808C32.1301 47.696 32.1701 47.512 32.1701 47.256V39.648ZM29.6261 50.232H28.9541C28.6661 50.232 28.4821 50.288 28.4021 50.4C28.3381 50.496 28.3061 50.672 28.3061 50.928V57H26.2661C25.4821 57 24.9861 56.872 24.7781 56.616C24.5701 56.36 24.4661 55.72 24.4661 54.696V49.632C24.4661 48.928 24.5861 48.472 24.8261 48.264C25.0661 48.056 25.5701 47.952 26.3381 47.952H29.6261V50.232ZM35.4101 54.24C35.8101 54.24 36.0101 54.464 36.0101 54.912V57H29.2901L29.2661 54.24H35.4101ZM31.2101 41.928H28.9301C28.5941 41.928 28.3861 41.984 28.3061 42.096C28.2261 42.192 28.1861 42.376 28.1861 42.648V45.312H25.5461C24.9541 45.312 24.6021 45.264 24.4901 45.168C24.3941 45.072 24.3461 44.776 24.3461 44.28V42.216C24.3461 41.336 24.4741 40.688 24.7301 40.272C25.0021 39.856 25.5861 39.648 26.4821 39.648H31.2101V41.928ZM47.8556 51.768H51.2156C51.3916 51.768 51.4796 51.88 51.4796 52.104V56.328C51.4796 56.776 51.2556 57 50.8076 57H44.9996V54.72H47.2316C47.4876 54.72 47.6156 54.696 47.6156 54.648C47.6316 54.584 47.6396 54.512 47.6396 54.432V52.032C47.6396 51.904 47.6556 51.832 47.6876 51.816C47.7196 51.784 47.7756 51.768 47.8556 51.768ZM44.1596 57H41.6396C41.0956 57 40.7356 56.912 40.5596 56.736C40.3996 56.56 40.3196 56.192 40.3196 55.632V41.016C40.3196 40.456 40.3996 40.088 40.5596 39.912C40.7356 39.736 41.0956 39.648 41.6396 39.648H44.1596V57Z" fill="#F7F7FF"/>
<path d="M29.3621 37H28.3621V38H29.3621V37ZM29.3621 34.72V33.72H28.3621V34.72H29.3621ZM31.9781 34.648L31.008 34.4055L30.9781 34.5249V34.648H31.9781ZM32.0501 31.816L32.4973 32.7104L32.6425 32.6379L32.7572 32.5231L32.0501 31.816ZM28.5221 37V38H29.5221V37H28.5221ZM24.9221 36.736L24.1822 37.4087L24.1982 37.4263L24.215 37.4431L24.9221 36.736ZM24.9221 19.912L24.215 19.2049L24.1982 19.2217L24.1822 19.2393L24.9221 19.912ZM28.5221 19.648H29.5221V18.648H28.5221V19.648ZM32.2181 32.768H35.5781V30.768H32.2181V32.768ZM35.5781 32.768C35.4391 32.768 35.1798 32.7116 34.9898 32.4698C34.9107 32.3691 34.8745 32.2726 34.8583 32.2104C34.8424 32.1498 34.8421 32.1102 34.8421 32.104H36.8421C36.8421 31.8883 36.8043 31.5421 36.5624 31.2342C36.2845 30.8804 35.8931 30.768 35.5781 30.768V32.768ZM34.8421 32.104V36.328H36.8421V32.104H34.8421ZM34.8421 36.328C34.8421 36.3979 34.8253 36.2666 34.967 36.1249C35.1087 35.9832 35.24 36 35.1701 36V38C35.5483 38 36.0156 37.9048 36.3812 37.5391C36.7469 37.1734 36.8421 36.7061 36.8421 36.328H34.8421ZM35.1701 36H29.3621V38H35.1701V36ZM30.3621 37V34.72H28.3621V37H30.3621ZM29.3621 35.72H31.5941V33.72H29.3621V35.72ZM31.5941 35.72C31.7368 35.72 31.9083 35.7145 32.0664 35.6849C32.1362 35.6718 32.2866 35.6399 32.4444 35.5511C32.5945 35.4666 32.9781 35.1895 32.9781 34.648H30.9781C30.9781 34.1305 31.3457 33.8744 31.4639 33.8079C31.5897 33.7372 31.692 33.7202 31.6978 33.7191C31.7279 33.7135 31.7074 33.72 31.5941 33.72V35.72ZM32.9483 34.8905C32.9878 34.7325 33.0021 34.5771 33.0021 34.432H31.0021C31.0021 34.4389 31.0018 34.4398 31.0022 34.4356C31.0027 34.4313 31.0041 34.4209 31.008 34.4055L32.9483 34.8905ZM33.0021 34.432V32.032H31.0021V34.432H33.0021ZM33.0021 32.032C33.0021 31.9961 33.0056 32.0303 32.9903 32.0989C32.9826 32.1336 32.9616 32.2173 32.907 32.3174C32.8532 32.4161 32.7319 32.5932 32.4973 32.7104L31.6029 30.9216C31.3524 31.0468 31.2171 31.2389 31.1512 31.3596C31.0846 31.4817 31.0536 31.5944 31.0379 31.6651C31.0067 31.8057 31.0021 31.9399 31.0021 32.032H33.0021ZM32.7572 32.5231C32.6234 32.6569 32.4805 32.7159 32.3908 32.7415C32.3032 32.7666 32.239 32.768 32.2181 32.768V30.768C32.0604 30.768 31.6629 30.789 31.343 31.1089L32.7572 32.5231ZM28.5221 36H26.0021V38H28.5221V36ZM26.0021 36C25.7766 36 25.6369 35.981 25.5616 35.9626C25.4783 35.9422 25.5394 35.939 25.6292 36.0289L24.215 37.4431C24.4809 37.709 24.8099 37.8378 25.0867 37.9054C25.3714 37.975 25.6837 38 26.0021 38V36ZM25.6621 36.0633C25.71 36.116 25.729 36.1574 25.732 36.1644C25.7352 36.1716 25.7286 36.1584 25.7193 36.1156C25.6999 36.0262 25.6821 35.8715 25.6821 35.632H23.6821C23.6821 35.9525 23.7044 36.2618 23.7649 36.5404C23.8225 36.8053 23.9343 37.136 24.1822 37.4087L25.6621 36.0633ZM25.6821 35.632V21.016H23.6821V35.632H25.6821ZM25.6821 21.016C25.6821 20.7765 25.6999 20.6218 25.7193 20.5324C25.7286 20.4896 25.7352 20.4764 25.732 20.4836C25.729 20.4906 25.71 20.532 25.6621 20.5847L24.1822 19.2393C23.9343 19.512 23.8225 19.8427 23.7649 20.1076C23.7044 20.3862 23.6821 20.6955 23.6821 21.016H25.6821ZM25.6292 20.6191C25.5394 20.709 25.4783 20.7058 25.5616 20.6854C25.6369 20.667 25.7766 20.648 26.0021 20.648V18.648C25.6837 18.648 25.3714 18.673 25.0867 18.7426C24.8099 18.8102 24.4809 18.939 24.215 19.2049L25.6292 20.6191ZM26.0021 20.648H28.5221V18.648H26.0021V20.648ZM27.5221 19.648V37H29.5221V19.648H27.5221ZM46.7764 19.648V18.648H45.7764V19.648H46.7764ZM45.1924 30.232H44.1924V31.232H45.1924V30.232ZM45.1924 27.952V26.952H44.1924V27.952H45.1924ZM46.6564 27.808L45.8426 27.2268L45.8333 27.2399L45.8243 27.2533L46.6564 27.808ZM44.2324 30.232V31.232H45.2324V30.232H44.2324ZM43.0084 30.4L42.1946 29.8188L42.1853 29.8319L42.1763 29.8453L43.0084 30.4ZM42.9124 37V38H43.9124V37H42.9124ZM39.3844 36.616L38.6083 37.2466L39.3844 36.616ZM39.4324 28.264L38.7774 27.5083L39.4324 28.264ZM44.2324 27.952H45.2324V26.952H44.2324V27.952ZM50.6164 37V38H51.6164V37H50.6164ZM43.8964 37L42.8964 37.0087L42.905 38H43.8964V37ZM43.8724 34.24V33.24H42.8636L42.8724 34.2487L43.8724 34.24ZM45.8164 21.928V22.928H46.8164V21.928H45.8164ZM42.9124 22.096L43.6806 22.7362L43.7045 22.7076L43.7261 22.6772L42.9124 22.096ZM42.7924 25.312V26.312H43.7924V25.312H42.7924ZM39.0964 25.168L38.3893 25.8751L38.4164 25.9023L38.4456 25.9273L39.0964 25.168ZM39.3364 20.272L38.4994 19.7248L38.4919 19.7362L38.4847 19.7479L39.3364 20.272ZM45.8164 19.648H46.8164V18.648H45.8164V19.648ZM46.7764 20.648H48.5764V18.648H46.7764V20.648ZM48.5764 20.648C49.0654 20.648 49.26 20.7814 49.3543 20.8891C49.4707 21.0219 49.6164 21.3241 49.6164 21.976H51.6164C51.6164 21.0759 51.422 20.2141 50.8585 19.5709C50.2728 18.9026 49.4474 18.648 48.5764 18.648V20.648ZM49.6164 21.976V28.072H51.6164V21.976H49.6164ZM49.6164 28.072C49.6164 28.6434 49.4766 28.8873 49.3734 28.9929C49.2742 29.0943 49.0485 29.232 48.5044 29.232V31.232C49.3683 31.232 50.1986 31.0097 50.8034 30.3911C51.4041 29.7767 51.6164 28.9406 51.6164 28.072H49.6164ZM48.5044 29.232H45.1924V31.232H48.5044V29.232ZM46.1924 30.232V27.952H44.1924V30.232H46.1924ZM45.1924 28.952H46.1284V26.952H45.1924V28.952ZM46.1284 28.952C46.3163 28.952 46.5311 28.9376 46.7395 28.8808C46.9321 28.8282 47.2636 28.6999 47.4884 28.3627L45.8243 27.2533C45.9061 27.1307 46.0025 27.0557 46.0729 27.0135C46.141 26.9727 46.1941 26.9565 46.2133 26.9512C46.2456 26.9424 46.2284 26.952 46.1284 26.952V28.952ZM47.4701 28.3892C47.7376 28.0147 47.7764 27.566 47.7764 27.256H45.7764C45.7764 27.2944 45.7749 27.3233 45.773 27.344C45.7711 27.3648 45.7691 27.3739 45.7692 27.3736C45.7692 27.3734 45.7723 27.3591 45.7821 27.3348C45.792 27.3104 45.8105 27.2718 45.8426 27.2268L47.4701 28.3892ZM47.7764 27.256V19.648H45.7764V27.256H47.7764ZM44.2324 29.232H43.5604V31.232H44.2324V29.232ZM43.5604 29.232C43.3616 29.232 43.136 29.2501 42.9152 29.3173C42.6945 29.3845 42.4049 29.5244 42.1946 29.8188L43.8221 30.9812C43.6918 31.1636 43.5343 31.2195 43.4975 31.2307C43.4608 31.2419 43.4711 31.232 43.5604 31.232V29.232ZM42.1763 29.8453C42.0385 30.052 41.9809 30.269 41.9525 30.4251C41.9223 30.5913 41.9124 30.7633 41.9124 30.928H43.9124C43.9124 30.8844 43.9138 30.8504 43.9156 30.8249C43.9176 30.799 43.9197 30.7858 43.9202 30.7829C43.9209 30.7793 43.9187 30.7934 43.9094 30.8198C43.9003 30.8455 43.8802 30.895 43.8404 30.9547L42.1763 29.8453ZM41.9124 30.928V37H43.9124V30.928H41.9124ZM42.9124 36H40.8724V38H42.9124V36ZM40.8724 36C40.5252 36 40.2976 35.9707 40.1623 35.9357C40.0141 35.8975 40.0735 35.8784 40.1605 35.9854L38.6083 37.2466C38.9032 37.6096 39.3146 37.7825 39.6625 37.8723C40.0231 37.9653 40.4356 38 40.8724 38V36ZM40.1605 35.9854C40.2061 36.0416 40.2084 36.0695 40.1923 36.0232C40.1778 35.9817 40.1572 35.9056 40.1374 35.7836C40.0975 35.5379 40.0724 35.1812 40.0724 34.696H38.0724C38.0724 35.2348 38.0993 35.7101 38.1633 36.1044C38.2211 36.4599 38.331 36.9054 38.6083 37.2466L40.1605 35.9854ZM40.0724 34.696V29.632H38.0724V34.696H40.0724ZM40.0724 29.632C40.0724 29.3281 40.0992 29.1315 40.1294 29.0165C40.1617 28.8941 40.1767 28.9422 40.0873 29.0197L38.7774 27.5083C38.4481 27.7938 38.2831 28.1739 38.1953 28.5075C38.1056 28.8485 38.0724 29.2319 38.0724 29.632H40.0724ZM40.0873 29.0197C40.0214 29.0768 40.015 29.046 40.1925 29.0094C40.3541 28.976 40.5986 28.952 40.9444 28.952V26.952C40.5222 26.952 40.1306 26.98 39.7883 27.0506C39.4618 27.118 39.0834 27.2432 38.7774 27.5083L40.0873 29.0197ZM40.9444 28.952H44.2324V26.952H40.9444V28.952ZM43.2324 27.952V30.232H45.2324V27.952H43.2324ZM50.0164 35.24C50.0255 35.24 49.99 35.2416 49.9291 35.2188C49.8624 35.1939 49.7857 35.1471 49.7204 35.074C49.5925 34.9307 49.6164 34.816 49.6164 34.912H51.6164C51.6164 34.56 51.5403 34.1093 51.2123 33.742C50.8651 33.3531 50.4017 33.24 50.0164 33.24V35.24ZM49.6164 34.912V37H51.6164V34.912H49.6164ZM50.6164 36H43.8964V38H50.6164V36ZM44.8963 36.9913L44.8723 34.2313L42.8724 34.2487L42.8964 37.0087L44.8963 36.9913ZM43.8724 35.24H50.0164V33.24H43.8724V35.24ZM45.8164 20.928H43.5364V22.928H45.8164V20.928ZM43.5364 20.928C43.3237 20.928 43.0906 20.9446 42.8684 21.0044C42.6602 21.0604 42.3308 21.1898 42.0986 21.5148L43.7261 22.6772C43.6485 22.7859 43.5611 22.8508 43.5002 22.8863C43.4413 22.9206 43.3983 22.9329 43.3883 22.9356C43.3741 22.9394 43.413 22.928 43.5364 22.928V20.928ZM42.1442 21.4558C41.962 21.6744 41.8835 21.9173 41.8452 22.0936C41.805 22.2786 41.7924 22.4692 41.7924 22.648H43.7924C43.7924 22.6039 43.794 22.571 43.796 22.5479C43.7981 22.5243 43.8002 22.5155 43.7995 22.5184C43.7991 22.5207 43.7941 22.5431 43.779 22.5784C43.7639 22.6137 43.7344 22.6717 43.6806 22.7362L42.1442 21.4558ZM41.7924 22.648V25.312H43.7924V22.648H41.7924ZM42.7924 24.312H40.1524V26.312H42.7924V24.312ZM40.1524 24.312C39.8761 24.312 39.6911 24.3004 39.5795 24.2852C39.5236 24.2775 39.5091 24.272 39.5218 24.2759C39.5293 24.2783 39.5537 24.2862 39.5885 24.3032C39.6219 24.3195 39.6809 24.352 39.7472 24.4087L38.4456 25.9273C38.6229 26.0793 38.8143 26.1505 38.929 26.1861C39.0577 26.226 39.1892 26.2505 39.3093 26.2668C39.5497 26.2996 39.8367 26.312 40.1524 26.312V24.312ZM39.8035 24.4609C39.8664 24.5238 39.9061 24.5835 39.9294 24.6239C39.9529 24.6649 39.9659 24.697 39.972 24.7137C39.9833 24.7442 39.9813 24.7497 39.9755 24.7139C39.9702 24.6815 39.9641 24.6296 39.9595 24.554C39.955 24.4794 39.9524 24.3886 39.9524 24.28H37.9524C37.9524 24.5518 37.965 24.8102 38.0013 25.0341C38.0195 25.1463 38.0475 25.2748 38.0947 25.4033C38.1384 25.5224 38.2225 25.7083 38.3893 25.8751L39.8035 24.4609ZM39.9524 24.28V22.216H37.9524V24.28H39.9524ZM39.9524 22.216C39.9524 21.3932 40.0793 20.9728 40.188 20.7961L38.4847 19.7479C38.0815 20.4032 37.9524 21.2788 37.9524 22.216H39.9524ZM40.1733 20.8192C40.1629 20.8353 40.1759 20.7952 40.3139 20.746C40.4618 20.6934 40.7083 20.648 41.0884 20.648V18.648C40.12 18.648 39.065 18.8597 38.4994 19.7248L40.1733 20.8192ZM41.0884 20.648H45.8164V18.648H41.0884V20.648ZM44.8164 19.648V21.928H46.8164V19.648H44.8164ZM32.1701 39.648V38.648H31.1701V39.648H32.1701ZM30.5861 50.232H29.5861V51.232H30.5861V50.232ZM30.5861 47.952V46.952H29.5861V47.952H30.5861ZM32.0501 47.808L31.2364 47.2268L31.227 47.2399L31.2181 47.2533L32.0501 47.808ZM29.6261 50.232V51.232H30.6261V50.232H29.6261ZM28.4021 50.4L27.5884 49.8188L27.579 49.8319L27.5701 49.8453L28.4021 50.4ZM28.3061 57V58H29.3061V57H28.3061ZM24.7781 56.616L24.002 57.2466L24.7781 56.616ZM24.8261 48.264L24.1712 47.5083H24.1712L24.8261 48.264ZM29.6261 47.952H30.6261V46.952H29.6261V47.952ZM36.0101 57V58H37.0101V57H36.0101ZM29.2901 57L28.2902 57.0087L28.2988 58H29.2901V57ZM29.2661 54.24V53.24H28.2574L28.2662 54.2487L29.2661 54.24ZM31.2101 41.928V42.928H32.2101V41.928H31.2101ZM28.3061 42.096L29.0743 42.7362L29.0982 42.7076L29.1199 42.6772L28.3061 42.096ZM28.1861 45.312V46.312H29.1861V45.312H28.1861ZM24.4901 45.168L23.783 45.8751L23.8102 45.9023L23.8393 45.9273L24.4901 45.168ZM24.7301 40.272L23.8932 39.7248L23.8857 39.7362L23.8785 39.7479L24.7301 40.272ZM31.2101 39.648H32.2101V38.648H31.2101V39.648ZM32.1701 40.648H33.9701V38.648H32.1701V40.648ZM33.9701 40.648C34.4591 40.648 34.6537 40.7814 34.748 40.8891C34.8645 41.0219 35.0101 41.3241 35.0101 41.976H37.0101C37.0101 41.0759 36.8158 40.2141 36.2522 39.5709C35.6665 38.9026 34.8411 38.648 33.9701 38.648V40.648ZM35.0101 41.976V48.072H37.0101V41.976H35.0101ZM35.0101 48.072C35.0101 48.6434 34.8704 48.8873 34.7671 48.9929C34.6679 49.0943 34.4422 49.232 33.8981 49.232V51.232C34.762 51.232 35.5923 51.0097 36.1971 50.3911C36.7979 49.7767 37.0101 48.9406 37.0101 48.072H35.0101ZM33.8981 49.232H30.5861V51.232H33.8981V49.232ZM31.5861 50.232V47.952H29.5861V50.232H31.5861ZM30.5861 48.952H31.5221V46.952H30.5861V48.952ZM31.5221 48.952C31.7101 48.952 31.9249 48.9376 32.1332 48.8808C32.3258 48.8282 32.6574 48.6999 32.8822 48.3627L31.2181 47.2533C31.2998 47.1307 31.3962 47.0557 31.4666 47.0135C31.5347 46.9727 31.5879 46.9565 31.607 46.9512C31.6394 46.9424 31.6222 46.952 31.5221 46.952V48.952ZM32.8639 48.3892C33.1313 48.0147 33.1701 47.566 33.1701 47.256H31.1701C31.1701 47.2944 31.1686 47.3233 31.1667 47.344C31.1648 47.3648 31.1629 47.3739 31.1629 47.3736C31.163 47.3734 31.166 47.3591 31.1759 47.3348C31.1858 47.3104 31.2042 47.2718 31.2364 47.2268L32.8639 48.3892ZM33.1701 47.256V39.648H31.1701V47.256H33.1701ZM29.6261 49.232H28.9541V51.232H29.6261V49.232ZM28.9541 49.232C28.7554 49.232 28.5297 49.2501 28.309 49.3173C28.0882 49.3845 27.7987 49.5244 27.5884 49.8188L29.2159 50.9812C29.0856 51.1636 28.928 51.2195 28.8913 51.2307C28.8545 51.2419 28.8649 51.232 28.9541 51.232V49.232ZM27.5701 49.8453C27.4323 50.052 27.3746 50.269 27.3463 50.4251C27.316 50.5913 27.3061 50.7633 27.3061 50.928H29.3061C29.3061 50.8844 29.3075 50.8504 29.3094 50.8249C29.3113 50.799 29.3135 50.7858 29.314 50.7829C29.3146 50.7793 29.3124 50.7934 29.3031 50.8198C29.294 50.8455 29.274 50.895 29.2342 50.9547L27.5701 49.8453ZM27.3061 50.928V57H29.3061V50.928H27.3061ZM28.3061 56H26.2661V58H28.3061V56ZM26.2661 56C25.9189 56 25.6914 55.9707 25.556 55.9357C25.4079 55.8975 25.4673 55.8784 25.5542 55.9854L24.002 57.2466C24.297 57.6096 24.7084 57.7825 25.0562 57.8723C25.4169 57.9653 25.8293 58 26.2661 58V56ZM25.5542 55.9854C25.5999 56.0416 25.6021 56.0695 25.586 56.0232C25.5716 55.9817 25.551 55.9056 25.5312 55.7836C25.4912 55.5379 25.4661 55.1812 25.4661 54.696H23.4661C23.4661 55.2348 23.493 55.7101 23.5571 56.1044C23.6148 56.4599 23.7248 56.9054 24.002 57.2466L25.5542 55.9854ZM25.4661 54.696V49.632H23.4661V54.696H25.4661ZM25.4661 49.632C25.4661 49.3281 25.4929 49.1315 25.5232 49.0165C25.5554 48.8941 25.5704 48.9422 25.4811 49.0197L24.1712 47.5083C23.8418 47.7938 23.6768 48.1739 23.589 48.5075C23.4993 48.8485 23.4661 49.2319 23.4661 49.632H25.4661ZM25.4811 49.0197C25.4151 49.0768 25.4087 49.046 25.5862 49.0094C25.7479 48.976 25.9923 48.952 26.3381 48.952V46.952C25.9159 46.952 25.5244 46.98 25.182 47.0506C24.8555 47.118 24.4771 47.2432 24.1712 47.5083L25.4811 49.0197ZM26.3381 48.952H29.6261V46.952H26.3381V48.952ZM28.6261 47.952V50.232H30.6261V47.952H28.6261ZM35.4101 55.24C35.4193 55.24 35.3837 55.2416 35.3229 55.2188C35.2562 55.1939 35.1795 55.1471 35.1142 55.074C34.9862 54.9307 35.0101 54.816 35.0101 54.912H37.0101C37.0101 54.56 36.934 54.1093 36.6061 53.742C36.2588 53.3531 35.7954 53.24 35.4101 53.24V55.24ZM35.0101 54.912V57H37.0101V54.912H35.0101ZM36.0101 56H29.2901V58H36.0101V56ZM30.2901 56.9913L30.2661 54.2313L28.2662 54.2487L28.2902 57.0087L30.2901 56.9913ZM29.2661 55.24H35.4101V53.24H29.2661V55.24ZM31.2101 40.928H28.9301V42.928H31.2101V40.928ZM28.9301 40.928C28.7175 40.928 28.4844 40.9446 28.2622 41.0044C28.054 41.0604 27.7245 41.1898 27.4924 41.5148L29.1199 42.6772C29.0422 42.7859 28.9548 42.8508 28.894 42.8863C28.8351 42.9206 28.7921 42.9329 28.7821 42.9356C28.7679 42.9394 28.8068 42.928 28.9301 42.928V40.928ZM27.5379 41.4558C27.3557 41.6744 27.2773 41.9173 27.2389 42.0936C27.1987 42.2786 27.1861 42.4692 27.1861 42.648H29.1861C29.1861 42.6039 29.1878 42.571 29.1898 42.5479C29.1919 42.5243 29.1939 42.5155 29.1933 42.5184C29.1928 42.5207 29.1879 42.5431 29.1728 42.5784C29.1577 42.6137 29.1281 42.6717 29.0743 42.7362L27.5379 41.4558ZM27.1861 42.648V45.312H29.1861V42.648H27.1861ZM28.1861 44.312H25.5461V46.312H28.1861V44.312ZM25.5461 44.312C25.2698 44.312 25.0848 44.3004 24.9732 44.2852C24.9173 44.2775 24.9028 44.272 24.9155 44.2759C24.9231 44.2783 24.9474 44.2862 24.9822 44.3032C25.0157 44.3195 25.0747 44.352 25.1409 44.4087L23.8393 45.9273C24.0167 46.0793 24.2081 46.1505 24.3227 46.1861C24.4514 46.226 24.5829 46.2505 24.703 46.2668C24.9434 46.2996 25.2304 46.312 25.5461 46.312V44.312ZM25.1972 44.4609C25.2602 44.5238 25.2999 44.5835 25.3232 44.6239C25.3467 44.6649 25.3597 44.697 25.3658 44.7137C25.377 44.7442 25.375 44.7497 25.3692 44.7139C25.364 44.6815 25.3579 44.6296 25.3533 44.554C25.3488 44.4794 25.3461 44.3886 25.3461 44.28H23.3461C23.3461 44.5518 23.3587 44.8102 23.395 45.0341C23.4132 45.1463 23.4412 45.2748 23.4885 45.4033C23.5322 45.5224 23.6162 45.7083 23.783 45.8751L25.1972 44.4609ZM25.3461 44.28V42.216H23.3461V44.28H25.3461ZM25.3461 42.216C25.3461 41.3932 25.473 40.9728 25.5818 40.7961L23.8785 39.7479C23.4752 40.4032 23.3461 41.2788 23.3461 42.216H25.3461ZM25.5671 40.8192C25.5566 40.8353 25.5697 40.7952 25.7076 40.746C25.8555 40.6934 26.102 40.648 26.4821 40.648V38.648C25.5137 38.648 24.4588 38.8597 23.8932 39.7248L25.5671 40.8192ZM26.4821 40.648H31.2101V38.648H26.4821V40.648ZM30.2101 39.648V41.928H32.2101V39.648H30.2101ZM44.9996 57H43.9996V58H44.9996V57ZM44.9996 54.72V53.72H43.9996V54.72H44.9996ZM47.6156 54.648L46.6455 54.4055L46.6156 54.5249V54.648H47.6156ZM47.6876 51.816L48.1348 52.7104L48.28 52.6379L48.3947 52.5231L47.6876 51.816ZM44.1596 57V58H45.1596V57H44.1596ZM40.5596 56.736L39.8197 57.4087L39.8357 57.4263L39.8525 57.4431L40.5596 56.736ZM40.5596 39.912L39.8525 39.2049L39.8357 39.2217L39.8197 39.2393L40.5596 39.912ZM44.1596 39.648H45.1596V38.648H44.1596V39.648ZM47.8556 52.768H51.2156V50.768H47.8556V52.768ZM51.2156 52.768C51.0766 52.768 50.8173 52.7116 50.6273 52.4698C50.5482 52.3691 50.5121 52.2726 50.4958 52.2104C50.4799 52.1498 50.4796 52.1102 50.4796 52.104H52.4796C52.4796 51.8883 52.4418 51.5421 52.1999 51.2342C51.922 50.8804 51.5306 50.768 51.2156 50.768V52.768ZM50.4796 52.104V56.328H52.4796V52.104H50.4796ZM50.4796 56.328C50.4796 56.3979 50.4628 56.2666 50.6045 56.1249C50.7462 55.9832 50.8775 56 50.8076 56V58C51.1858 58 51.653 57.9048 52.0187 57.5391C52.3844 57.1734 52.4796 56.7061 52.4796 56.328H50.4796ZM50.8076 56H44.9996V58H50.8076V56ZM45.9996 57V54.72H43.9996V57H45.9996ZM44.9996 55.72H47.2316V53.72H44.9996V55.72ZM47.2316 55.72C47.3743 55.72 47.5458 55.7145 47.7039 55.6849C47.7737 55.6718 47.9241 55.6399 48.0819 55.5511C48.232 55.4666 48.6156 55.1895 48.6156 54.648H46.6156C46.6156 54.1305 46.9832 53.8744 47.1014 53.8079C47.2272 53.7371 47.3295 53.7202 47.3353 53.7191C47.3654 53.7135 47.3449 53.72 47.2316 53.72V55.72ZM48.5858 54.8905C48.6253 54.7325 48.6396 54.5771 48.6396 54.432H46.6396C46.6396 54.4389 46.6393 54.4398 46.6397 54.4356C46.6402 54.4313 46.6416 54.4209 46.6455 54.4055L48.5858 54.8905ZM48.6396 54.432V52.032H46.6396V54.432H48.6396ZM48.6396 52.032C48.6396 51.9961 48.6431 52.0303 48.6278 52.0989C48.6201 52.1336 48.5991 52.2173 48.5445 52.3174C48.4907 52.4161 48.3694 52.5932 48.1348 52.7104L47.2404 50.9216C46.9899 51.0468 46.8546 51.2389 46.7887 51.3596C46.7221 51.4817 46.6911 51.5944 46.6754 51.6651C46.6442 51.8057 46.6396 51.9399 46.6396 52.032H48.6396ZM48.3947 52.5231C48.2609 52.6569 48.118 52.7159 48.0283 52.7415C47.9407 52.7666 47.8765 52.768 47.8556 52.768V50.768C47.6979 50.768 47.3004 50.789 46.9805 51.1089L48.3947 52.5231ZM44.1596 56H41.6396V58H44.1596V56ZM41.6396 56C41.4141 56 41.2744 55.981 41.1991 55.9626C41.1158 55.9422 41.1769 55.939 41.2667 56.0289L39.8525 57.4431C40.1184 57.709 40.4474 57.8378 40.7242 57.9054C41.0089 57.975 41.3212 58 41.6396 58V56ZM41.2996 56.0633C41.3475 56.116 41.3665 56.1574 41.3695 56.1644C41.3727 56.1716 41.3661 56.1584 41.3568 56.1156C41.3374 56.0262 41.3196 55.8715 41.3196 55.632H39.3196C39.3196 55.9525 39.3419 56.2618 39.4024 56.5404C39.46 56.8053 39.5718 57.136 39.8197 57.4087L41.2996 56.0633ZM41.3196 55.632V41.016H39.3196V55.632H41.3196ZM41.3196 41.016C41.3196 40.7765 41.3374 40.6218 41.3568 40.5324C41.3661 40.4896 41.3727 40.4764 41.3695 40.4836C41.3665 40.4906 41.3475 40.532 41.2996 40.5847L39.8197 39.2393C39.5718 39.512 39.46 39.8427 39.4024 40.1076C39.3419 40.3862 39.3196 40.6955 39.3196 41.016H41.3196ZM41.2667 40.6191C41.1769 40.709 41.1158 40.7058 41.1991 40.6854C41.2744 40.667 41.4141 40.648 41.6396 40.648V38.648C41.3212 38.648 41.0089 38.673 40.7242 38.7426C40.4474 38.8102 40.1184 38.939 39.8525 39.2049L41.2667 40.6191ZM41.6396 40.648H44.1596V38.648H41.6396V40.648ZM43.1596 39.648V57H45.1596V39.648H43.1596Z" fill="#F7F7FF"/>
</svg>
