<svg width="16" height="16" viewBox="0 0 16 16" fill="none" xmlns="http://www.w3.org/2000/svg">
<path d="M3.33333 1.33333H4V0.666667C4 0.489856 4.07024 0.320286 4.19526 0.195262C4.32029 0.0702379 4.48986 0 4.66667 0C4.84348 0 5.01305 0.0702379 5.13807 0.195262C5.2631 0.320286 5.33333 0.489856 5.33333 0.666667V1.33333H10.6667V0.666667C10.6667 0.489856 10.7369 0.320286 10.8619 0.195262C10.987 0.0702379 11.1565 0 11.3333 0C11.5101 0 11.6797 0.0702379 11.8047 0.195262C11.9298 0.320286 12 0.489856 12 0.666667V1.33333H12.6667C13.5504 1.33439 14.3976 1.68592 15.0225 2.31081C15.6474 2.93571 15.9989 3.78294 16 4.66667L16 12.6667C15.9989 13.5504 15.6474 14.3976 15.0225 15.0225C14.3976 15.6474 13.5504 15.9989 12.6667 16H3.33333C2.4496 15.9989 1.60237 15.6474 0.977479 15.0225C0.352587 14.3976 0.00105762 13.5504 0 12.6667V4.66667C0.00105762 3.78294 0.352587 2.93571 0.977479 2.31081C1.60237 1.68592 2.4496 1.33439 3.33333 1.33333ZM14.6667 4.66667C14.6667 4.13623 14.456 3.62753 14.0809 3.25245C13.7058 2.87738 13.1971 2.66667 12.6667 2.66667H3.33333C2.8029 2.66667 2.29419 2.87738 1.91912 3.25245C1.54405 3.62753 1.33333 4.13623 1.33333 4.66667V5.33333H14.6667V4.66667ZM3.33333 14.6667H12.6667C13.1971 14.6667 13.7058 14.456 14.0809 14.0809C14.456 13.7058 14.6667 13.1971 14.6667 12.6667V6.66667H1.33333V12.6667C1.33333 13.1971 1.54405 13.7058 1.91912 14.0809C2.29419 14.456 2.8029 14.6667 3.33333 14.6667Z" fill="#577399"/>
<path d="M8 11C7.44772 11 7 10.5523 7 10C7 9.44772 7.44772 9 8 9C8.55228 9 9 9.44772 9 10C9 10.5523 8.55228 11 8 11Z" fill="#577399"/>
<path d="M11.3333 11C10.781 11 10.3333 10.5523 10.3333 10C10.3333 9.44772 10.781 9 11.3333 9C11.8855 9 12.3333 9.44772 12.3333 10C12.3333 10.5523 11.8855 11 11.3333 11Z" fill="#577399"/>
<path d="M4.66675 11C4.11446 11 3.66675 10.5523 3.66675 10C3.66675 9.44772 4.11446 9 4.66675 9C5.21903 9 5.66675 9.44772 5.66675 10C5.66675 10.5523 5.21903 11 4.66675 11Z" fill="#577399"/>
</svg>
