<svg width="75" height="75" viewBox="0 0 75 75" fill="none" xmlns="http://www.w3.org/2000/svg">
<rect y="37.5" width="53.033" height="53.033" transform="rotate(-45 0 37.5)" fill="#001021"/>
<rect x="12.8479" y="12.9835" width="49.033" height="49.033" stroke="#F7F7FF" stroke-width="4"/>
<path d="M32.2181 31.7679H35.5781C35.7541 31.7679 35.8421 31.8799 35.8421 32.1039V36.3279C35.8421 36.7759 35.6181 36.9999 35.1701 36.9999H29.3621V34.7199H31.5941C31.8501 34.7199 31.9781 34.6959 31.9781 34.6479C31.9941 34.5839 32.0021 34.5119 32.0021 34.4319V32.0319C32.0021 31.9039 32.0181 31.8319 32.0501 31.8159C32.0821 31.7839 32.1381 31.7679 32.2181 31.7679ZM28.5221 36.9999H26.0021C25.4581 36.9999 25.0981 36.9119 24.9221 36.7359C24.7621 36.5599 24.6821 36.1919 24.6821 35.6319V21.0159C24.6821 20.4559 24.7621 20.0879 24.9221 19.9119C25.0981 19.7359 25.4581 19.6479 26.0021 19.6479H28.5221V36.9999ZM46.7764 19.6479H48.5764C49.9364 19.6479 50.6164 20.4239 50.6164 21.9759V28.0719C50.6164 29.5119 49.9124 30.2319 48.5044 30.2319H45.1924V27.9519H46.1284C46.4164 27.9519 46.5924 27.9039 46.6564 27.8079C46.7364 27.6959 46.7764 27.5119 46.7764 27.2559V19.6479ZM44.2324 30.2319H43.5604C43.2724 30.2319 43.0884 30.2879 43.0084 30.3999C42.9444 30.4959 42.9124 30.6719 42.9124 30.9279V36.9999H40.8724C40.0884 36.9999 39.5924 36.8719 39.3844 36.6159C39.1764 36.3599 39.0724 35.7199 39.0724 34.6959V29.6319C39.0724 28.9279 39.1924 28.4719 39.4324 28.2639C39.6724 28.0559 40.1764 27.9519 40.9444 27.9519H44.2324V30.2319ZM50.0164 34.2399C50.4164 34.2399 50.6164 34.4639 50.6164 34.9119V36.9999H43.8964L43.8724 34.2399H50.0164ZM45.8164 21.9279H43.5364C43.2004 21.9279 42.9924 21.9839 42.9124 22.0959C42.8324 22.1919 42.7924 22.3759 42.7924 22.6479V25.3119H40.1524C39.5604 25.3119 39.2084 25.2639 39.0964 25.1679C39.0004 25.0719 38.9524 24.7759 38.9524 24.2799V22.2159C38.9524 21.3359 39.0804 20.6879 39.3364 20.2719C39.6084 19.8559 40.1924 19.6479 41.0884 19.6479H45.8164V21.9279ZM32.1701 39.6479H33.9701C35.3301 39.6479 36.0101 40.4239 36.0101 41.9759V48.0719C36.0101 49.5119 35.3061 50.2319 33.8981 50.2319H30.5861V47.9519H31.5221C31.8101 47.9519 31.9861 47.9039 32.0501 47.8079C32.1301 47.6959 32.1701 47.5119 32.1701 47.2559V39.6479ZM29.6261 50.2319H28.9541C28.6661 50.2319 28.4821 50.2879 28.4021 50.3999C28.3381 50.4959 28.3061 50.6719 28.3061 50.9279V56.9999H26.2661C25.4821 56.9999 24.9861 56.8719 24.7781 56.6159C24.5701 56.3599 24.4661 55.7199 24.4661 54.6959V49.6319C24.4661 48.9279 24.5861 48.4719 24.8261 48.2639C25.0661 48.0559 25.5701 47.9519 26.3381 47.9519H29.6261V50.2319ZM35.4101 54.2399C35.8101 54.2399 36.0101 54.4639 36.0101 54.9119V56.9999H29.2901L29.2661 54.2399H35.4101ZM31.2101 41.9279H28.9301C28.5941 41.9279 28.3861 41.9839 28.3061 42.0959C28.2261 42.1919 28.1861 42.3759 28.1861 42.6479V45.3119H25.5461C24.9541 45.3119 24.6021 45.2639 24.4901 45.1679C24.3941 45.0719 24.3461 44.7759 24.3461 44.2799V42.2159C24.3461 41.3359 24.4741 40.6879 24.7301 40.2719C25.0021 39.8559 25.5861 39.6479 26.4821 39.6479H31.2101V41.9279ZM47.8556 51.7679H51.2156C51.3916 51.7679 51.4796 51.8799 51.4796 52.1039V56.3279C51.4796 56.7759 51.2556 56.9999 50.8076 56.9999H44.9996V54.7199H47.2316C47.4876 54.7199 47.6156 54.6959 47.6156 54.6479C47.6316 54.5839 47.6396 54.5119 47.6396 54.4319V52.0319C47.6396 51.9039 47.6556 51.8319 47.6876 51.8159C47.7196 51.7839 47.7756 51.7679 47.8556 51.7679ZM44.1596 56.9999H41.6396C41.0956 56.9999 40.7356 56.9119 40.5596 56.7359C40.3996 56.5599 40.3196 56.1919 40.3196 55.6319V41.0159C40.3196 40.4559 40.3996 40.0879 40.5596 39.9119C40.7356 39.7359 41.0956 39.6479 41.6396 39.6479H44.1596V56.9999Z" fill="#F7F7FF"/>
<path d="M29.3621 36.9999H28.3621V37.9999H29.3621V36.9999ZM29.3621 34.7199V33.7199H28.3621V34.7199H29.3621ZM31.9781 34.6479L31.008 34.4053L30.9781 34.5248V34.6479H31.9781ZM32.0501 31.8159L32.4973 32.7103L32.6425 32.6377L32.7572 32.523L32.0501 31.8159ZM28.5221 36.9999V37.9999H29.5221V36.9999H28.5221ZM24.9221 36.7359L24.1822 37.4086L24.1982 37.4262L24.215 37.443L24.9221 36.7359ZM24.9221 19.9119L24.215 19.2048L24.1982 19.2216L24.1822 19.2392L24.9221 19.9119ZM28.5221 19.6479H29.5221V18.6479H28.5221V19.6479ZM32.2181 32.7679H35.5781V30.7679H32.2181V32.7679ZM35.5781 32.7679C35.4391 32.7679 35.1798 32.7115 34.9898 32.4697C34.9107 32.369 34.8745 32.2725 34.8583 32.2102C34.8424 32.1497 34.8421 32.1101 34.8421 32.1039H36.8421C36.8421 31.8881 36.8043 31.5419 36.5624 31.2341C36.2845 30.8803 35.8931 30.7679 35.5781 30.7679V32.7679ZM34.8421 32.1039V36.3279H36.8421V32.1039H34.8421ZM34.8421 36.3279C34.8421 36.3977 34.8253 36.2665 34.967 36.1248C35.1087 35.9831 35.24 35.9999 35.1701 35.9999V37.9999C35.5483 37.9999 36.0156 37.9047 36.3812 37.539C36.7469 37.1733 36.8421 36.706 36.8421 36.3279H34.8421ZM35.1701 35.9999H29.3621V37.9999H35.1701V35.9999ZM30.3621 36.9999V34.7199H28.3621V36.9999H30.3621ZM29.3621 35.7199H31.5941V33.7199H29.3621V35.7199ZM31.5941 35.7199C31.7368 35.7199 31.9083 35.7144 32.0664 35.6847C32.1362 35.6717 32.2866 35.6397 32.4444 35.551C32.5945 35.4665 32.9781 35.1893 32.9781 34.6479H30.9781C30.9781 34.1304 31.3457 33.8743 31.4639 33.8078C31.5897 33.737 31.692 33.7201 31.6978 33.719C31.7279 33.7134 31.7074 33.7199 31.5941 33.7199V35.7199ZM32.9483 34.8904C32.9878 34.7324 33.0021 34.577 33.0021 34.4319H31.0021C31.0021 34.4387 31.0018 34.4397 31.0022 34.4354C31.0027 34.4312 31.0041 34.4208 31.008 34.4053L32.9483 34.8904ZM33.0021 34.4319V32.0319H31.0021V34.4319H33.0021ZM33.0021 32.0319C33.0021 31.996 33.0056 32.0301 32.9903 32.0988C32.9826 32.1335 32.9616 32.2171 32.907 32.3172C32.8532 32.416 32.7319 32.593 32.4973 32.7103L31.6029 30.9215C31.3524 31.0467 31.2171 31.2388 31.1512 31.3595C31.0846 31.4816 31.0536 31.5943 31.0379 31.6649C31.0067 31.8056 31.0021 31.9398 31.0021 32.0319H33.0021ZM32.7572 32.523C32.6234 32.6568 32.4805 32.7158 32.3908 32.7414C32.3032 32.7664 32.239 32.7679 32.2181 32.7679V30.7679C32.0604 30.7679 31.6629 30.7888 31.343 31.1088L32.7572 32.523ZM28.5221 35.9999H26.0021V37.9999H28.5221V35.9999ZM26.0021 35.9999C25.7766 35.9999 25.6369 35.9809 25.5616 35.9625C25.4783 35.9421 25.5394 35.9389 25.6292 36.0288L24.215 37.443C24.4809 37.7089 24.8099 37.8376 25.0867 37.9053C25.3714 37.9749 25.6837 37.9999 26.0021 37.9999V35.9999ZM25.6621 36.0632C25.71 36.1159 25.729 36.1573 25.732 36.1642C25.7352 36.1714 25.7286 36.1583 25.7193 36.1154C25.6999 36.0261 25.6821 35.8714 25.6821 35.6319H23.6821C23.6821 35.9523 23.7044 36.2617 23.7649 36.5403C23.8225 36.8052 23.9343 37.1359 24.1822 37.4086L25.6621 36.0632ZM25.6821 35.6319V21.0159H23.6821V35.6319H25.6821ZM25.6821 21.0159C25.6821 20.7763 25.6999 20.6217 25.7193 20.5323C25.7286 20.4895 25.7352 20.4763 25.732 20.4835C25.729 20.4905 25.71 20.5318 25.6621 20.5846L24.1822 19.2392C23.9343 19.5119 23.8225 19.8425 23.7649 20.1074C23.7044 20.3861 23.6821 20.6954 23.6821 21.0159H25.6821ZM25.6292 20.619C25.5394 20.7089 25.4783 20.7056 25.5616 20.6853C25.6369 20.6669 25.7766 20.6479 26.0021 20.6479V18.6479C25.6837 18.6479 25.3714 18.6729 25.0867 18.7425C24.8099 18.8101 24.4809 18.9389 24.215 19.2048L25.6292 20.619ZM26.0021 20.6479H28.5221V18.6479H26.0021V20.6479ZM27.5221 19.6479V36.9999H29.5221V19.6479H27.5221ZM46.7764 19.6479V18.6479H45.7764V19.6479H46.7764ZM45.1924 30.2319H44.1924V31.2319H45.1924V30.2319ZM45.1924 27.9519V26.9519H44.1924V27.9519H45.1924ZM46.6564 27.8079L45.8426 27.2266L45.8333 27.2398L45.8243 27.2532L46.6564 27.8079ZM44.2324 30.2319V31.2319H45.2324V30.2319H44.2324ZM43.0084 30.3999L42.1946 29.8186L42.1853 29.8318L42.1763 29.8452L43.0084 30.3999ZM42.9124 36.9999V37.9999H43.9124V36.9999H42.9124ZM39.3844 36.6159L38.6083 37.2465L39.3844 36.6159ZM39.4324 28.2639L38.7774 27.5082L39.4324 28.2639ZM44.2324 27.9519H45.2324V26.9519H44.2324V27.9519ZM50.6164 36.9999V37.9999H51.6164V36.9999H50.6164ZM43.8964 36.9999L42.8964 37.0086L42.905 37.9999H43.8964V36.9999ZM43.8724 34.2399V33.2399H42.8636L42.8724 34.2486L43.8724 34.2399ZM45.8164 21.9279V22.9279H46.8164V21.9279H45.8164ZM42.9124 22.0959L43.6806 22.7361L43.7045 22.7074L43.7261 22.6771L42.9124 22.0959ZM42.7924 25.3119V26.3119H43.7924V25.3119H42.7924ZM39.0964 25.1679L38.3893 25.875L38.4164 25.9021L38.4456 25.9271L39.0964 25.1679ZM39.3364 20.2719L38.4994 19.7246L38.4919 19.7361L38.4847 19.7478L39.3364 20.2719ZM45.8164 19.6479H46.8164V18.6479H45.8164V19.6479ZM46.7764 20.6479H48.5764V18.6479H46.7764V20.6479ZM48.5764 20.6479C49.0654 20.6479 49.26 20.7813 49.3543 20.8889C49.4707 21.0218 49.6164 21.324 49.6164 21.9759H51.6164C51.6164 21.0758 51.422 20.214 50.8585 19.5708C50.2728 18.9025 49.4474 18.6479 48.5764 18.6479V20.6479ZM49.6164 21.9759V28.0719H51.6164V21.9759H49.6164ZM49.6164 28.0719C49.6164 28.6433 49.4766 28.8871 49.3734 28.9928C49.2742 29.0942 49.0485 29.2319 48.5044 29.2319V31.2319C49.3683 31.2319 50.1986 31.0095 50.8034 30.391C51.4041 29.7766 51.6164 28.9405 51.6164 28.0719H49.6164ZM48.5044 29.2319H45.1924V31.2319H48.5044V29.2319ZM46.1924 30.2319V27.9519H44.1924V30.2319H46.1924ZM45.1924 28.9519H46.1284V26.9519H45.1924V28.9519ZM46.1284 28.9519C46.3163 28.9519 46.5311 28.9375 46.7395 28.8806C46.9321 28.8281 47.2636 28.6998 47.4884 28.3626L45.8243 27.2532C45.9061 27.1306 46.0025 27.0556 46.0729 27.0134C46.141 26.9725 46.1941 26.9563 46.2133 26.9511C46.2456 26.9423 46.2284 26.9519 46.1284 26.9519V28.9519ZM47.4701 28.3891C47.7376 28.0146 47.7764 27.5659 47.7764 27.2559H45.7764C45.7764 27.2943 45.7749 27.3232 45.773 27.3438C45.7711 27.3647 45.7691 27.3738 45.7692 27.3734C45.7692 27.3733 45.7723 27.3589 45.7821 27.3347C45.792 27.3103 45.8105 27.2717 45.8426 27.2266L47.4701 28.3891ZM47.7764 27.2559V19.6479H45.7764V27.2559H47.7764ZM44.2324 29.2319H43.5604V31.2319H44.2324V29.2319ZM43.5604 29.2319C43.3616 29.2319 43.136 29.25 42.9152 29.3172C42.6945 29.3844 42.4049 29.5242 42.1946 29.8186L43.8221 30.9811C43.6918 31.1635 43.5343 31.2194 43.4975 31.2306C43.4608 31.2417 43.4711 31.2319 43.5604 31.2319V29.2319ZM42.1763 29.8452C42.0385 30.0519 41.9809 30.2689 41.9525 30.425C41.9223 30.5912 41.9124 30.7632 41.9124 30.9279H43.9124C43.9124 30.8842 43.9138 30.8502 43.9156 30.8247C43.9176 30.7989 43.9197 30.7857 43.9202 30.7828C43.9209 30.7792 43.9187 30.7933 43.9094 30.8197C43.9003 30.8454 43.8802 30.8948 43.8404 30.9546L42.1763 29.8452ZM41.9124 30.9279V36.9999H43.9124V30.9279H41.9124ZM42.9124 35.9999H40.8724V37.9999H42.9124V35.9999ZM40.8724 35.9999C40.5252 35.9999 40.2976 35.9705 40.1623 35.9356C40.0141 35.8974 40.0735 35.8783 40.1605 35.9853L38.6083 37.2465C38.9032 37.6095 39.3146 37.7824 39.6625 37.8722C40.0231 37.9652 40.4356 37.9999 40.8724 37.9999V35.9999ZM40.1605 35.9853C40.2061 36.0415 40.2084 36.0693 40.1923 36.023C40.1778 35.9816 40.1572 35.9054 40.1374 35.7835C40.0975 35.5378 40.0724 35.1811 40.0724 34.6959H38.0724C38.0724 35.2346 38.0993 35.71 38.1633 36.1043C38.2211 36.4598 38.331 36.9053 38.6083 37.2465L40.1605 35.9853ZM40.0724 34.6959V29.6319H38.0724V34.6959H40.0724ZM40.0724 29.6319C40.0724 29.328 40.0992 29.1313 40.1294 29.0164C40.1617 28.8939 40.1767 28.9421 40.0873 29.0196L38.7774 27.5082C38.4481 27.7937 38.2831 28.1738 38.1953 28.5074C38.1056 28.8484 38.0724 29.2318 38.0724 29.6319H40.0724ZM40.0873 29.0196C40.0214 29.0767 40.015 29.0459 40.1925 29.0092C40.3541 28.9759 40.5986 28.9519 40.9444 28.9519V26.9519C40.5222 26.9519 40.1306 26.9799 39.7883 27.0505C39.4618 27.1179 39.0834 27.243 38.7774 27.5082L40.0873 29.0196ZM40.9444 28.9519H44.2324V26.9519H40.9444V28.9519ZM43.2324 27.9519V30.2319H45.2324V27.9519H43.2324ZM50.0164 35.2399C50.0255 35.2399 49.99 35.2414 49.9291 35.2187C49.8624 35.1938 49.7857 35.147 49.7204 35.0739C49.5925 34.9306 49.6164 34.8158 49.6164 34.9119H51.6164C51.6164 34.5599 51.5403 34.1092 51.2123 33.7419C50.8651 33.353 50.4017 33.2399 50.0164 33.2399V35.2399ZM49.6164 34.9119V36.9999H51.6164V34.9119H49.6164ZM50.6164 35.9999H43.8964V37.9999H50.6164V35.9999ZM44.8963 36.9912L44.8723 34.2312L42.8724 34.2486L42.8964 37.0086L44.8963 36.9912ZM43.8724 35.2399H50.0164V33.2399H43.8724V35.2399ZM45.8164 20.9279H43.5364V22.9279H45.8164V20.9279ZM43.5364 20.9279C43.3237 20.9279 43.0906 20.9444 42.8684 21.0043C42.6602 21.0603 42.3308 21.1897 42.0986 21.5146L43.7261 22.6771C43.6485 22.7858 43.5611 22.8507 43.5002 22.8862C43.4413 22.9205 43.3983 22.9328 43.3883 22.9355C43.3741 22.9393 43.413 22.9279 43.5364 22.9279V20.9279ZM42.1442 21.4557C41.962 21.6743 41.8835 21.9172 41.8452 22.0934C41.805 22.2785 41.7924 22.469 41.7924 22.6479H43.7924C43.7924 22.6038 43.794 22.5709 43.796 22.5478C43.7981 22.5242 43.8002 22.5154 43.7995 22.5183C43.7991 22.5206 43.7941 22.543 43.779 22.5783C43.7639 22.6135 43.7344 22.6715 43.6806 22.7361L42.1442 21.4557ZM41.7924 22.6479V25.3119H43.7924V22.6479H41.7924ZM42.7924 24.3119H40.1524V26.3119H42.7924V24.3119ZM40.1524 24.3119C39.8761 24.3119 39.6911 24.3003 39.5795 24.285C39.5236 24.2774 39.5091 24.2719 39.5218 24.2758C39.5293 24.2781 39.5537 24.2861 39.5885 24.3031C39.6219 24.3194 39.6809 24.3518 39.7472 24.4086L38.4456 25.9271C38.6229 26.0791 38.8143 26.1504 38.929 26.1859C39.0577 26.2259 39.1892 26.2503 39.3093 26.2667C39.5497 26.2995 39.8367 26.3119 40.1524 26.3119V24.3119ZM39.8035 24.4608C39.8664 24.5237 39.9061 24.5833 39.9294 24.6238C39.9529 24.6647 39.9659 24.6969 39.972 24.7136C39.9833 24.7441 39.9813 24.7496 39.9755 24.7138C39.9702 24.6813 39.9641 24.6295 39.9595 24.5539C39.955 24.4793 39.9524 24.3884 39.9524 24.2799H37.9524C37.9524 24.5517 37.965 24.81 38.0013 25.0339C38.0195 25.1462 38.0475 25.2746 38.0947 25.4032C38.1384 25.5223 38.2225 25.7082 38.3893 25.875L39.8035 24.4608ZM39.9524 24.2799V22.2159H37.9524V24.2799H39.9524ZM39.9524 22.2159C39.9524 21.3931 40.0793 20.9727 40.188 20.796L38.4847 19.7478C38.0815 20.403 37.9524 21.2786 37.9524 22.2159H39.9524ZM40.1733 20.8191C40.1629 20.8352 40.1759 20.7951 40.3139 20.7459C40.4618 20.6932 40.7083 20.6479 41.0884 20.6479V18.6479C40.12 18.6479 39.065 18.8595 38.4994 19.7246L40.1733 20.8191ZM41.0884 20.6479H45.8164V18.6479H41.0884V20.6479ZM44.8164 19.6479V21.9279H46.8164V19.6479H44.8164ZM32.1701 39.6479V38.6479H31.1701V39.6479H32.1701ZM30.5861 50.2319H29.5861V51.2319H30.5861V50.2319ZM30.5861 47.9519V46.9519H29.5861V47.9519H30.5861ZM32.0501 47.8079L31.2364 47.2266L31.227 47.2398L31.2181 47.2532L32.0501 47.8079ZM29.6261 50.2319V51.2319H30.6261V50.2319H29.6261ZM28.4021 50.3999L27.5884 49.8186L27.579 49.8318L27.5701 49.8452L28.4021 50.3999ZM28.3061 56.9999V57.9999H29.3061V56.9999H28.3061ZM24.7781 56.6159L24.002 57.2465L24.7781 56.6159ZM24.8261 48.2639L24.1712 47.5082H24.1712L24.8261 48.2639ZM29.6261 47.9519H30.6261V46.9519H29.6261V47.9519ZM36.0101 56.9999V57.9999H37.0101V56.9999H36.0101ZM29.2901 56.9999L28.2902 57.0086L28.2988 57.9999H29.2901V56.9999ZM29.2661 54.2399V53.2399H28.2574L28.2662 54.2486L29.2661 54.2399ZM31.2101 41.9279V42.9279H32.2101V41.9279H31.2101ZM28.3061 42.0959L29.0743 42.7361L29.0982 42.7074L29.1199 42.6771L28.3061 42.0959ZM28.1861 45.3119V46.3119H29.1861V45.3119H28.1861ZM24.4901 45.1679L23.783 45.875L23.8102 45.9021L23.8393 45.9271L24.4901 45.1679ZM24.7301 40.2719L23.8932 39.7246L23.8857 39.7361L23.8785 39.7478L24.7301 40.2719ZM31.2101 39.6479H32.2101V38.6479H31.2101V39.6479ZM32.1701 40.6479H33.9701V38.6479H32.1701V40.6479ZM33.9701 40.6479C34.4591 40.6479 34.6537 40.7813 34.748 40.8889C34.8645 41.0218 35.0101 41.324 35.0101 41.9759H37.0101C37.0101 41.0758 36.8158 40.214 36.2522 39.5708C35.6665 38.9025 34.8411 38.6479 33.9701 38.6479V40.6479ZM35.0101 41.9759V48.0719H37.0101V41.9759H35.0101ZM35.0101 48.0719C35.0101 48.6433 34.8704 48.8871 34.7671 48.9928C34.6679 49.0942 34.4422 49.2319 33.8981 49.2319V51.2319C34.762 51.2319 35.5923 51.0095 36.1971 50.391C36.7979 49.7766 37.0101 48.9405 37.0101 48.0719H35.0101ZM33.8981 49.2319H30.5861V51.2319H33.8981V49.2319ZM31.5861 50.2319V47.9519H29.5861V50.2319H31.5861ZM30.5861 48.9519H31.5221V46.9519H30.5861V48.9519ZM31.5221 48.9519C31.7101 48.9519 31.9249 48.9375 32.1332 48.8806C32.3258 48.8281 32.6574 48.6998 32.8822 48.3626L31.2181 47.2532C31.2998 47.1306 31.3962 47.0556 31.4666 47.0134C31.5347 46.9725 31.5879 46.9563 31.607 46.9511C31.6394 46.9423 31.6222 46.9519 31.5221 46.9519V48.9519ZM32.8639 48.3891C33.1313 48.0146 33.1701 47.5659 33.1701 47.2559H31.1701C31.1701 47.2943 31.1686 47.3232 31.1667 47.3438C31.1648 47.3647 31.1629 47.3738 31.1629 47.3734C31.163 47.3733 31.166 47.3589 31.1759 47.3347C31.1858 47.3103 31.2042 47.2717 31.2364 47.2266L32.8639 48.3891ZM33.1701 47.2559V39.6479H31.1701V47.2559H33.1701ZM29.6261 49.2319H28.9541V51.2319H29.6261V49.2319ZM28.9541 49.2319C28.7554 49.2319 28.5297 49.25 28.309 49.3172C28.0882 49.3844 27.7987 49.5242 27.5884 49.8186L29.2159 50.9811C29.0856 51.1635 28.928 51.2194 28.8913 51.2306C28.8545 51.2417 28.8649 51.2319 28.9541 51.2319V49.2319ZM27.5701 49.8452C27.4323 50.0519 27.3746 50.2689 27.3463 50.425C27.316 50.5912 27.3061 50.7632 27.3061 50.9279H29.3061C29.3061 50.8842 29.3075 50.8502 29.3094 50.8247C29.3113 50.7989 29.3135 50.7857 29.314 50.7828C29.3146 50.7792 29.3124 50.7933 29.3031 50.8197C29.294 50.8454 29.274 50.8948 29.2342 50.9546L27.5701 49.8452ZM27.3061 50.9279V56.9999H29.3061V50.9279H27.3061ZM28.3061 55.9999H26.2661V57.9999H28.3061V55.9999ZM26.2661 55.9999C25.9189 55.9999 25.6914 55.9705 25.556 55.9356C25.4079 55.8974 25.4673 55.8783 25.5542 55.9853L24.002 57.2465C24.297 57.6095 24.7084 57.7824 25.0562 57.8722C25.4169 57.9652 25.8293 57.9999 26.2661 57.9999V55.9999ZM25.5542 55.9853C25.5999 56.0415 25.6021 56.0693 25.586 56.023C25.5716 55.9816 25.551 55.9054 25.5312 55.7835C25.4912 55.5378 25.4661 55.1811 25.4661 54.6959H23.4661C23.4661 55.2346 23.493 55.71 23.5571 56.1043C23.6148 56.4598 23.7248 56.9053 24.002 57.2465L25.5542 55.9853ZM25.4661 54.6959V49.6319H23.4661V54.6959H25.4661ZM25.4661 49.6319C25.4661 49.328 25.4929 49.1313 25.5232 49.0164C25.5554 48.8939 25.5704 48.9421 25.4811 49.0196L24.1712 47.5082C23.8418 47.7937 23.6768 48.1738 23.589 48.5074C23.4993 48.8484 23.4661 49.2318 23.4661 49.6319H25.4661ZM25.4811 49.0196C25.4151 49.0767 25.4087 49.0459 25.5862 49.0092C25.7479 48.9759 25.9923 48.9519 26.3381 48.9519V46.9519C25.9159 46.9519 25.5244 46.9799 25.182 47.0505C24.8555 47.1179 24.4771 47.243 24.1712 47.5082L25.4811 49.0196ZM26.3381 48.9519H29.6261V46.9519H26.3381V48.9519ZM28.6261 47.9519V50.2319H30.6261V47.9519H28.6261ZM35.4101 55.2399C35.4193 55.2399 35.3837 55.2414 35.3229 55.2187C35.2562 55.1938 35.1795 55.147 35.1142 55.0739C34.9862 54.9306 35.0101 54.8158 35.0101 54.9119H37.0101C37.0101 54.5599 36.934 54.1092 36.6061 53.7419C36.2588 53.353 35.7954 53.2399 35.4101 53.2399V55.2399ZM35.0101 54.9119V56.9999H37.0101V54.9119H35.0101ZM36.0101 55.9999H29.2901V57.9999H36.0101V55.9999ZM30.2901 56.9912L30.2661 54.2312L28.2662 54.2486L28.2902 57.0086L30.2901 56.9912ZM29.2661 55.2399H35.4101V53.2399H29.2661V55.2399ZM31.2101 40.9279H28.9301V42.9279H31.2101V40.9279ZM28.9301 40.9279C28.7175 40.9279 28.4844 40.9444 28.2622 41.0043C28.054 41.0603 27.7245 41.1897 27.4924 41.5146L29.1199 42.6771C29.0422 42.7858 28.9548 42.8507 28.894 42.8862C28.8351 42.9205 28.7921 42.9328 28.7821 42.9355C28.7679 42.9393 28.8068 42.9279 28.9301 42.9279V40.9279ZM27.5379 41.4557C27.3557 41.6743 27.2773 41.9172 27.2389 42.0934C27.1987 42.2785 27.1861 42.469 27.1861 42.6479H29.1861C29.1861 42.6038 29.1878 42.5709 29.1898 42.5478C29.1919 42.5242 29.1939 42.5154 29.1933 42.5183C29.1928 42.5206 29.1879 42.543 29.1728 42.5783C29.1577 42.6135 29.1281 42.6715 29.0743 42.7361L27.5379 41.4557ZM27.1861 42.6479V45.3119H29.1861V42.6479H27.1861ZM28.1861 44.3119H25.5461V46.3119H28.1861V44.3119ZM25.5461 44.3119C25.2698 44.3119 25.0848 44.3003 24.9732 44.285C24.9173 44.2774 24.9028 44.2719 24.9155 44.2758C24.9231 44.2781 24.9474 44.2861 24.9822 44.3031C25.0157 44.3194 25.0747 44.3518 25.1409 44.4086L23.8393 45.9271C24.0167 46.0791 24.2081 46.1504 24.3227 46.1859C24.4514 46.2259 24.5829 46.2503 24.703 46.2667C24.9434 46.2995 25.2304 46.3119 25.5461 46.3119V44.3119ZM25.1972 44.4608C25.2602 44.5237 25.2999 44.5833 25.3232 44.6238C25.3467 44.6647 25.3597 44.6969 25.3658 44.7136C25.377 44.7441 25.375 44.7496 25.3692 44.7138C25.364 44.6813 25.3579 44.6295 25.3533 44.5539C25.3488 44.4793 25.3461 44.3884 25.3461 44.2799H23.3461C23.3461 44.5517 23.3587 44.81 23.395 45.0339C23.4132 45.1462 23.4412 45.2746 23.4885 45.4032C23.5322 45.5223 23.6162 45.7082 23.783 45.875L25.1972 44.4608ZM25.3461 44.2799V42.2159H23.3461V44.2799H25.3461ZM25.3461 42.2159C25.3461 41.3931 25.473 40.9727 25.5818 40.796L23.8785 39.7478C23.4752 40.403 23.3461 41.2786 23.3461 42.2159H25.3461ZM25.5671 40.8191C25.5566 40.8352 25.5697 40.7951 25.7076 40.7459C25.8555 40.6932 26.102 40.6479 26.4821 40.6479V38.6479C25.5137 38.6479 24.4588 38.8595 23.8932 39.7246L25.5671 40.8191ZM26.4821 40.6479H31.2101V38.6479H26.4821V40.6479ZM30.2101 39.6479V41.9279H32.2101V39.6479H30.2101ZM44.9996 56.9999H43.9996V57.9999H44.9996V56.9999ZM44.9996 54.7199V53.7199H43.9996V54.7199H44.9996ZM47.6156 54.6479L46.6455 54.4053L46.6156 54.5248V54.6479H47.6156ZM47.6876 51.8159L48.1348 52.7103L48.28 52.6377L48.3947 52.523L47.6876 51.8159ZM44.1596 56.9999V57.9999H45.1596V56.9999H44.1596ZM40.5596 56.7359L39.8197 57.4086L39.8357 57.4262L39.8525 57.443L40.5596 56.7359ZM40.5596 39.9119L39.8525 39.2048L39.8357 39.2216L39.8197 39.2392L40.5596 39.9119ZM44.1596 39.6479H45.1596V38.6479H44.1596V39.6479ZM47.8556 52.7679H51.2156V50.7679H47.8556V52.7679ZM51.2156 52.7679C51.0766 52.7679 50.8173 52.7115 50.6273 52.4697C50.5482 52.369 50.5121 52.2725 50.4958 52.2102C50.4799 52.1497 50.4796 52.1101 50.4796 52.1039H52.4796C52.4796 51.8881 52.4418 51.5419 52.1999 51.2341C51.922 50.8803 51.5306 50.7679 51.2156 50.7679V52.7679ZM50.4796 52.1039V56.3279H52.4796V52.1039H50.4796ZM50.4796 56.3279C50.4796 56.3977 50.4628 56.2665 50.6045 56.1248C50.7462 55.9831 50.8775 55.9999 50.8076 55.9999V57.9999C51.1858 57.9999 51.653 57.9047 52.0187 57.539C52.3844 57.1733 52.4796 56.706 52.4796 56.3279H50.4796ZM50.8076 55.9999H44.9996V57.9999H50.8076V55.9999ZM45.9996 56.9999V54.7199H43.9996V56.9999H45.9996ZM44.9996 55.7199H47.2316V53.7199H44.9996V55.7199ZM47.2316 55.7199C47.3743 55.7199 47.5458 55.7144 47.7039 55.6847C47.7737 55.6717 47.9241 55.6397 48.0819 55.551C48.232 55.4665 48.6156 55.1893 48.6156 54.6479H46.6156C46.6156 54.1304 46.9832 53.8743 47.1014 53.8078C47.2272 53.737 47.3295 53.7201 47.3353 53.719C47.3654 53.7134 47.3449 53.7199 47.2316 53.7199V55.7199ZM48.5858 54.8904C48.6253 54.7324 48.6396 54.577 48.6396 54.4319H46.6396C46.6396 54.4387 46.6393 54.4397 46.6397 54.4354C46.6402 54.4312 46.6416 54.4208 46.6455 54.4053L48.5858 54.8904ZM48.6396 54.4319V52.0319H46.6396V54.4319H48.6396ZM48.6396 52.0319C48.6396 51.996 48.6431 52.0301 48.6278 52.0988C48.6201 52.1335 48.5991 52.2171 48.5445 52.3172C48.4907 52.416 48.3694 52.593 48.1348 52.7103L47.2404 50.9214C46.9899 51.0467 46.8546 51.2388 46.7887 51.3595C46.7221 51.4816 46.6911 51.5943 46.6754 51.6649C46.6442 51.8056 46.6396 51.9398 46.6396 52.0319H48.6396ZM48.3947 52.523C48.2609 52.6568 48.118 52.7158 48.0283 52.7414C47.9407 52.7664 47.8765 52.7679 47.8556 52.7679V50.7679C47.6979 50.7679 47.3004 50.7889 46.9805 51.1088L48.3947 52.523ZM44.1596 55.9999H41.6396V57.9999H44.1596V55.9999ZM41.6396 55.9999C41.4141 55.9999 41.2744 55.9809 41.1991 55.9625C41.1158 55.9421 41.1769 55.9389 41.2667 56.0288L39.8525 57.443C40.1184 57.7089 40.4474 57.8376 40.7242 57.9053C41.0089 57.9749 41.3212 57.9999 41.6396 57.9999V55.9999ZM41.2996 56.0632C41.3475 56.1159 41.3665 56.1573 41.3695 56.1642C41.3727 56.1714 41.3661 56.1583 41.3568 56.1154C41.3374 56.0261 41.3196 55.8714 41.3196 55.6319H39.3196C39.3196 55.9523 39.3419 56.2617 39.4024 56.5403C39.46 56.8052 39.5718 57.1359 39.8197 57.4086L41.2996 56.0632ZM41.3196 55.6319V41.0159H39.3196V55.6319H41.3196ZM41.3196 41.0159C41.3196 40.7763 41.3374 40.6217 41.3568 40.5323C41.3661 40.4895 41.3727 40.4763 41.3695 40.4835C41.3665 40.4905 41.3475 40.5318 41.2996 40.5846L39.8197 39.2392C39.5718 39.5119 39.46 39.8425 39.4024 40.1074C39.3419 40.3861 39.3196 40.6954 39.3196 41.0159H41.3196ZM41.2667 40.619C41.1769 40.7089 41.1158 40.7056 41.1991 40.6853C41.2744 40.6669 41.4141 40.6479 41.6396 40.6479V38.6479C41.3212 38.6479 41.0089 38.6729 40.7242 38.7425C40.4474 38.8101 40.1184 38.9389 39.8525 39.2048L41.2667 40.619ZM41.6396 40.6479H44.1596V38.6479H41.6396V40.6479ZM43.1596 39.6479V56.9999H45.1596V39.6479H43.1596Z" fill="#F7F7FF"/>
</svg>
